ThiruValluvar-Italic.ufo
<glyph name="quotedbl" format="2">
  <advance width="711"/>
  <unicode hex="0022"/>
  <outline>
    <contour>
      <point x="670" y="1268" type="line"/>
      <point x="638" y="1287" type="line"/>
      <point x="613" y="1280"/>
      <point x="558" y="1259"/>
      <point x="531" y="1243" type="curve"/>
      <point x="501" y="772" type="line"/>
      <point x="527" y="772"/>
      <point x="549" y="775"/>
      <point x="567" y="786" type="curve"/>
    </contour>
    <contour>
      <point x="378" y="1268" type="line"/>
      <point x="344" y="1287" type="line"/>
      <point x="320" y="1280"/>
      <point x="265" y="1259"/>
      <point x="237" y="1243" type="curve"/>
      <point x="207" y="772" type="line"/>
      <point x="234" y="772"/>
      <point x="254" y="775"/>
      <point x="274" y="786" type="curve"/>
    </contour>
  </outline>
</glyph>
<glyph name="numbersign" format="2">
  <advance width="740"/>
  <unicode hex="0023"/>
  <outline>
    <contour>
      <point x="837" y="842" type="curve"/>
      <point x="819" y="864" type="line"/>
      <point x="206" y="864" type="line"/>
      <point x="193" y="840"/>
      <point x="179" y="809"/>
      <point x="169" y="783" type="curve"/>
      <point x="186" y="761" type="line"/>
      <point x="800" y="761" type="line"/>
      <point x="810" y="781"/>
      <point x="828" y="816"/>
    </contour>
    <contour>
      <point x="796" y="1143" type="line"/>
      <point x="775" y="1162" type="line"/>
      <point x="750" y="1152"/>
      <point x="722" y="1144"/>
      <point x="696" y="1125" type="curve"/>
      <point x="330" y="132" type="line"/>
      <point x="348" y="114" type="line"/>
      <point x="379" y="125"/>
      <point x="407" y="136"/>
      <point x="429" y="153" type="curve"/>
    </contour>
    <contour>
      <point x="545" y="1143" type="line"/>
      <point x="525" y="1162" type="line"/>
      <point x="499" y="1152"/>
      <point x="471" y="1144"/>
      <point x="446" y="1125" type="curve"/>
      <point x="77" y="132" type="line"/>
      <point x="98" y="114" type="line"/>
      <point x="128" y="125"/>
      <point x="156" y="136"/>
      <point x="179" y="153" type="curve"/>
    </contour>
    <contour>
      <point x="717" y="506" type="curve"/>
      <point x="700" y="531" type="line"/>
      <point x="86" y="531" type="line"/>
      <point x="73" y="506"/>
      <point x="59" y="473"/>
      <point x="49" y="450" type="curve"/>
      <point x="66" y="427" type="line"/>
      <point x="682" y="427" type="line"/>
      <point x="693" y="448"/>
      <point x="707" y="483"/>
    </contour>
  </outline>
</glyph>
<glyph name="dollar" format="2">
  <advance width="740"/>
  <unicode hex="0024"/>
  <outline>
    <contour>
      <point x="507" y="1209" type="line"/>
      <point x="487" y="1229" type="line"/>
      <point x="456" y="1219"/>
      <point x="467" y="1223"/>
      <point x="435" y="1204" type="curve"/>
      <point x="246" y="-132" type="line"/>
      <point x="264" y="-151" type="line"/>
      <point x="293" y="-144"/>
      <point x="297" y="-142"/>
      <point x="319" y="-124" type="curve"/>
    </contour>
    <contour>
      <point x="713" y="1029" type="curve"/>
      <point x="658" y="1071"/>
      <point x="580" y="1107"/>
      <point x="494" y="1107" type="curve" smooth="yes"/>
      <point x="273" y="1107"/>
      <point x="119" y="948"/>
      <point x="119" y="796" type="curve" smooth="yes"/>
      <point x="119" y="714"/>
      <point x="168" y="621"/>
      <point x="319" y="549" type="curve" smooth="yes"/>
      <point x="492" y="468"/>
      <point x="552" y="402"/>
      <point x="552" y="308" type="curve" smooth="yes"/>
      <point x="552" y="180"/>
      <point x="433" y="81"/>
      <point x="295" y="81" type="curve" smooth="yes"/>
      <point x="158" y="81"/>
      <point x="106" y="216"/>
      <point x="80" y="216" type="curve" smooth="yes"/>
      <point x="47" y="216"/>
      <point x="-14" y="125"/>
      <point x="-14" y="97" type="curve" smooth="yes"/>
      <point x="-14" y="36"/>
      <point x="149" y="-27"/>
      <point x="235" y="-27" type="curve" smooth="yes"/>
      <point x="463" y="-27"/>
      <point x="665" y="162"/>
      <point x="665" y="376" type="curve" smooth="yes"/>
      <point x="665" y="504"/>
      <point x="591" y="576"/>
      <point x="408" y="669" type="curve" smooth="yes"/>
      <point x="255" y="747"/>
      <point x="224" y="803"/>
      <point x="224" y="855" type="curve" smooth="yes"/>
      <point x="224" y="930"/>
      <point x="303" y="1019"/>
      <point x="424" y="1019" type="curve" smooth="yes"/>
      <point x="492" y="1019"/>
      <point x="562" y="969"/>
      <point x="601" y="914" type="curve"/>
      <point x="626" y="909" type="line"/>
      <point x="648" y="923"/>
      <point x="728" y="1019"/>
    </contour>
  </outline>
</glyph>
<glyph name="percent" format="2">
  <advance width="1190"/>
  <unicode hex="0025"/>
  <outline>
    <contour>
      <point x="1104" y="432" type="curve" smooth="yes"/>
      <point x="1104" y="575"/>
      <point x="987" y="580"/>
      <point x="971" y="580" type="curve" smooth="yes"/>
      <point x="809" y="580"/>
      <point x="692" y="348"/>
      <point x="692" y="167" type="curve" smooth="yes"/>
      <point x="692" y="34"/>
      <point x="804" y="29"/>
      <point x="821" y="29" type="curve" smooth="yes"/>
      <point x="1003" y="29"/>
      <point x="1104" y="266"/>
    </contour>
    <contour>
      <point x="1092" y="1032" type="line"/>
      <point x="1008" y="1032" type="line"/>
      <point x="206" y="25" type="line"/>
      <point x="288" y="25" type="line"/>
    </contour>
    <contour>
      <point x="485" y="1032" type="curve" smooth="yes"/>
      <point x="323" y="1032"/>
      <point x="205" y="826"/>
      <point x="205" y="635" type="curve" smooth="yes"/>
      <point x="205" y="503"/>
      <point x="285" y="482"/>
      <point x="336" y="482" type="curve" smooth="yes"/>
      <point x="365" y="482"/>
      <point x="396" y="492"/>
      <point x="430" y="510" type="curve" smooth="yes"/>
      <point x="606" y="608"/>
      <point x="615" y="891"/>
      <point x="615" y="895" type="curve" smooth="yes"/>
      <point x="615" y="1026"/>
      <point x="506" y="1032"/>
    </contour>
    <contour>
      <point x="903" y="131" type="curve" smooth="yes"/>
      <point x="813" y="131"/>
      <point x="796" y="211"/>
      <point x="796" y="270" type="curve" smooth="yes"/>
      <point x="796" y="301"/>
      <point x="800" y="336"/>
      <point x="809" y="376" type="curve" smooth="yes"/>
      <point x="825" y="447"/>
      <point x="847" y="477"/>
      <point x="900" y="477" type="curve" smooth="yes"/>
      <point x="996" y="477"/>
      <point x="1005" y="382"/>
      <point x="1005" y="347" type="curve" smooth="yes"/>
      <point x="1005" y="345"/>
      <point x="1002" y="131"/>
    </contour>
    <contour>
      <point x="407" y="584" type="curve" smooth="yes"/>
      <point x="311" y="584"/>
      <point x="303" y="683"/>
      <point x="303" y="715" type="curve" smooth="yes"/>
      <point x="303" y="717"/>
      <point x="306" y="930"/>
      <point x="405" y="930" type="curve" smooth="yes"/>
      <point x="498" y="930"/>
      <point x="512" y="843"/>
      <point x="512" y="792" type="curve" smooth="yes"/>
      <point x="512" y="768"/>
      <point x="509" y="584"/>
    </contour>
  </outline>
</glyph>
<glyph name="ampersand" format="2">
  <advance width="1101"/>
  <unicode hex="0026"/>
  <outline>
    <contour>
      <point x="1175" y="673" type="curve"/>
      <point x="1158" y="707" type="line"/>
      <point x="785" y="707" type="line"/>
      <point x="761" y="698"/>
      <point x="728" y="670"/>
      <point x="713" y="655" type="curve"/>
      <point x="730" y="627" type="line"/>
      <point x="787" y="627"/>
      <point x="838" y="565"/>
      <point x="838" y="474" type="curve" smooth="yes"/>
      <point x="838" y="462"/>
      <point x="837" y="450"/>
      <point x="835" y="437" type="curve" smooth="yes"/>
      <point x="812" y="286"/>
      <point x="640" y="84"/>
      <point x="419" y="84" type="curve" smooth="yes"/>
      <point x="317" y="84"/>
      <point x="219" y="159"/>
      <point x="219" y="298" type="curve" smooth="yes"/>
      <point x="219" y="312"/>
      <point x="220" y="327"/>
      <point x="222" y="342" type="curve" smooth="yes"/>
      <point x="242" y="482"/>
      <point x="329" y="588"/>
      <point x="579" y="746" type="curve" smooth="yes"/>
      <point x="718" y="833"/>
      <point x="834" y="954"/>
      <point x="853" y="1076" type="curve" smooth="yes"/>
      <point x="855" y="1092"/>
      <point x="856" y="1107"/>
      <point x="856" y="1122" type="curve" smooth="yes"/>
      <point x="856" y="1222"/>
      <point x="805" y="1305"/>
      <point x="677" y="1305" type="curve" smooth="yes"/>
      <point x="520" y="1305"/>
      <point x="370" y="1159"/>
      <point x="343" y="965" type="curve" smooth="yes"/>
      <point x="340" y="942"/>
      <point x="339" y="918"/>
      <point x="339" y="894" type="curve" smooth="yes"/>
      <point x="339" y="487"/>
      <point x="760" y="-27"/>
      <point x="842" y="-27" type="curve" smooth="yes"/>
      <point x="866" y="-27"/>
      <point x="955" y="0"/>
      <point x="1057" y="45" type="curve"/>
      <point x="1054" y="92" type="line"/>
      <point x="1036" y="88"/>
      <point x="1021" y="85"/>
      <point x="1005" y="85" type="curve" smooth="yes"/>
      <point x="965" y="85"/>
      <point x="931" y="101"/>
      <point x="900" y="132" type="curve" smooth="yes"/>
      <point x="736" y="300"/>
      <point x="478" y="678"/>
      <point x="478" y="960" type="curve" smooth="yes"/>
      <point x="478" y="979"/>
      <point x="479" y="998"/>
      <point x="482" y="1017" type="curve" smooth="yes"/>
      <point x="495" y="1111"/>
      <point x="538" y="1201"/>
      <point x="616" y="1201" type="curve" smooth="yes"/>
      <point x="680" y="1201"/>
      <point x="711" y="1157"/>
      <point x="711" y="1092" type="curve" smooth="yes"/>
      <point x="711" y="1077"/>
      <point x="709" y="1062"/>
      <point x="706" y="1047" type="curve" smooth="yes"/>
      <point x="695" y="969"/>
      <point x="642" y="880"/>
      <point x="503" y="801" type="curve" smooth="yes"/>
      <point x="240" y="651"/>
      <point x="82" y="486"/>
      <point x="61" y="323" type="curve" smooth="yes"/>
      <point x="58" y="300"/>
      <point x="56" y="279"/>
      <point x="56" y="259" type="curve" smooth="yes"/>
      <point x="56" y="75"/>
      <point x="180" y="-27"/>
      <point x="371" y="-27" type="curve" smooth="yes"/>
      <point x="673" y="-27"/>
      <point x="926" y="267"/>
      <point x="955" y="474" type="curve" smooth="yes"/>
      <point x="959" y="502"/>
      <point x="961" y="525"/>
      <point x="961" y="545" type="curve" smooth="yes"/>
      <point x="961" y="574"/>
      <point x="957" y="597"/>
      <point x="947" y="621" type="curve"/>
      <point x="984" y="619"/>
      <point x="1041" y="602"/>
      <point x="1078" y="581" type="curve"/>
      <point x="1107" y="602"/>
      <point x="1143" y="636"/>
    </contour>
  </outline>
</glyph>
<glyph name="quotesingle" format="2">
  <advance width="369"/>
  <unicode hex="0027"/>
  <outline>
    <contour>
      <point x="378" y="1268" type="line"/>
      <point x="344" y="1287" type="line"/>
      <point x="318" y="1280"/>
      <point x="265" y="1259"/>
      <point x="237" y="1243" type="curve"/>
      <point x="207" y="772" type="line"/>
      <point x="234" y="772"/>
      <point x="254" y="775"/>
      <point x="274" y="786" type="curve"/>
    </contour>
  </outline>
</glyph>
<glyph name="parenleft" format="2">
  <advance width="551"/>
  <unicode hex="0028"/>
  <outline>
    <contour>
      <point x="647" y="1394" type="curve"/>
      <point x="622" y="1443" type="line"/>
      <point x="362" y="1318"/>
      <point x="162" y="973"/>
      <point x="107" y="579" type="curve" smooth="yes"/>
      <point x="51" y="197"/>
      <point x="149" y="-155"/>
      <point x="379" y="-283" type="curve"/>
      <point x="419" y="-234" type="line"/>
      <point x="278" y="-70"/>
      <point x="229" y="256"/>
      <point x="278" y="607" type="curve"/>
      <point x="333" y="992"/>
      <point x="483" y="1272"/>
    </contour>
  </outline>
</glyph>
<glyph name="parenright" format="2">
  <advance width="574"/>
  <unicode hex="0029"/>
  <outline>
    <contour>
      <point x="162" y="1295" type="curve"/>
      <point x="147" y="1282" type="line"/>
      <point x="336" y="1105"/>
      <point x="346" y="801"/>
      <point x="346" y="739" type="curve" smooth="yes"/>
      <point x="346" y="77"/>
      <point x="-2" y="-339"/>
      <point x="-232" y="-504" type="curve"/>
      <point x="-223" y="-518" type="line"/>
      <point x="341" y="-234"/>
      <point x="499" y="308"/>
      <point x="499" y="659" type="curve" smooth="yes"/>
      <point x="499" y="1045"/>
      <point x="252" y="1237"/>
    </contour>
  </outline>
</glyph>
<glyph name="asterisk" format="2">
  <advance width="1229"/>
  <unicode hex="002A"/>
  <outline>
    <contour>
      <point x="720" y="506" type="curve" smooth="yes"/>
      <point x="755" y="506"/>
      <point x="787" y="537"/>
      <point x="796" y="582" type="curve"/>
      <point x="796" y="663"/>
      <point x="789" y="731"/>
      <point x="789" y="750" type="curve" smooth="yes"/>
      <point x="789" y="783"/>
      <point x="791" y="797"/>
      <point x="795" y="817" type="curve"/>
      <point x="875" y="759"/>
      <point x="927" y="643"/>
      <point x="975" y="643" type="curve" smooth="yes"/>
      <point x="1021" y="643"/>
      <point x="1055" y="679"/>
      <point x="1055" y="719" type="curve" smooth="yes"/>
      <point x="1055" y="757"/>
      <point x="1047" y="759"/>
      <point x="923" y="794" type="curve" smooth="yes"/>
      <point x="874" y="808"/>
      <point x="837" y="823"/>
      <point x="810" y="840" type="curve"/>
      <point x="858" y="862"/>
      <point x="858" y="862"/>
      <point x="1056" y="911" type="curve" smooth="yes"/>
      <point x="1089" y="919"/>
      <point x="1112" y="953"/>
      <point x="1112" y="987" type="curve" smooth="yes"/>
      <point x="1112" y="1029"/>
      <point x="1071" y="1033"/>
      <point x="1057" y="1033" type="curve" smooth="yes"/>
      <point x="1004" y="1033"/>
      <point x="917" y="921"/>
      <point x="803" y="858" type="curve"/>
      <point x="817" y="912"/>
      <point x="830" y="940"/>
      <point x="905" y="1094" type="curve"/>
      <point x="906" y="1103"/>
      <point x="907" y="1110"/>
      <point x="907" y="1114" type="curve" smooth="yes"/>
      <point x="907" y="1149"/>
      <point x="887" y="1169"/>
      <point x="860" y="1169" type="curve" smooth="yes"/>
      <point x="829" y="1169"/>
      <point x="792" y="1144"/>
      <point x="782" y="1096" type="curve"/>
      <point x="782" y="1051"/>
      <point x="787" y="974"/>
      <point x="787" y="929" type="curve" smooth="yes"/>
      <point x="787" y="890"/>
      <point x="785" y="871"/>
      <point x="782" y="854" type="curve"/>
      <point x="742" y="885"/>
      <point x="735" y="894"/>
      <point x="639" y="1022" type="curve" smooth="yes"/>
      <point x="630" y="1031"/>
      <point x="618" y="1036"/>
      <point x="603" y="1036" type="curve" smooth="yes"/>
      <point x="558" y="1036"/>
      <point x="522" y="1003"/>
      <point x="522" y="959" type="curve" smooth="yes"/>
      <point x="522" y="884"/>
      <point x="657" y="898"/>
      <point x="767" y="840" type="curve"/>
      <point x="680" y="797"/>
      <point x="538" y="773"/>
      <point x="520" y="764" type="curve" smooth="yes"/>
      <point x="483" y="754"/>
      <point x="464" y="717"/>
      <point x="464" y="690" type="curve" smooth="yes"/>
      <point x="464" y="675"/>
      <point x="470" y="642"/>
      <point x="515" y="642" type="curve" smooth="yes"/>
      <point x="579" y="642"/>
      <point x="644" y="750"/>
      <point x="775" y="821" type="curve"/>
      <point x="748" y="728"/>
      <point x="671" y="604"/>
      <point x="671" y="562" type="curve" smooth="yes"/>
      <point x="671" y="523"/>
      <point x="695" y="506"/>
    </contour>
  </outline>
</glyph>
<glyph name="comma" format="2">
  <advance width="389"/>
  <unicode hex="002C"/>
  <outline>
    <contour>
      <point x="294" y="96" type="curve"/>
      <point x="294" y="170"/>
      <point x="276" y="191"/>
      <point x="234" y="215" type="curve"/>
      <point x="190" y="216"/>
      <point x="48" y="153"/>
      <point x="18" y="122" type="curve"/>
      <point x="24" y="72" type="line"/>
      <point x="97" y="82"/>
      <point x="123" y="37"/>
      <point x="123" y="-6" type="curve" smooth="yes"/>
      <point x="123" y="-73"/>
      <point x="77" y="-161"/>
      <point x="-14" y="-258" type="curve"/>
      <point x="22" y="-294" type="line"/>
      <point x="148" y="-219"/>
      <point x="294" y="-13"/>
    </contour>
  </outline>
</glyph>
<glyph name="hyphen" format="2">
  <advance width="588"/>
  <unicode hex="002D"/>
  <outline>
    <contour>
      <point x="537" y="489" type="curve"/>
      <point x="518" y="513" type="line"/>
      <point x="77" y="513" type="line"/>
      <point x="63" y="489"/>
      <point x="43" y="454"/>
      <point x="34" y="428" type="curve"/>
      <point x="52" y="405" type="line"/>
      <point x="496" y="405" type="line"/>
      <point x="507" y="424"/>
      <point x="527" y="463"/>
    </contour>
  </outline>
</glyph>
<glyph name="period" format="2">
  <advance width="389"/>
  <unicode hex="002E"/>
  <outline>
    <contour>
      <point x="274" y="141" type="curve"/>
      <point x="274" y="193"/>
      <point x="243" y="230"/>
      <point x="189" y="230" type="curve" smooth="yes"/>
      <point x="105" y="230"/>
      <point x="43" y="137"/>
      <point x="43" y="65" type="curve" smooth="yes"/>
      <point x="43" y="9"/>
      <point x="73" y="-27"/>
      <point x="130" y="-27" type="curve" smooth="yes"/>
      <point x="220" y="-27"/>
      <point x="274" y="65"/>
    </contour>
  </outline>
</glyph>
<glyph name="slash" format="2">
  <advance width="757"/>
  <unicode hex="002F"/>
  <outline>
    <contour>
      <point x="865" y="1417" type="line"/>
      <point x="835" y="1439" type="line"/>
      <point x="800" y="1430"/>
      <point x="744" y="1411"/>
      <point x="711" y="1390" type="curve"/>
      <point x="-99" y="-277" type="line"/>
      <point x="-71" y="-302" type="line"/>
      <point x="-41" y="-293"/>
      <point x="31" y="-268"/>
      <point x="56" y="-252" type="curve"/>
    </contour>
  </outline>
</glyph>
<glyph name="zero" format="2">
  <advance width="680"/>
  <unicode hex="0030"/>
  <outline>
    <contour>
      <point x="538" y="932" type="curve" smooth="yes"/>
      <point x="342" y="932"/>
      <point x="235" y="739"/>
      <point x="202" y="667" type="curve" smooth="yes"/>
      <point x="117" y="481"/>
      <point x="114" y="370"/>
      <point x="114" y="254" type="curve" smooth="yes"/>
      <point x="114" y="235"/>
      <point x="118" y="-9"/>
      <point x="338" y="-9" type="curve" smooth="yes"/>
      <point x="537" y="-9"/>
      <point x="644" y="183"/>
      <point x="676" y="256" type="curve" smooth="yes"/>
      <point x="760" y="439"/>
      <point x="764" y="551"/>
      <point x="764" y="667" type="curve" smooth="yes"/>
      <point x="764" y="699"/>
      <point x="756" y="932"/>
    </contour>
    <contour>
      <point x="346" y="27" type="curve" smooth="yes"/>
      <point x="269" y="27"/>
      <point x="231" y="89"/>
      <point x="231" y="214" type="curve" smooth="yes"/>
      <point x="231" y="347"/>
      <point x="309" y="895"/>
      <point x="530" y="895" type="curve" smooth="yes"/>
      <point x="607" y="895"/>
      <point x="645" y="848"/>
      <point x="645" y="753" type="curve" smooth="yes"/>
      <point x="645" y="479"/>
      <point x="547" y="27"/>
    </contour>
  </outline>
</glyph>
<glyph name="one" format="2">
  <advance width="773"/>
  <unicode hex="0031"/>
  <outline>
    <contour>
      <point x="639" y="56" type="line"/>
      <point x="477" y="79"/>
      <point x="442" y="114"/>
      <point x="445" y="137" type="curve" smooth="yes"/>
      <point x="575" y="1086" type="line"/>
      <point x="547" y="1120" type="line"/>
      <point x="467" y="1078"/>
      <point x="259" y="993"/>
      <point x="165" y="967" type="curve"/>
      <point x="177" y="912" type="line"/>
      <point x="324" y="945"/>
      <point x="380" y="940"/>
      <point x="391" y="925" type="curve" smooth="yes"/>
      <point x="402" y="909"/>
      <point x="400" y="884"/>
      <point x="393" y="837" type="curve" smooth="yes"/>
      <point x="298" y="137" type="line" smooth="yes"/>
      <point x="294" y="112"/>
      <point x="240" y="79"/>
      <point x="65" y="56" type="curve"/>
      <point x="58" y="0" type="line"/>
      <point x="630" y="0" type="line"/>
    </contour>
  </outline>
</glyph>
<glyph name="two" format="2">
  <advance width="773"/>
  <unicode hex="0032"/>
  <outline>
    <contour>
      <point x="736" y="909" type="curve"/>
      <point x="736" y="1053"/>
      <point x="629" y="1111"/>
      <point x="505" y="1111" type="curve" smooth="yes"/>
      <point x="325" y="1111"/>
      <point x="149" y="949"/>
      <point x="132" y="825" type="curve"/>
      <point x="152" y="787" type="line"/>
      <point x="202" y="792"/>
      <point x="250" y="813"/>
      <point x="289" y="836" type="curve"/>
      <point x="296" y="920"/>
      <point x="348" y="1020"/>
      <point x="436" y="1020" type="curve" smooth="yes"/>
      <point x="527" y="1020"/>
      <point x="578" y="965"/>
      <point x="578" y="879" type="curve" smooth="yes"/>
      <point x="578" y="728"/>
      <point x="432" y="501"/>
      <point x="-2" y="66" type="curve"/>
      <point x="10" y="0" type="line"/>
      <point x="613" y="0" type="line"/>
      <point x="663" y="278" type="line"/>
      <point x="615" y="291" type="line"/>
      <point x="615" y="291"/>
      <point x="581" y="120"/>
      <point x="508" y="120" type="curve" smooth="yes"/>
      <point x="175" y="120" type="line"/>
      <point x="623" y="576"/>
      <point x="736" y="760"/>
    </contour>
  </outline>
</glyph>
<glyph name="three" format="2">
  <advance width="773"/>
  <unicode hex="0033"/>
  <outline>
    <contour>
      <point x="691" y="900" type="curve"/>
      <point x="691" y="1009"/>
      <point x="625" y="1111"/>
      <point x="464" y="1111" type="curve" smooth="yes"/>
      <point x="297" y="1111"/>
      <point x="139" y="964"/>
      <point x="123" y="864" type="curve"/>
      <point x="143" y="827" type="line"/>
      <point x="192" y="830"/>
      <point x="243" y="848"/>
      <point x="286" y="871" type="curve"/>
      <point x="283" y="954"/>
      <point x="336" y="1020"/>
      <point x="414" y="1020" type="curve" smooth="yes"/>
      <point x="499" y="1020"/>
      <point x="534" y="955"/>
      <point x="534" y="879" type="curve" smooth="yes"/>
      <point x="534" y="725"/>
      <point x="419" y="651"/>
      <point x="274" y="610" type="curve"/>
      <point x="279" y="547" type="line"/>
      <point x="312" y="553"/>
      <point x="308" y="553"/>
      <point x="337" y="553" type="curve" smooth="yes"/>
      <point x="424" y="553"/>
      <point x="508" y="495"/>
      <point x="508" y="360" type="curve" smooth="yes"/>
      <point x="508" y="206"/>
      <point x="418" y="76"/>
      <point x="264" y="76" type="curve" smooth="yes"/>
      <point x="181" y="76"/>
      <point x="123" y="99"/>
      <point x="33" y="180" type="curve"/>
      <point x="-6" y="111" type="line"/>
      <point x="81" y="17"/>
      <point x="176" y="-27"/>
      <point x="261" y="-27" type="curve" smooth="yes"/>
      <point x="503" y="-27"/>
      <point x="669" y="160"/>
      <point x="669" y="385" type="curve" smooth="yes"/>
      <point x="669" y="504"/>
      <point x="598" y="613"/>
      <point x="485" y="628" type="curve"/>
      <point x="601" y="676"/>
      <point x="691" y="770"/>
    </contour>
  </outline>
</glyph>
<glyph name="four" format="2">
  <advance width="773"/>
  <unicode hex="0034"/>
  <outline>
    <contour>
      <point x="715" y="388" type="curve"/>
      <point x="695" y="416" type="line"/>
      <point x="592" y="416" type="line"/>
      <point x="683" y="1086" type="line"/>
      <point x="656" y="1120" type="line"/>
      <point x="618" y="1101"/>
      <point x="563" y="1075"/>
      <point x="511" y="1054" type="curve"/>
      <point x="14" y="342" type="line"/>
      <point x="40" y="310" type="line"/>
      <point x="437" y="310" type="line"/>
      <point x="411" y="112" type="line" smooth="yes"/>
      <point x="408" y="91"/>
      <point x="375" y="73"/>
      <point x="231" y="47" type="curve"/>
      <point x="224" y="0" type="line"/>
      <point x="649" y="0" type="line"/>
      <point x="655" y="47" type="line"/>
      <point x="568" y="70"/>
      <point x="546" y="84"/>
      <point x="550" y="102" type="curve"/>
      <point x="577" y="310" type="line"/>
      <point x="633" y="310" type="line"/>
      <point x="659" y="331"/>
      <point x="685" y="351"/>
    </contour>
    <contour>
      <point x="522" y="918" type="line"/>
      <point x="453" y="415" type="line"/>
      <point x="166" y="415" type="line"/>
    </contour>
  </outline>
</glyph>
<glyph name="five" format="2">
  <advance width="773"/>
  <unicode hex="0035"/>
  <outline>
    <contour>
      <point x="752" y="1072" type="curve"/>
      <point x="729" y="1100" type="line"/>
      <point x="729" y="1100"/>
      <point x="690" y="1083"/>
      <point x="630" y="1083" type="curve" smooth="yes"/>
      <point x="247" y="1083" type="line"/>
      <point x="224" y="956"/>
      <point x="147" y="682"/>
      <point x="108" y="551" type="curve"/>
      <point x="142" y="522" type="line"/>
      <point x="206" y="569"/>
      <point x="270" y="596"/>
      <point x="340" y="596" type="curve" smooth="yes"/>
      <point x="455" y="596"/>
      <point x="524" y="513"/>
      <point x="524" y="395" type="curve" smooth="yes"/>
      <point x="524" y="236"/>
      <point x="444" y="73"/>
      <point x="281" y="73" type="curve" smooth="yes"/>
      <point x="216" y="73"/>
      <point x="149" y="92"/>
      <point x="40" y="177" type="curve"/>
      <point x="0" y="110" type="line"/>
      <point x="84" y="15"/>
      <point x="184" y="-27"/>
      <point x="285" y="-27" type="curve" smooth="yes"/>
      <point x="539" y="-27"/>
      <point x="681" y="214"/>
      <point x="681" y="429" type="curve" smooth="yes"/>
      <point x="681" y="571"/>
      <point x="587" y="706"/>
      <point x="410" y="706" type="curve" smooth="yes"/>
      <point x="351" y="706"/>
      <point x="284" y="695"/>
      <point x="240" y="678" type="curve"/>
      <point x="256" y="731"/>
      <point x="298" y="884"/>
      <point x="312" y="954" type="curve"/>
      <point x="640" y="954" type="line"/>
      <point x="668" y="974"/>
      <point x="723" y="1032"/>
    </contour>
  </outline>
</glyph>
<glyph name="six" format="2">
  <advance width="773"/>
  <unicode hex="0036"/>
  <outline>
    <contour>
      <point x="741" y="1062" type="curve"/>
      <point x="733" y="1124" type="line"/>
      <point x="310" y="1069"/>
      <point x="57" y="711"/>
      <point x="57" y="324" type="curve" smooth="yes"/>
      <point x="57" y="114"/>
      <point x="177" y="-27"/>
      <point x="338" y="-27" type="curve" smooth="yes"/>
      <point x="571" y="-27"/>
      <point x="716" y="239"/>
      <point x="716" y="434" type="curve" smooth="yes"/>
      <point x="716" y="595"/>
      <point x="630" y="697"/>
      <point x="474" y="697" type="curve" smooth="yes"/>
      <point x="393" y="697"/>
      <point x="287" y="651"/>
      <point x="184" y="524" type="curve"/>
      <point x="183" y="429" type="line"/>
      <point x="265" y="539"/>
      <point x="342" y="588"/>
      <point x="418" y="588" type="curve" smooth="yes"/>
      <point x="484" y="588"/>
      <point x="561" y="549"/>
      <point x="561" y="386" type="curve" smooth="yes"/>
      <point x="561" y="270"/>
      <point x="519" y="75"/>
      <point x="383" y="75" type="curve" smooth="yes"/>
      <point x="283" y="75"/>
      <point x="218" y="156"/>
      <point x="218" y="335" type="curve" smooth="yes"/>
      <point x="218" y="666"/>
      <point x="378" y="988"/>
    </contour>
  </outline>
</glyph>
<glyph name="seven" format="2">
  <advance width="773"/>
  <unicode hex="0037"/>
  <outline>
    <contour>
      <point x="810" y="1050" type="curve"/>
      <point x="788" y="1083" type="line"/>
      <point x="187" y="1083" type="line"/>
      <point x="166" y="1030"/>
      <point x="130" y="891"/>
      <point x="115" y="835" type="curve"/>
      <point x="155" y="816" type="line"/>
      <point x="219" y="950"/>
      <point x="251" y="954"/>
      <point x="287" y="954" type="curve" smooth="yes"/>
      <point x="659" y="954" type="line"/>
      <point x="496" y="643"/>
      <point x="327" y="323"/>
      <point x="119" y="4" type="curve"/>
      <point x="151" y="-27" type="line"/>
      <point x="205" y="-12"/>
      <point x="267" y="11"/>
      <point x="309" y="41" type="curve"/>
      <point x="392" y="232"/>
      <point x="606" y="663"/>
    </contour>
  </outline>
</glyph>
<glyph name="eight" format="2">
  <advance width="773"/>
  <unicode hex="0038"/>
  <outline>
    <contour>
      <point x="735" y="900" type="curve"/>
      <point x="735" y="1023"/>
      <point x="657" y="1111"/>
      <point x="496" y="1111" type="curve" smooth="yes"/>
      <point x="313" y="1111"/>
      <point x="148" y="976"/>
      <point x="148" y="800" type="curve" smooth="yes"/>
      <point x="148" y="520"/>
      <point x="539" y="579"/>
      <point x="539" y="307" type="curve" smooth="yes"/>
      <point x="539" y="193"/>
      <point x="472" y="69"/>
      <point x="348" y="69" type="curve" smooth="yes"/>
      <point x="253" y="69"/>
      <point x="189" y="144"/>
      <point x="189" y="246" type="curve" smooth="yes"/>
      <point x="189" y="389"/>
      <point x="262" y="471"/>
      <point x="375" y="552" type="curve"/>
      <point x="311" y="585" type="line"/>
      <point x="171" y="513"/>
      <point x="29" y="392"/>
      <point x="29" y="225" type="curve" smooth="yes"/>
      <point x="29" y="91"/>
      <point x="118" y="-27"/>
      <point x="302" y="-27" type="curve" smooth="yes"/>
      <point x="512" y="-27"/>
      <point x="701" y="153"/>
      <point x="701" y="357" type="curve" smooth="yes"/>
      <point x="701" y="670"/>
      <point x="287" y="643"/>
      <point x="287" y="846" type="curve" smooth="yes"/>
      <point x="287" y="933"/>
      <point x="354" y="1020"/>
      <point x="443" y="1020" type="curve" smooth="yes"/>
      <point x="529" y="1020"/>
      <point x="585" y="970"/>
      <point x="585" y="877" type="curve" smooth="yes"/>
      <point x="585" y="763"/>
      <point x="515" y="693"/>
      <point x="430" y="638" type="curve"/>
      <point x="493" y="599" type="line"/>
      <point x="604" y="666"/>
      <point x="735" y="756"/>
    </contour>
  </outline>
</glyph>
<glyph name="colon" format="2">
  <advance width="481"/>
  <unicode hex="003A"/>
  <outline>
    <contour>
      <point x="475" y="703" type="curve" smooth="yes"/>
      <point x="475" y="765"/>
      <point x="428" y="807"/>
      <point x="369" y="807" type="curve" smooth="yes"/>
      <point x="285" y="807"/>
      <point x="212" y="731"/>
      <point x="212" y="653" type="curve" smooth="yes"/>
      <point x="212" y="593"/>
      <point x="255" y="553"/>
      <point x="315" y="553" type="curve" smooth="yes"/>
      <point x="393" y="553"/>
      <point x="475" y="624"/>
    </contour>
    <contour>
      <point x="353" y="129" type="curve" smooth="yes"/>
      <point x="353" y="191"/>
      <point x="306" y="233"/>
      <point x="247" y="233" type="curve" smooth="yes"/>
      <point x="161" y="233"/>
      <point x="90" y="155"/>
      <point x="90" y="80" type="curve" smooth="yes"/>
      <point x="90" y="20"/>
      <point x="133" y="-20"/>
      <point x="193" y="-20" type="curve" smooth="yes"/>
      <point x="274" y="-20"/>
      <point x="353" y="51"/>
    </contour>
  </outline>
</glyph>
<glyph name="semicolon" format="2">
  <advance width="389"/>
  <unicode hex="003B"/>
  <outline>
    <contour>
      <point x="22" y="-294" type="line"/>
      <point x="148" y="-219"/>
      <point x="294" y="-13"/>
      <point x="294" y="96" type="curve"/>
      <point x="294" y="170"/>
      <point x="276" y="191"/>
      <point x="234" y="215" type="curve"/>
      <point x="190" y="216"/>
      <point x="48" y="153"/>
      <point x="18" y="122" type="curve"/>
      <point x="24" y="72" type="line"/>
      <point x="97" y="82"/>
      <point x="123" y="37"/>
      <point x="123" y="-6" type="curve" smooth="yes"/>
      <point x="123" y="-73"/>
      <point x="77" y="-161"/>
      <point x="-14" y="-258" type="curve"/>
    </contour>
    <contour>
      <point x="219" y="608" type="curve" smooth="yes"/>
      <point x="309" y="608"/>
      <point x="363" y="701"/>
      <point x="363" y="775" type="curve"/>
      <point x="363" y="829"/>
      <point x="331" y="865"/>
      <point x="278" y="865" type="curve" smooth="yes"/>
      <point x="193" y="865"/>
      <point x="132" y="772"/>
      <point x="132" y="701" type="curve" smooth="yes"/>
      <point x="132" y="645"/>
      <point x="162" y="608"/>
    </contour>
  </outline>
</glyph>
<glyph name="greater" format="2">
  <advance width="1080"/>
  <unicode hex="003E"/>
  <outline>
    <contour>
      <point x="68" y="99" type="line"/>
      <point x="44" y="-13" type="line"/>
      <point x="953" y="365" type="line"/>
      <point x="974" y="465" type="line"/>
      <point x="226" y="840" type="line"/>
      <point x="202" y="729" type="line"/>
      <point x="828" y="414" type="line"/>
    </contour>
  </outline>
</glyph>
<glyph name="at" format="2">
  <advance width="1433"/>
  <unicode hex="0040"/>
  <outline>
    <contour>
      <point x="1350" y="494" type="curve"/>
      <point x="1415" y="944"/>
      <point x="1183" y="1199"/>
      <point x="864" y="1199" type="curve" smooth="yes"/>
      <point x="469" y="1199"/>
      <point x="130" y="823"/>
      <point x="73" y="418" type="curve" smooth="yes"/>
      <point x="9" y="-42"/>
      <point x="260" y="-337"/>
      <point x="657" y="-337" type="curve" smooth="yes"/>
      <point x="890" y="-337"/>
      <point x="1078" y="-214"/>
      <point x="1170" y="-123" type="curve"/>
      <point x="1155" y="-73" type="line"/>
      <point x="1080" y="-135"/>
      <point x="895" y="-230"/>
      <point x="715" y="-230" type="curve" smooth="yes"/>
      <point x="390" y="-230"/>
      <point x="145" y="18"/>
      <point x="206" y="453" type="curve" smooth="yes"/>
      <point x="252" y="777"/>
      <point x="483" y="1092"/>
      <point x="816" y="1092" type="curve" smooth="yes"/>
      <point x="1081" y="1092"/>
      <point x="1305" y="864"/>
      <point x="1243" y="459" type="curve" smooth="yes"/>
      <point x="1213" y="254"/>
      <point x="1076" y="84"/>
      <point x="1015" y="84" type="curve" smooth="yes"/>
      <point x="986" y="84"/>
      <point x="960" y="114"/>
      <point x="960" y="251" type="curve" smooth="yes"/>
      <point x="960" y="304"/>
      <point x="986" y="512"/>
      <point x="1023" y="684" type="curve" smooth="yes"/>
      <point x="1039" y="765"/>
      <point x="1050" y="777"/>
      <point x="1090" y="810" type="curve"/>
      <point x="1072" y="842" type="line"/>
      <point x="991" y="803"/>
      <point x="912" y="747"/>
      <point x="900" y="693" type="curve" smooth="yes"/>
      <point x="888" y="622"/>
      <point x="833" y="322"/>
      <point x="833" y="252" type="curve" smooth="yes"/>
      <point x="833" y="12"/>
      <point x="881" y="-36"/>
      <point x="923" y="-36" type="curve" smooth="yes"/>
      <point x="1065" y="-36"/>
      <point x="1308" y="182"/>
    </contour>
    <contour>
      <point x="1044" y="757" type="curve"/>
      <point x="1002" y="763"/>
      <point x="937" y="842"/>
      <point x="856" y="842" type="curve" smooth="yes"/>
      <point x="781" y="842"/>
      <point x="687" y="801"/>
      <point x="622" y="757" type="curve" smooth="yes"/>
      <point x="453" y="641"/>
      <point x="381" y="464"/>
      <point x="381" y="274" type="curve" smooth="yes"/>
      <point x="381" y="49"/>
      <point x="492" y="-36"/>
      <point x="573" y="-36" type="curve" smooth="yes"/>
      <point x="675" y="-36"/>
      <point x="777" y="142"/>
      <point x="837" y="251" type="curve"/>
      <point x="860" y="411" type="line"/>
      <point x="792" y="267"/>
      <point x="693" y="86"/>
      <point x="630" y="86" type="curve" smooth="yes"/>
      <point x="560" y="86"/>
      <point x="504" y="186"/>
      <point x="504" y="341" type="curve" smooth="yes"/>
      <point x="504" y="483"/>
      <point x="601" y="747"/>
      <point x="765" y="747" type="curve" smooth="yes"/>
      <point x="862" y="747"/>
      <point x="927" y="648"/>
      <point x="960" y="648" type="curve" smooth="yes"/>
      <point x="990" y="648"/>
      <point x="993" y="722"/>
    </contour>
  </outline>
</glyph>
<glyph name="A" format="2">
  <advance width="1032"/>
  <unicode hex="0041"/>
  <anchor x="462" y="0" name="H"/>
  <anchor x="626" y="1188" name="U"/>
  <outline>
    <contour>
      <point x="369" y="481" type="line"/>
      <point x="580" y="971" type="line"/>
      <point x="665" y="481" type="line"/>
    </contour>
    <contour>
      <point x="679" y="399" type="line"/>
      <point x="731" y="99" type="line" smooth="yes"/>
      <point x="738" y="61"/>
      <point x="702" y="44"/>
      <point x="617" y="38" type="curve"/>
      <point x="613" y="0" type="line"/>
      <point x="960" y="0" type="line"/>
      <point x="963" y="38" type="line"/>
      <point x="886" y="49"/>
      <point x="870" y="67"/>
      <point x="864" y="99" type="curve" smooth="yes"/>
      <point x="670" y="1185" type="line"/>
      <point x="639" y="1168"/>
      <point x="580" y="1134"/>
      <point x="549" y="1106" type="curve"/>
      <point x="110" y="99" type="line" smooth="yes"/>
      <point x="95" y="64"/>
      <point x="49" y="53"/>
      <point x="-26" y="38" type="curve"/>
      <point x="-31" y="0" type="line"/>
      <point x="309" y="0" type="line"/>
      <point x="315" y="38" type="line"/>
      <point x="223" y="51"/>
      <point x="189" y="63"/>
      <point x="205" y="99" type="curve" smooth="yes"/>
      <point x="333" y="399" type="line"/>
    </contour>
  </outline>
</glyph>
<glyph name="B" format="2">
  <advance width="912"/>
  <unicode hex="0042"/>
  <anchor x="547" y="1188" name="U"/>
  <outline>
    <contour>
      <point x="840" y="369" type="curve"/>
      <point x="840" y="512"/>
      <point x="757" y="622"/>
      <point x="636" y="650" type="curve"/>
      <point x="750" y="696"/>
      <point x="835" y="810"/>
      <point x="835" y="936" type="curve" smooth="yes"/>
      <point x="835" y="1076"/>
      <point x="713" y="1161"/>
      <point x="520" y="1161" type="curve" smooth="yes"/>
      <point x="353" y="1161"/>
      <point x="237" y="1135"/>
      <point x="126" y="1104" type="curve"/>
      <point x="126" y="1048" type="line"/>
      <point x="217" y="1069"/>
      <point x="302" y="1085"/>
      <point x="495" y="1085" type="curve" smooth="yes"/>
      <point x="578" y="1085"/>
      <point x="694" y="1035"/>
      <point x="694" y="888" type="curve" smooth="yes"/>
      <point x="694" y="696"/>
      <point x="538" y="652"/>
      <point x="369" y="652" type="curve" smooth="yes"/>
      <point x="287" y="652" type="line"/>
      <point x="283" y="564" type="line"/>
      <point x="333" y="576"/>
      <point x="394" y="584"/>
      <point x="466" y="584" type="curve" smooth="yes"/>
      <point x="634" y="584"/>
      <point x="700" y="457"/>
      <point x="700" y="337" type="curve" smooth="yes"/>
      <point x="700" y="191"/>
      <point x="595" y="47"/>
      <point x="438" y="47" type="curve" smooth="yes"/>
      <point x="379" y="47"/>
      <point x="297" y="56"/>
      <point x="254" y="88" type="curve"/>
      <point x="59" y="0" type="line"/>
      <point x="151" y="-9"/>
      <point x="341" y="-27"/>
      <point x="414" y="-27" type="curve"/>
      <point x="643" y="-27"/>
      <point x="840" y="135"/>
    </contour>
    <contour>
      <point x="405" y="1134" type="line"/>
      <point x="274" y="1134" type="line"/>
      <point x="132" y="93" type="line" smooth="yes"/>
      <point x="130" y="77"/>
      <point x="81" y="54"/>
      <point x="5" y="38" type="curve"/>
      <point x="0" y="0" type="line"/>
      <point x="369" y="0" type="line"/>
      <point x="374" y="38" type="line"/>
      <point x="298" y="54"/>
      <point x="261" y="79"/>
      <point x="263" y="93" type="curve" smooth="yes"/>
    </contour>
  </outline>
</glyph>
<glyph name="C" format="2">
  <advance width="895"/>
  <unicode hex="0043"/>
  <anchor x="418" y="0" name="H"/>
  <anchor x="617" y="1188" name="U"/>
  <outline>
    <contour>
      <point x="914" y="1071" type="curve" smooth="yes"/>
      <point x="861" y="1120"/>
      <point x="777" y="1161"/>
      <point x="659" y="1161" type="curve" smooth="yes"/>
      <point x="547" y="1161"/>
      <point x="444" y="1118"/>
      <point x="357" y="1050" type="curve" smooth="yes"/>
      <point x="154" y="890"/>
      <point x="68" y="639"/>
      <point x="68" y="413" type="curve" smooth="yes"/>
      <point x="68" y="135"/>
      <point x="230" y="-24"/>
      <point x="411" y="-24" type="curve" smooth="yes"/>
      <point x="523" y="-24"/>
      <point x="645" y="26"/>
      <point x="807" y="189" type="curve"/>
      <point x="802" y="201"/>
      <point x="790" y="222"/>
      <point x="781" y="230" type="curve"/>
      <point x="647" y="123"/>
      <point x="556" y="86"/>
      <point x="488" y="86" type="curve" smooth="yes"/>
      <point x="362" y="86"/>
      <point x="204" y="202"/>
      <point x="204" y="464" type="curve" smooth="yes"/>
      <point x="204" y="615"/>
      <point x="263" y="872"/>
      <point x="414" y="990" type="curve" smooth="yes"/>
      <point x="462" y="1026"/>
      <point x="529" y="1052"/>
      <point x="576" y="1052" type="curve" smooth="yes"/>
      <point x="675" y="1052"/>
      <point x="744" y="1011"/>
      <point x="792" y="958" type="curve"/>
      <point x="819" y="951" type="line"/>
      <point x="851" y="978"/>
      <point x="924" y="1061"/>
    </contour>
  </outline>
</glyph>
<glyph name="D" format="2">
  <advance width="1033"/>
  <unicode hex="0044"/>
  <outline>
    <contour>
      <point x="1000" y="672" type="curve" smooth="yes"/>
      <point x="1000" y="969"/>
      <point x="839" y="1161"/>
      <point x="536" y="1161" type="curve" smooth="yes"/>
      <point x="413" y="1161"/>
      <point x="263" y="1146"/>
      <point x="126" y="1112" type="curve"/>
      <point x="126" y="1047" type="line"/>
      <point x="260" y="1063" type="line"/>
      <point x="128" y="102" type="line" smooth="yes"/>
      <point x="126" y="86"/>
      <point x="79" y="63"/>
      <point x="4" y="47" type="curve"/>
      <point x="-2" y="0" type="line"/>
      <point x="441" y="0" type="line" smooth="yes"/>
      <point x="799" y="0"/>
      <point x="1000" y="355"/>
    </contour>
    <contour>
      <point x="473" y="1078" type="curve" smooth="yes"/>
      <point x="709" y="1078"/>
      <point x="828" y="910"/>
      <point x="828" y="654" type="curve" smooth="yes"/>
      <point x="828" y="401"/>
      <point x="682" y="82"/>
      <point x="423" y="82" type="curve" smooth="yes"/>
      <point x="314" y="82"/>
      <point x="287" y="96"/>
      <point x="291" y="131" type="curve" smooth="yes"/>
      <point x="419" y="1076" type="line"/>
      <point x="437" y="1077"/>
      <point x="455" y="1078"/>
    </contour>
  </outline>
</glyph>
<glyph name="E" format="2">
  <advance width="851"/>
  <unicode hex="0045"/>
  <anchor x="369" y="0" name="H"/>
  <anchor x="531" y="1188" name="U"/>
  <outline>
    <contour>
      <point x="842" y="1111" type="curve"/>
      <point x="819" y="1134" type="line"/>
      <point x="387" y="1134" type="line"/>
      <point x="351" y="1052" type="line"/>
      <point x="694" y="1052" type="line" smooth="yes"/>
      <point x="737" y="1052"/>
      <point x="754" y="1019"/>
      <point x="742" y="909" type="curve"/>
      <point x="781" y="909" type="line"/>
      <point x="801" y="954"/>
      <point x="831" y="1050"/>
    </contour>
    <contour>
      <point x="694" y="636" type="curve"/>
      <point x="676" y="661" type="line"/>
      <point x="307" y="661" type="line"/>
      <point x="279" y="589" type="line"/>
      <point x="392" y="589" type="line" smooth="yes"/>
      <point x="527" y="589"/>
      <point x="567" y="580"/>
      <point x="606" y="540" type="curve"/>
      <point x="631" y="560"/>
      <point x="670" y="603"/>
    </contour>
    <contour>
      <point x="770" y="219" type="curve"/>
      <point x="735" y="235" type="line"/>
      <point x="668" y="95"/>
      <point x="638" y="81"/>
      <point x="538" y="81" type="curve" smooth="yes"/>
      <point x="429" y="81" type="line" smooth="yes"/>
      <point x="285" y="81"/>
      <point x="264" y="102"/>
      <point x="269" y="138" type="curve" smooth="yes"/>
      <point x="394" y="1058" type="line" smooth="yes"/>
      <point x="396" y="1075"/>
      <point x="444" y="1087"/>
      <point x="520" y="1095" type="curve"/>
      <point x="525" y="1134" type="line"/>
      <point x="156" y="1134" type="line"/>
      <point x="151" y="1095" type="line"/>
      <point x="228" y="1078"/>
      <point x="265" y="1053"/>
      <point x="263" y="1039" type="curve" smooth="yes"/>
      <point x="132" y="93" type="line" smooth="yes"/>
      <point x="130" y="77"/>
      <point x="81" y="54"/>
      <point x="5" y="38" type="curve"/>
      <point x="0" y="0" type="line"/>
      <point x="705" y="0" type="line"/>
      <point x="719" y="35"/>
      <point x="746" y="116"/>
    </contour>
  </outline>
</glyph>
<glyph name="F" format="2">
  <advance width="820"/>
  <unicode hex="0046"/>
  <outline>
    <contour>
      <point x="872" y="1109" type="curve"/>
      <point x="849" y="1134" type="line"/>
      <point x="408" y="1134" type="line"/>
      <point x="372" y="1043" type="line"/>
      <point x="715" y="1043" type="line" smooth="yes"/>
      <point x="758" y="1043"/>
      <point x="774" y="1001"/>
      <point x="764" y="891" type="curve"/>
      <point x="810" y="891" type="line"/>
      <point x="830" y="936"/>
      <point x="862" y="1048"/>
    </contour>
    <contour>
      <point x="678" y="634" type="curve"/>
      <point x="655" y="661" type="line"/>
      <point x="322" y="661" type="line"/>
      <point x="267" y="580" type="line"/>
      <point x="421" y="580" type="line" smooth="yes"/>
      <point x="504" y="580"/>
      <point x="551" y="570"/>
      <point x="588" y="531" type="curve"/>
      <point x="613" y="551"/>
      <point x="652" y="598"/>
    </contour>
    <contour>
      <point x="547" y="1134" type="line"/>
      <point x="153" y="1134" type="line"/>
      <point x="147" y="1086" type="line"/>
      <point x="224" y="1069"/>
      <point x="259" y="1044"/>
      <point x="258" y="1030" type="curve" smooth="yes"/>
      <point x="129" y="102" type="line" smooth="yes"/>
      <point x="127" y="86"/>
      <point x="80" y="63"/>
      <point x="4" y="47" type="curve"/>
      <point x="-2" y="0" type="line"/>
      <point x="414" y="0" type="line"/>
      <point x="421" y="47" type="line"/>
      <point x="316" y="70"/>
      <point x="283" y="88"/>
      <point x="285" y="102" type="curve" smooth="yes"/>
      <point x="415" y="1049" type="line" smooth="yes"/>
      <point x="416" y="1065"/>
      <point x="465" y="1078"/>
      <point x="541" y="1086" type="curve"/>
    </contour>
  </outline>
</glyph>
<glyph name="G" format="2">
  <advance width="965"/>
  <unicode hex="0047"/>
  <anchor x="468" y="0" name="H"/>
  <anchor x="648" y="1188" name="U"/>
  <outline>
    <contour>
      <point x="956" y="523" type="line"/>
      <point x="541" y="523" type="line"/>
      <point x="536" y="485" type="line"/>
      <point x="717" y="457"/>
      <point x="735" y="436"/>
      <point x="731" y="411" type="curve" smooth="yes"/>
      <point x="695" y="140" type="line"/>
      <point x="653" y="109"/>
      <point x="586" y="88"/>
      <point x="522" y="88" type="curve" smooth="yes"/>
      <point x="374" y="88"/>
      <point x="202" y="207"/>
      <point x="202" y="464" type="curve" smooth="yes"/>
      <point x="202" y="631"/>
      <point x="279" y="870"/>
      <point x="401" y="967" type="curve" smooth="yes"/>
      <point x="466" y="1019"/>
      <point x="536" y="1053"/>
      <point x="582" y="1053" type="curve" smooth="yes"/>
      <point x="691" y="1053"/>
      <point x="765" y="1032"/>
      <point x="828" y="956" type="curve"/>
      <point x="853" y="951" type="line"/>
      <point x="886" y="978"/>
      <point x="963" y="1056"/>
      <point x="949" y="1069" type="curve"/>
      <point x="888" y="1127"/>
      <point x="784" y="1161"/>
      <point x="713" y="1161" type="curve" smooth="yes"/>
      <point x="571" y="1161"/>
      <point x="443" y="1108"/>
      <point x="342" y="1028" type="curve" smooth="yes"/>
      <point x="180" y="900"/>
      <point x="68" y="654"/>
      <point x="68" y="425" type="curve" smooth="yes"/>
      <point x="68" y="136"/>
      <point x="252" y="-27"/>
      <point x="451" y="-27" type="curve" smooth="yes"/>
      <point x="549" y="-27"/>
      <point x="636" y="-7"/>
      <point x="818" y="138" type="curve"/>
      <point x="823" y="184"/>
      <point x="846" y="347"/>
      <point x="855" y="411" type="curve" smooth="yes"/>
      <point x="858" y="438"/>
      <point x="886" y="466"/>
      <point x="951" y="485" type="curve"/>
    </contour>
  </outline>
</glyph>
<glyph name="H" format="2">
  <advance width="1111"/>
  <unicode hex="0048"/>
  <anchor x="194" y="0" name="H"/>
  <anchor x="663" y="1188" name="U"/>
  <outline>
    <contour>
      <point x="1157" y="1134" type="line"/>
      <point x="786" y="1134" type="line"/>
      <point x="783" y="1095" type="line"/>
      <point x="858" y="1078"/>
      <point x="895" y="1053"/>
      <point x="893" y="1039" type="curve" smooth="yes"/>
      <point x="763" y="93" type="line" smooth="yes"/>
      <point x="761" y="77"/>
      <point x="713" y="54"/>
      <point x="638" y="38" type="curve"/>
      <point x="631" y="0" type="line"/>
      <point x="1000" y="0" type="line"/>
      <point x="1006" y="38" type="line"/>
      <point x="928" y="54"/>
      <point x="891" y="79"/>
      <point x="893" y="93" type="curve" smooth="yes"/>
      <point x="1025" y="1039" type="line" smooth="yes"/>
      <point x="1026" y="1056"/>
      <point x="1076" y="1078"/>
      <point x="1152" y="1095" type="curve"/>
    </contour>
    <contour>
      <point x="853" y="634" type="line"/>
      <point x="313" y="634" type="line"/>
      <point x="300" y="552" type="line"/>
      <point x="842" y="552" type="line"/>
    </contour>
    <contour>
      <point x="525" y="1134" type="line"/>
      <point x="156" y="1134" type="line"/>
      <point x="151" y="1095" type="line"/>
      <point x="228" y="1078"/>
      <point x="265" y="1053"/>
      <point x="263" y="1039" type="curve" smooth="yes"/>
      <point x="132" y="93" type="line" smooth="yes"/>
      <point x="130" y="77"/>
      <point x="81" y="54"/>
      <point x="5" y="38" type="curve"/>
      <point x="0" y="0" type="line"/>
      <point x="369" y="0" type="line"/>
      <point x="374" y="38" type="line"/>
      <point x="298" y="54"/>
      <point x="260" y="79"/>
      <point x="263" y="93" type="curve"/>
      <point x="392" y="1039" type="line"/>
      <point x="396" y="1056"/>
      <point x="444" y="1078"/>
      <point x="520" y="1095" type="curve"/>
    </contour>
  </outline>
</glyph>
<glyph name="I" format="2">
  <advance width="515"/>
  <unicode hex="0049"/>
  <anchor x="202" y="0" name="H"/>
  <anchor x="365" y="1188" name="U"/>
  <outline>
    <contour>
      <point x="543" y="1134" type="line"/>
      <point x="175" y="1134" type="line"/>
      <point x="169" y="1095" type="line"/>
      <point x="244" y="1078"/>
      <point x="281" y="1053"/>
      <point x="279" y="1039" type="curve" smooth="yes"/>
      <point x="151" y="93" type="line" smooth="yes"/>
      <point x="148" y="76"/>
      <point x="99" y="54"/>
      <point x="24" y="38" type="curve"/>
      <point x="18" y="0" type="line"/>
      <point x="387" y="0" type="line"/>
      <point x="392" y="38" type="line"/>
      <point x="315" y="54"/>
      <point x="278" y="79"/>
      <point x="279" y="93" type="curve" smooth="yes"/>
      <point x="411" y="1039" type="line" smooth="yes"/>
      <point x="414" y="1056"/>
      <point x="462" y="1078"/>
      <point x="538" y="1095" type="curve"/>
    </contour>
  </outline>
</glyph>
<glyph name="J" format="2">
  <advance width="520"/>
  <unicode hex="004A"/>
  <anchor x="387" y="1188" name="U"/>
  <outline>
    <contour>
      <point x="566" y="1134" type="line"/>
      <point x="154" y="1134" type="line"/>
      <point x="151" y="1095" type="line"/>
      <point x="279" y="1074"/>
      <point x="306" y="1053"/>
      <point x="304" y="1039" type="curve" smooth="yes"/>
      <point x="177" y="119" type="line" smooth="yes"/>
      <point x="138" y="-162"/>
      <point x="47" y="-232"/>
      <point x="-9" y="-232" type="curve" smooth="yes"/>
      <point x="-82" y="-232"/>
      <point x="-105" y="-180"/>
      <point x="-128" y="-180" type="curve" smooth="yes"/>
      <point x="-158" y="-180"/>
      <point x="-237" y="-246"/>
      <point x="-237" y="-270" type="curve" smooth="yes"/>
      <point x="-237" y="-291"/>
      <point x="-179" y="-342"/>
      <point x="-112" y="-342" type="curve" smooth="yes"/>
      <point x="-70" y="-342"/>
      <point x="25" y="-310"/>
      <point x="90" y="-260" type="curve" smooth="yes"/>
      <point x="188" y="-183"/>
      <point x="275" y="-99"/>
      <point x="315" y="184" type="curve" smooth="yes"/>
      <point x="432" y="1039" type="line" smooth="yes"/>
      <point x="435" y="1056"/>
      <point x="485" y="1078"/>
      <point x="560" y="1095" type="curve"/>
    </contour>
  </outline>
</glyph>
<glyph name="K" format="2">
  <advance width="991"/>
  <unicode hex="004B"/>
  <anchor x="180" y="0" name="H"/>
  <anchor x="639" y="1188" name="U"/>
  <outline>
    <contour>
      <point x="1044" y="1134" type="line"/>
      <point x="700" y="1134" type="line"/>
      <point x="694" y="1095" type="line"/>
      <point x="777" y="1087"/>
      <point x="803" y="1078"/>
      <point x="742" y="1015" type="curve"/>
      <point x="325" y="578" type="line"/>
      <point x="430" y="578" type="line"/>
      <point x="891" y="1039" type="line" smooth="yes"/>
      <point x="930" y="1078"/>
      <point x="965" y="1085"/>
      <point x="1039" y="1095" type="curve"/>
    </contour>
    <contour>
      <point x="969" y="99" type="curve"/>
      <point x="953" y="132" type="line"/>
      <point x="840" y="86"/>
      <point x="803" y="90"/>
      <point x="770" y="140" type="curve"/>
      <point x="424" y="648" type="line"/>
      <point x="325" y="578" type="line"/>
      <point x="657" y="45" type="line" smooth="yes"/>
      <point x="687" y="-1"/>
      <point x="707" y="-12"/>
      <point x="744" y="-12" type="curve" smooth="yes"/>
      <point x="791" y="-12"/>
      <point x="877" y="29"/>
    </contour>
    <contour>
      <point x="525" y="1134" type="line"/>
      <point x="156" y="1134" type="line"/>
      <point x="151" y="1095" type="line"/>
      <point x="228" y="1078"/>
      <point x="265" y="1053"/>
      <point x="263" y="1039" type="curve" smooth="yes"/>
      <point x="132" y="93" type="line" smooth="yes"/>
      <point x="130" y="77"/>
      <point x="81" y="54"/>
      <point x="5" y="38" type="curve"/>
      <point x="0" y="0" type="line"/>
      <point x="369" y="0" type="line"/>
      <point x="374" y="38" type="line"/>
      <point x="298" y="54"/>
      <point x="260" y="79"/>
      <point x="263" y="93" type="curve"/>
      <point x="392" y="1039" type="line"/>
      <point x="396" y="1056"/>
      <point x="444" y="1078"/>
      <point x="520" y="1095" type="curve"/>
    </contour>
  </outline>
</glyph>
<glyph name="L" format="2">
  <advance width="826"/>
  <unicode hex="004C"/>
  <anchor x="373" y="0" name="H"/>
  <anchor x="501" y="1188" name="U"/>
  <outline>
    <contour>
      <point x="763" y="219" type="curve"/>
      <point x="728" y="235" type="line"/>
      <point x="661" y="95"/>
      <point x="630" y="81"/>
      <point x="529" y="81" type="curve" smooth="yes"/>
      <point x="414" y="81" type="line" smooth="yes"/>
      <point x="295" y="81"/>
      <point x="263" y="95"/>
      <point x="269" y="138" type="curve" smooth="yes"/>
      <point x="392" y="1039" type="line"/>
      <point x="396" y="1056"/>
      <point x="444" y="1078"/>
      <point x="520" y="1095" type="curve"/>
      <point x="525" y="1134" type="line"/>
      <point x="156" y="1134" type="line"/>
      <point x="151" y="1095" type="line"/>
      <point x="228" y="1078"/>
      <point x="265" y="1053"/>
      <point x="263" y="1039" type="curve" smooth="yes"/>
      <point x="132" y="93" type="line" smooth="yes"/>
      <point x="130" y="77"/>
      <point x="81" y="54"/>
      <point x="5" y="38" type="curve"/>
      <point x="0" y="0" type="line"/>
      <point x="696" y="0" type="line"/>
      <point x="711" y="35"/>
      <point x="738" y="116"/>
    </contour>
  </outline>
</glyph>
<glyph name="M" format="2">
  <advance width="1359"/>
  <unicode hex="004D"/>
  <anchor x="1075" y="0" name="H"/>
  <anchor x="794" y="1188" name="U"/>
  <outline>
    <contour>
      <point x="1266" y="38" type="line"/>
      <point x="1188" y="54"/>
      <point x="1148" y="79"/>
      <point x="1150" y="93" type="curve" smooth="yes"/>
      <point x="1262" y="1092" type="line"/>
      <point x="1135" y="1041" type="line"/>
      <point x="1028" y="93" type="line" smooth="yes"/>
      <point x="1026" y="77"/>
      <point x="972" y="54"/>
      <point x="897" y="38" type="curve"/>
      <point x="891" y="0" type="line"/>
      <point x="1260" y="0" type="line"/>
    </contour>
    <contour>
      <point x="1382" y="1134" type="line"/>
      <point x="1148" y="1134" type="line" smooth="yes"/>
      <point x="1127" y="1134"/>
      <point x="1118" y="1122"/>
      <point x="1085" y="1058" type="curve" smooth="yes"/>
      <point x="663" y="235" type="line" smooth="yes"/>
      <point x="643" y="197"/>
      <point x="631" y="151"/>
      <point x="638" y="0" type="curve"/>
      <point x="639" y="0" type="line"/>
      <point x="1127" y="956" type="line" smooth="yes"/>
      <point x="1163" y="1027"/>
      <point x="1305" y="1095"/>
      <point x="1378" y="1095" type="curve"/>
    </contour>
    <contour>
      <point x="676" y="237" type="curve"/>
      <point x="448" y="1058" type="line"/>
      <point x="431" y="1122"/>
      <point x="427" y="1134"/>
      <point x="407" y="1134" type="curve" smooth="yes"/>
      <point x="169" y="1134" type="line"/>
      <point x="163" y="1095" type="line"/>
      <point x="223" y="1095"/>
      <point x="321" y="1063"/>
      <point x="350" y="954" type="curve" smooth="yes"/>
      <point x="603" y="0" type="line"/>
      <point x="638" y="0" type="line"/>
      <point x="684" y="151"/>
      <point x="686" y="200"/>
    </contour>
    <contour>
      <point x="376" y="1098" type="line"/>
      <point x="278" y="1076" type="line"/>
      <point x="135" y="93" type="line" smooth="yes"/>
      <point x="132" y="77"/>
      <point x="86" y="54"/>
      <point x="9" y="38" type="curve"/>
      <point x="3" y="0" type="line"/>
      <point x="335" y="0" type="line"/>
      <point x="341" y="38" type="line"/>
      <point x="263" y="54"/>
      <point x="228" y="79"/>
      <point x="230" y="93" type="curve" smooth="yes"/>
    </contour>
  </outline>
</glyph>
<glyph name="N" format="2">
  <advance width="1115"/>
  <unicode hex="004E"/>
  <anchor x="846" y="0" name="H"/>
  <anchor x="663" y="1188" name="U"/>
  <outline>
    <contour>
      <point x="1164" y="1134" type="line"/>
      <point x="837" y="1134" type="line"/>
      <point x="831" y="1095" type="line"/>
      <point x="916" y="1081"/>
      <point x="944" y="1053"/>
      <point x="942" y="1039" type="curve" smooth="yes"/>
      <point x="831" y="232" type="line"/>
      <point x="396" y="1063" type="line" smooth="yes"/>
      <point x="360" y="1131"/>
      <point x="359" y="1134"/>
      <point x="307" y="1134" type="curve" smooth="yes"/>
      <point x="147" y="1134" type="line"/>
      <point x="142" y="1095" type="line"/>
      <point x="193" y="1086"/>
      <point x="229" y="1074"/>
      <point x="260" y="1038" type="curve"/>
      <point x="128" y="93" type="line" smooth="yes"/>
      <point x="126" y="77"/>
      <point x="86" y="49"/>
      <point x="5" y="38" type="curve"/>
      <point x="0" y="0" type="line"/>
      <point x="328" y="0" type="line"/>
      <point x="333" y="38" type="line"/>
      <point x="252" y="51"/>
      <point x="223" y="78"/>
      <point x="225" y="93" type="curve" smooth="yes"/>
      <point x="335" y="903" type="line"/>
      <point x="783" y="40" type="line" smooth="yes"/>
      <point x="810" y="-12"/>
      <point x="838" y="-20"/>
      <point x="890" y="-27" type="curve"/>
      <point x="1037" y="1039" type="line" smooth="yes"/>
      <point x="1040" y="1061"/>
      <point x="1080" y="1083"/>
      <point x="1159" y="1095" type="curve"/>
    </contour>
  </outline>
</glyph>
<glyph name="O" format="2">
  <advance width="1004"/>
  <unicode hex="004F"/>
  <anchor x="450" y="0" name="H"/>
  <anchor x="630" y="1188" name="U"/>
  <outline>
    <contour>
      <point x="976" y="696" type="curve"/>
      <point x="976" y="949"/>
      <point x="870" y="1161"/>
      <point x="634" y="1161" type="curve" smooth="yes"/>
      <point x="464" y="1161"/>
      <point x="333" y="1050"/>
      <point x="232" y="916" type="curve" smooth="yes"/>
      <point x="135" y="786"/>
      <point x="81" y="587"/>
      <point x="81" y="436" type="curve" smooth="yes"/>
      <point x="81" y="184"/>
      <point x="193" y="-27"/>
      <point x="423" y="-27" type="curve" smooth="yes"/>
      <point x="584" y="-27"/>
      <point x="709" y="73"/>
      <point x="810" y="202" type="curve" smooth="yes"/>
      <point x="918" y="339"/>
      <point x="976" y="527"/>
    </contour>
    <contour>
      <point x="842" y="680" type="curve"/>
      <point x="842" y="451"/>
      <point x="742" y="90"/>
      <point x="464" y="90" type="curve" smooth="yes"/>
      <point x="316" y="90"/>
      <point x="217" y="254"/>
      <point x="217" y="478" type="curve" smooth="yes"/>
      <point x="217" y="705"/>
      <point x="322" y="1048"/>
      <point x="595" y="1048" type="curve" smooth="yes"/>
      <point x="754" y="1048"/>
      <point x="842" y="882"/>
    </contour>
  </outline>
</glyph>
<glyph name="P" format="2">
  <advance width="868"/>
  <unicode hex="0050"/>
  <anchor x="532" y="1188" name="U"/>
  <outline>
    <contour>
      <point x="877" y="847" type="curve"/>
      <point x="877" y="1053"/>
      <point x="733" y="1161"/>
      <point x="503" y="1161" type="curve" smooth="yes"/>
      <point x="339" y="1161"/>
      <point x="226" y="1139"/>
      <point x="126" y="1102" type="curve"/>
      <point x="126" y="1048" type="line"/>
      <point x="252" y="1080"/>
      <point x="333" y="1085"/>
      <point x="446" y="1085" type="curve" smooth="yes"/>
      <point x="608" y="1085"/>
      <point x="747" y="1015"/>
      <point x="747" y="814" type="curve" smooth="yes"/>
      <point x="747" y="657"/>
      <point x="638" y="549"/>
      <point x="478" y="549" type="curve" smooth="yes"/>
      <point x="440" y="549"/>
      <point x="399" y="562"/>
      <point x="359" y="578" type="curve"/>
      <point x="369" y="512" type="line"/>
      <point x="401" y="494"/>
      <point x="451" y="481"/>
      <point x="497" y="481" type="curve" smooth="yes"/>
      <point x="707" y="481"/>
      <point x="877" y="643"/>
    </contour>
    <contour>
      <point x="405" y="1134" type="line"/>
      <point x="274" y="1134" type="line"/>
      <point x="132" y="93" type="line" smooth="yes"/>
      <point x="130" y="77"/>
      <point x="81" y="54"/>
      <point x="5" y="38" type="curve"/>
      <point x="0" y="0" type="line"/>
      <point x="394" y="0" type="line"/>
      <point x="399" y="38" type="line"/>
      <point x="287" y="59"/>
      <point x="261" y="79"/>
      <point x="263" y="93" type="curve" smooth="yes"/>
    </contour>
  </outline>
</glyph>
<glyph name="Q" format="2">
  <advance width="1021"/>
  <unicode hex="0051"/>
  <anchor x="612" y="1188" name="U"/>
  <outline>
    <contour>
      <point x="976" y="696" type="curve"/>
      <point x="976" y="949"/>
      <point x="870" y="1161"/>
      <point x="634" y="1161" type="curve" smooth="yes"/>
      <point x="464" y="1161"/>
      <point x="332" y="1050"/>
      <point x="232" y="916" type="curve" smooth="yes"/>
      <point x="136" y="784"/>
      <point x="81" y="587"/>
      <point x="81" y="436" type="curve" smooth="yes"/>
      <point x="81" y="184"/>
      <point x="193" y="-27"/>
      <point x="423" y="-27" type="curve" smooth="yes"/>
      <point x="584" y="-27"/>
      <point x="709" y="73"/>
      <point x="810" y="202" type="curve" smooth="yes"/>
      <point x="919" y="339"/>
      <point x="976" y="527"/>
    </contour>
    <contour>
      <point x="993" y="-105" type="curve"/>
      <point x="974" y="-73" type="line"/>
      <point x="900" y="-126"/>
      <point x="872" y="-144"/>
      <point x="844" y="-144" type="curve" smooth="yes"/>
      <point x="742" y="-144"/>
      <point x="636" y="7"/>
      <point x="513" y="44" type="curve" smooth="yes"/>
      <point x="488" y="53"/>
      <point x="367" y="18"/>
      <point x="367" y="18" type="curve"/>
      <point x="531" y="-14"/>
      <point x="652" y="-267"/>
      <point x="819" y="-267" type="curve" smooth="yes"/>
      <point x="855" y="-267"/>
      <point x="925" y="-209"/>
    </contour>
    <contour>
      <point x="842" y="680" type="curve"/>
      <point x="842" y="451"/>
      <point x="742" y="90"/>
      <point x="464" y="90" type="curve" smooth="yes"/>
      <point x="316" y="90"/>
      <point x="217" y="254"/>
      <point x="217" y="478" type="curve" smooth="yes"/>
      <point x="217" y="705"/>
      <point x="322" y="1048"/>
      <point x="595" y="1048" type="curve" smooth="yes"/>
      <point x="754" y="1048"/>
      <point x="842" y="882"/>
    </contour>
  </outline>
</glyph>
<glyph name="R" format="2">
  <advance width="989"/>
  <unicode hex="0052"/>
  <anchor x="191" y="0" name="H"/>
  <anchor x="565" y="1188" name="U"/>
  <outline>
    <contour>
      <point x="884" y="873" type="curve" smooth="yes"/>
      <point x="884" y="1060"/>
      <point x="743" y="1161"/>
      <point x="518" y="1161" type="curve" smooth="yes"/>
      <point x="355" y="1161"/>
      <point x="233" y="1135"/>
      <point x="124" y="1104" type="curve"/>
      <point x="124" y="1040" type="line"/>
      <point x="233" y="1065"/>
      <point x="355" y="1078"/>
      <point x="477" y="1078" type="curve" smooth="yes"/>
      <point x="587" y="1078"/>
      <point x="726" y="1025"/>
      <point x="726" y="847" type="curve" smooth="yes"/>
      <point x="726" y="686"/>
      <point x="597" y="604"/>
      <point x="454" y="604" type="curve" smooth="yes"/>
      <point x="417" y="604"/>
      <point x="381" y="610"/>
      <point x="344" y="622" type="curve"/>
      <point x="334" y="544" type="line"/>
      <point x="373" y="533"/>
      <point x="434" y="526"/>
      <point x="477" y="526" type="curve" smooth="yes"/>
      <point x="767" y="526"/>
      <point x="884" y="755"/>
    </contour>
    <contour>
      <point x="994" y="100" type="curve"/>
      <point x="975" y="143" type="line"/>
      <point x="861" y="102"/>
      <point x="833" y="102"/>
      <point x="792" y="174" type="curve" smooth="yes"/>
      <point x="569" y="569" type="line"/>
      <point x="441" y="550" type="line"/>
      <point x="640" y="105" type="line" smooth="yes"/>
      <point x="685" y="6"/>
      <point x="718" y="-12"/>
      <point x="759" y="-12" type="curve" smooth="yes"/>
      <point x="792" y="-12"/>
      <point x="900" y="37"/>
    </contour>
    <contour>
      <point x="427" y="1127" type="line"/>
      <point x="268" y="1127" type="line"/>
      <point x="128" y="102" type="line" smooth="yes"/>
      <point x="127" y="86"/>
      <point x="79" y="63"/>
      <point x="4" y="47" type="curve"/>
      <point x="-2" y="0" type="line"/>
      <point x="391" y="0" type="line"/>
      <point x="398" y="47" type="line"/>
      <point x="322" y="63"/>
      <point x="283" y="88"/>
      <point x="287" y="102" type="curve"/>
    </contour>
  </outline>
</glyph>
<glyph name="S" format="2">
  <advance width="809"/>
  <unicode hex="0053"/>
  <anchor x="354" y="0" name="H"/>
  <anchor x="516" y="1188" name="U"/>
  <outline>
    <contour>
      <point x="784" y="1078" type="curve" smooth="yes"/>
      <point x="729" y="1124"/>
      <point x="652" y="1161"/>
      <point x="566" y="1161" type="curve" smooth="yes"/>
      <point x="333" y="1161"/>
      <point x="182" y="993"/>
      <point x="182" y="835" type="curve" smooth="yes"/>
      <point x="182" y="747"/>
      <point x="223" y="652"/>
      <point x="381" y="576" type="curve" smooth="yes"/>
      <point x="564" y="489"/>
      <point x="615" y="422"/>
      <point x="615" y="324" type="curve" smooth="yes"/>
      <point x="615" y="189"/>
      <point x="501" y="86"/>
      <point x="355" y="86" type="curve" smooth="yes"/>
      <point x="214" y="86"/>
      <point x="167" y="228"/>
      <point x="138" y="228" type="curve" smooth="yes"/>
      <point x="107" y="228"/>
      <point x="42" y="132"/>
      <point x="42" y="103" type="curve" smooth="yes"/>
      <point x="42" y="40"/>
      <point x="204" y="-27"/>
      <point x="295" y="-27" type="curve" smooth="yes"/>
      <point x="532" y="-27"/>
      <point x="733" y="171"/>
      <point x="733" y="396" type="curve" smooth="yes"/>
      <point x="733" y="531"/>
      <point x="665" y="603"/>
      <point x="475" y="702" type="curve" smooth="yes"/>
      <point x="315" y="784"/>
      <point x="289" y="842"/>
      <point x="289" y="895" type="curve" smooth="yes"/>
      <point x="289" y="974"/>
      <point x="362" y="1067"/>
      <point x="492" y="1067" type="curve" smooth="yes"/>
      <point x="564" y="1067"/>
      <point x="626" y="1015"/>
      <point x="666" y="958" type="curve"/>
      <point x="693" y="953" type="line"/>
      <point x="719" y="967"/>
      <point x="799" y="1066"/>
    </contour>
  </outline>
</glyph>
<glyph name="T" format="2">
  <advance width="960"/>
  <unicode hex="0054"/>
  <anchor x="414" y="0" name="H"/>
  <anchor x="576" y="1188" name="U"/>
  <outline>
    <contour>
      <point x="1006" y="1111" type="curve"/>
      <point x="986" y="1134" type="line"/>
      <point x="614" y="1134" type="line"/>
      <point x="597" y="1052" type="line"/>
      <point x="855" y="1052" type="line" smooth="yes"/>
      <point x="903" y="1052"/>
      <point x="912" y="1019"/>
      <point x="918" y="899" type="curve"/>
      <point x="954" y="899" type="line"/>
      <point x="974" y="958"/>
      <point x="997" y="1053"/>
    </contour>
    <contour>
      <point x="520" y="1052" type="line"/>
      <point x="524" y="1134" type="line"/>
      <point x="156" y="1134" type="line"/>
      <point x="135" y="1074"/>
      <point x="108" y="974"/>
      <point x="101" y="912" type="curve"/>
      <point x="135" y="895" type="line"/>
      <point x="200" y="1035"/>
      <point x="219" y="1052"/>
      <point x="251" y="1052" type="curve" smooth="yes"/>
    </contour>
    <contour>
      <point x="621" y="38" type="line"/>
      <point x="523" y="61"/>
      <point x="492" y="88"/>
      <point x="494" y="103" type="curve" smooth="yes"/>
      <point x="624" y="1058" type="line" smooth="yes"/>
      <point x="626" y="1074"/>
      <point x="675" y="1087"/>
      <point x="750" y="1095" type="curve"/>
      <point x="756" y="1134" type="line"/>
      <point x="387" y="1134" type="line"/>
      <point x="381" y="1095" type="line"/>
      <point x="459" y="1087"/>
      <point x="497" y="1072"/>
      <point x="495" y="1058" type="curve" smooth="yes"/>
      <point x="362" y="103" type="line" smooth="yes"/>
      <point x="360" y="85"/>
      <point x="322" y="61"/>
      <point x="219" y="38" type="curve"/>
      <point x="214" y="0" type="line"/>
      <point x="615" y="0" type="line"/>
    </contour>
  </outline>
</glyph>
<glyph name="U" format="2">
  <advance width="1104"/>
  <unicode hex="0055"/>
  <anchor x="522" y="0" name="H"/>
  <anchor x="681" y="1188" name="U"/>
  <outline>
    <contour>
      <point x="1157" y="1134" type="line"/>
      <point x="819" y="1134" type="line"/>
      <point x="814" y="1095" type="line"/>
      <point x="891" y="1078"/>
      <point x="923" y="1053"/>
      <point x="921" y="1039" type="curve" smooth="yes"/>
      <point x="838" y="422" type="line" smooth="yes"/>
      <point x="814" y="243"/>
      <point x="703" y="77"/>
      <point x="547" y="77" type="curve" smooth="yes"/>
      <point x="390" y="77"/>
      <point x="307" y="189"/>
      <point x="307" y="357" type="curve" smooth="yes"/>
      <point x="307" y="388"/>
      <point x="308" y="423"/>
      <point x="313" y="459" type="curve" smooth="yes"/>
      <point x="392" y="1039" type="line" smooth="yes"/>
      <point x="395" y="1056"/>
      <point x="444" y="1078"/>
      <point x="520" y="1095" type="curve"/>
      <point x="525" y="1134" type="line"/>
      <point x="156" y="1134" type="line"/>
      <point x="151" y="1095" type="line"/>
      <point x="228" y="1078"/>
      <point x="265" y="1053"/>
      <point x="263" y="1039" type="curve" smooth="yes"/>
      <point x="175" y="416" type="line" smooth="yes"/>
      <point x="170" y="379"/>
      <point x="167" y="344"/>
      <point x="167" y="313" type="curve" smooth="yes"/>
      <point x="167" y="93"/>
      <point x="304" y="-27"/>
      <point x="501" y="-27" type="curve" smooth="yes"/>
      <point x="738" y="-27"/>
      <point x="905" y="145"/>
      <point x="949" y="460" type="curve" smooth="yes"/>
      <point x="1030" y="1039" type="line" smooth="yes"/>
      <point x="1033" y="1056"/>
      <point x="1076" y="1078"/>
      <point x="1152" y="1095" type="curve"/>
    </contour>
  </outline>
</glyph>
<glyph name="V" format="2">
  <advance width="1092"/>
  <unicode hex="0056"/>
  <anchor x="501" y="0" name="H"/>
  <anchor x="659" y="1188" name="U"/>
  <outline>
    <contour>
      <point x="1174" y="1134" type="line"/>
      <point x="833" y="1134" type="line"/>
      <point x="828" y="1095" type="line"/>
      <point x="914" y="1083"/>
      <point x="954" y="1071"/>
      <point x="937" y="1035" type="curve" smooth="yes"/>
      <point x="541" y="175" type="line"/>
      <point x="370" y="1035" type="line" smooth="yes"/>
      <point x="362" y="1072"/>
      <point x="397" y="1089"/>
      <point x="483" y="1095" type="curve"/>
      <point x="488" y="1134" type="line"/>
      <point x="130" y="1134" type="line"/>
      <point x="125" y="1095" type="line"/>
      <point x="195" y="1085"/>
      <point x="225" y="1067"/>
      <point x="230" y="1035" type="curve" smooth="yes"/>
      <point x="446" y="-27" type="line"/>
      <point x="475" y="-20"/>
      <point x="558" y="0"/>
      <point x="582" y="53" type="curve" smooth="yes"/>
      <point x="1032" y="1035" type="line"/>
      <point x="1048" y="1069"/>
      <point x="1092" y="1080"/>
      <point x="1168" y="1095" type="curve"/>
    </contour>
  </outline>
</glyph>
<glyph name="W" format="2">
  <advance width="1413"/>
  <unicode hex="0057"/>
  <anchor x="819" y="1188" name="U"/>
  <outline>
    <contour>
      <point x="1502" y="1134" type="line"/>
      <point x="1155" y="1134" type="line"/>
      <point x="1150" y="1095" type="line"/>
      <point x="1224" y="1081"/>
      <point x="1277" y="1067"/>
      <point x="1268" y="1039" type="curve" smooth="yes"/>
      <point x="1004" y="228" type="line"/>
      <point x="842" y="1134" type="line"/>
      <point x="792" y="1134" type="line"/>
      <point x="399" y="228" type="line"/>
      <point x="346" y="1032" type="line" smooth="yes"/>
      <point x="344" y="1058"/>
      <point x="362" y="1083"/>
      <point x="468" y="1095" type="curve"/>
      <point x="473" y="1134" type="line"/>
      <point x="121" y="1134" type="line"/>
      <point x="116" y="1095" type="line"/>
      <point x="193" y="1080"/>
      <point x="219" y="1062"/>
      <point x="221" y="1032" type="curve" smooth="yes"/>
      <point x="287" y="-27" type="line"/>
      <point x="316" y="-21"/>
      <point x="396" y="-1"/>
      <point x="420" y="53" type="curve" smooth="yes"/>
      <point x="765" y="851" type="line"/>
      <point x="914" y="-27" type="line"/>
      <point x="944" y="-20"/>
      <point x="1020" y="0"/>
      <point x="1037" y="53" type="curve" smooth="yes"/>
      <point x="1361" y="1039" type="line" smooth="yes"/>
      <point x="1369" y="1063"/>
      <point x="1404" y="1073"/>
      <point x="1498" y="1095" type="curve"/>
    </contour>
  </outline>
</glyph>
<glyph name="X" format="2">
  <advance width="1053"/>
  <unicode hex="0058"/>
  <anchor x="641" y="1188" name="U"/>
  <outline>
    <contour>
      <point x="1081" y="1134" type="line"/>
      <point x="711" y="1134" type="line"/>
      <point x="705" y="1095" type="line"/>
      <point x="801" y="1087"/>
      <point x="844" y="1074"/>
      <point x="805" y="1019" type="curve" smooth="yes"/>
      <point x="567" y="679" type="line"/>
      <point x="603" y="576" type="line"/>
      <point x="916" y="1019" type="line" smooth="yes"/>
      <point x="953" y="1071"/>
      <point x="997" y="1085"/>
      <point x="1076" y="1095" type="curve"/>
    </contour>
    <contour>
      <point x="982" y="38" type="line"/>
      <point x="919" y="47"/>
      <point x="885" y="63"/>
      <point x="860" y="114" type="curve" smooth="yes"/>
      <point x="413" y="1019" type="line" smooth="yes"/>
      <point x="387" y="1072"/>
      <point x="418" y="1085"/>
      <point x="512" y="1095" type="curve"/>
      <point x="517" y="1134" type="line"/>
      <point x="147" y="1134" type="line"/>
      <point x="142" y="1095" type="line"/>
      <point x="214" y="1083"/>
      <point x="235" y="1072"/>
      <point x="263" y="1019" type="curve"/>
      <point x="709" y="114" type="line"/>
      <point x="733" y="66"/>
      <point x="709" y="49"/>
      <point x="612" y="38" type="curve"/>
      <point x="606" y="0" type="line"/>
      <point x="976" y="0" type="line"/>
    </contour>
    <contour>
      <point x="532" y="508" type="line"/>
      <point x="491" y="611" type="line"/>
      <point x="147" y="114" type="line"/>
      <point x="114" y="64"/>
      <point x="59" y="44"/>
      <point x="-12" y="38" type="curve"/>
      <point x="-18" y="0" type="line"/>
      <point x="351" y="0" type="line"/>
      <point x="357" y="38" type="line"/>
      <point x="258" y="45"/>
      <point x="221" y="61"/>
      <point x="258" y="114" type="curve" smooth="yes"/>
    </contour>
  </outline>
</glyph>
<glyph name="Y" format="2">
  <advance width="1030"/>
  <unicode hex="0059"/>
  <anchor x="618" y="1188" name="U"/>
  <outline>
    <contour>
      <point x="1083" y="1134" type="line"/>
      <point x="759" y="1134" type="line"/>
      <point x="754" y="1095" type="line"/>
      <point x="835" y="1083"/>
      <point x="860" y="1069"/>
      <point x="840" y="1035" type="curve" smooth="yes"/>
      <point x="562" y="610" type="line"/>
      <point x="534" y="729"/>
      <point x="425" y="993"/>
      <point x="346" y="1113" type="curve" smooth="yes"/>
      <point x="332" y="1135"/>
      <point x="315" y="1148"/>
      <point x="300" y="1148" type="curve" smooth="yes"/>
      <point x="254" y="1148"/>
      <point x="156" y="1127"/>
      <point x="91" y="1111" type="curve"/>
      <point x="99" y="1072" type="line"/>
      <point x="184" y="1083"/>
      <point x="209" y="1074"/>
      <point x="234" y="1039" type="curve" smooth="yes"/>
      <point x="324" y="905"/>
      <point x="440" y="613"/>
      <point x="473" y="440" type="curve"/>
      <point x="560" y="440" type="line"/>
      <point x="942" y="1035" type="line" smooth="yes"/>
      <point x="962" y="1067"/>
      <point x="1002" y="1080"/>
      <point x="1078" y="1095" type="curve"/>
    </contour>
    <contour>
      <point x="665" y="38" type="line"/>
      <point x="566" y="61"/>
      <point x="536" y="88"/>
      <point x="538" y="103" type="curve" smooth="yes"/>
      <point x="603" y="573" type="line"/>
      <point x="471" y="573" type="line"/>
      <point x="407" y="103" type="line" smooth="yes"/>
      <point x="405" y="86"/>
      <point x="367" y="61"/>
      <point x="263" y="38" type="curve"/>
      <point x="258" y="0" type="line"/>
      <point x="659" y="0" type="line"/>
    </contour>
  </outline>
</glyph>
<glyph name="Z" format="2">
  <advance width="932"/>
  <unicode hex="005A"/>
  <outline>
    <contour>
      <point x="938" y="1091" type="line"/>
      <point x="920" y="1134" type="line"/>
      <point x="391" y="1134" type="line" smooth="yes"/>
      <point x="328" y="1134"/>
      <point x="293" y="1134"/>
      <point x="235" y="1155" type="curve"/>
      <point x="167" y="859" type="line"/>
      <point x="222" y="846" type="line"/>
      <point x="264" y="978"/>
      <point x="330" y="1039"/>
      <point x="365" y="1039" type="curve" smooth="yes"/>
      <point x="727" y="1039" type="line"/>
      <point x="23" y="42" type="line"/>
      <point x="42" y="0" type="line"/>
      <point x="806" y="0" type="line"/>
      <point x="818" y="70"/>
      <point x="841" y="209"/>
      <point x="855" y="288" type="curve"/>
      <point x="803" y="303" type="line"/>
      <point x="741" y="148"/>
      <point x="706" y="99"/>
      <point x="659" y="99" type="curve" smooth="yes"/>
      <point x="240" y="99" type="line"/>
    </contour>
  </outline>
</glyph>
<glyph name="bracketleft" format="2">
  <advance width="587"/>
  <unicode hex="005B"/>
  <outline>
    <contour>
      <point x="695" y="1413" type="curve"/>
      <point x="668" y="1439" type="line"/>
      <point x="297" y="1439" type="line"/>
      <point x="52" y="-302" type="line"/>
      <point x="431" y="-302" type="line"/>
      <point x="442" y="-281"/>
      <point x="461" y="-241"/>
      <point x="468" y="-218" type="curve"/>
      <point x="440" y="-189" type="line"/>
      <point x="209" y="-189" type="line"/>
      <point x="421" y="1329" type="line"/>
      <point x="657" y="1329" type="line"/>
      <point x="666" y="1343"/>
      <point x="688" y="1383"/>
    </contour>
  </outline>
</glyph>
<glyph name="backslash" format="2">
  <advance width="737"/>
  <unicode hex="005C"/>
  <outline>
    <contour>
      <point x="613" y="-279" type="line"/>
      <point x="265" y="1395" type="line"/>
      <point x="235" y="1415"/>
      <point x="197" y="1430"/>
      <point x="163" y="1439" type="curve"/>
      <point x="130" y="1419" type="line"/>
      <point x="481" y="-256" type="line"/>
      <point x="499" y="-272"/>
      <point x="556" y="-293"/>
      <point x="582" y="-302" type="curve"/>
    </contour>
  </outline>
</glyph>
<glyph name="bracketright" format="2">
  <advance width="552"/>
  <unicode hex="005D"/>
  <outline>
    <contour>
      <point x="543" y="1439" type="line"/>
      <point x="191" y="1439" type="line"/>
      <point x="180" y="1419"/>
      <point x="165" y="1387"/>
      <point x="158" y="1361" type="curve"/>
      <point x="184" y="1338" type="line"/>
      <point x="413" y="1338" type="line"/>
      <point x="197" y="-198" type="line"/>
      <point x="-38" y="-198" type="line"/>
      <point x="-47" y="-214"/>
      <point x="-63" y="-248"/>
      <point x="-72" y="-276" type="curve"/>
      <point x="-45" y="-302" type="line"/>
      <point x="300" y="-302" type="line"/>
    </contour>
  </outline>
</glyph>
<glyph name="asciicircum" format="2">
  <advance width="844"/>
  <unicode hex="005E"/>
  <outline>
    <contour>
      <point x="768" y="571" type="curve"/>
      <point x="587" y="1395" type="line"/>
      <point x="554" y="1378"/>
      <point x="495" y="1343"/>
      <point x="464" y="1315" type="curve"/>
      <point x="84" y="532" type="line"/>
      <point x="101" y="508" type="line"/>
      <point x="125" y="520"/>
      <point x="173" y="547"/>
      <point x="200" y="571" type="curve"/>
      <point x="497" y="1183" type="line"/>
      <point x="641" y="532" type="line"/>
      <point x="668" y="508" type="line"/>
      <point x="709" y="527"/>
      <point x="735" y="543"/>
    </contour>
  </outline>
</glyph>
<glyph name="underscore" format="2">
  <advance width="669"/>
  <unicode hex="005F"/>
  <outline>
    <contour>
      <point x="615" y="-140" type="curve"/>
      <point x="599" y="-117" type="line"/>
      <point x="-71" y="-117" type="line"/>
      <point x="-86" y="-142"/>
      <point x="-100" y="-173"/>
      <point x="-108" y="-197" type="curve"/>
      <point x="-93" y="-221" type="line"/>
      <point x="580" y="-221" type="line"/>
      <point x="592" y="-198"/>
      <point x="608" y="-165"/>
    </contour>
  </outline>
</glyph>
<glyph name="grave" format="2">
  <advance width="545"/>
  <unicode hex="0060"/>
  <anchor x="474" y="1233" name="U"/>
  <outline>
    <contour>
      <point x="508" y="942" type="curve"/>
      <point x="383" y="1313" type="line"/>
      <point x="352" y="1313"/>
      <point x="285" y="1308"/>
      <point x="256" y="1303" type="curve"/>
      <point x="227" y="1270" type="line"/>
      <point x="452" y="923" type="line"/>
      <point x="474" y="924"/>
      <point x="484" y="927"/>
    </contour>
  </outline>
</glyph>
<glyph name="a" format="2">
  <advance width="848"/>
  <unicode hex="0061"/>
  <outline>
    <contour>
      <point x="834" y="72" type="curve"/>
      <point x="822" y="113" type="line"/>
      <point x="774" y="94"/>
      <point x="745" y="88"/>
      <point x="721" y="88" type="curve" smooth="yes"/>
      <point x="693" y="88"/>
      <point x="676" y="139"/>
      <point x="676" y="257" type="curve" smooth="yes"/>
      <point x="676" y="310"/>
      <point x="701" y="503"/>
      <point x="738" y="675" type="curve" smooth="yes"/>
      <point x="754" y="756"/>
      <point x="765" y="768"/>
      <point x="806" y="801" type="curve"/>
      <point x="784" y="842" type="line"/>
      <point x="703" y="803"/>
      <point x="603" y="747"/>
      <point x="591" y="693" type="curve" smooth="yes"/>
      <point x="579" y="622"/>
      <point x="522" y="315"/>
      <point x="522" y="246" type="curve" smooth="yes"/>
      <point x="522" y="14"/>
      <point x="575" y="-36"/>
      <point x="619" y="-36" type="curve" smooth="yes"/>
      <point x="656" y="-36"/>
      <point x="731" y="2"/>
    </contour>
    <contour>
      <point x="751" y="753" type="curve"/>
      <point x="708" y="759"/>
      <point x="634" y="842"/>
      <point x="548" y="842" type="curve" smooth="yes"/>
      <point x="465" y="842"/>
      <point x="370" y="801"/>
      <point x="305" y="757" type="curve" smooth="yes"/>
      <point x="136" y="641"/>
      <point x="43" y="464"/>
      <point x="43" y="274" type="curve" smooth="yes"/>
      <point x="43" y="49"/>
      <point x="157" y="-36"/>
      <point x="239" y="-36" type="curve" smooth="yes"/>
      <point x="341" y="-36"/>
      <point x="463" y="121"/>
      <point x="528" y="230" type="curve"/>
      <point x="549" y="395" type="line"/>
      <point x="473" y="251"/>
      <point x="361" y="104"/>
      <point x="307" y="104" type="curve" smooth="yes"/>
      <point x="244" y="104"/>
      <point x="193" y="193"/>
      <point x="193" y="341" type="curve" smooth="yes"/>
      <point x="193" y="483"/>
      <point x="294" y="735"/>
      <point x="454" y="736" type="curve" smooth="yes"/>
      <point x="547" y="737"/>
      <point x="625" y="624"/>
      <point x="657" y="624" type="curve" smooth="yes"/>
      <point x="688" y="624"/>
      <point x="699" y="718"/>
    </contour>
  </outline>
</glyph>
<glyph name="b" format="2">
  <advance width="860"/>
  <unicode hex="0062"/>
  <anchor x="396" y="0" name="H"/>
  <anchor x="621" y="1422" name="U"/>
  <outline>
    <contour>
      <point x="796" y="549" type="curve"/>
      <point x="798" y="738"/>
      <point x="726" y="842"/>
      <point x="631" y="842" type="curve" smooth="yes"/>
      <point x="545" y="842"/>
      <point x="359" y="744"/>
      <point x="228" y="448" type="curve"/>
      <point x="243" y="372" type="line"/>
      <point x="330" y="571"/>
      <point x="494" y="722"/>
      <point x="543" y="722" type="curve" smooth="yes"/>
      <point x="601" y="722"/>
      <point x="666" y="643"/>
      <point x="666" y="477" type="curve" smooth="yes"/>
      <point x="666" y="396"/>
      <point x="656" y="293"/>
      <point x="601" y="206" type="curve" smooth="yes"/>
      <point x="562" y="145"/>
      <point x="499" y="77"/>
      <point x="413" y="77" type="curve" smooth="yes"/>
      <point x="330" y="77"/>
      <point x="248" y="167"/>
      <point x="248" y="230" type="curve" smooth="yes"/>
      <point x="248" y="388"/>
      <point x="388" y="1124"/>
      <point x="388" y="1294" type="curve" smooth="yes"/>
      <point x="388" y="1349"/>
      <point x="378" y="1368"/>
      <point x="344" y="1368" type="curve" smooth="yes"/>
      <point x="315" y="1368"/>
      <point x="197" y="1327"/>
      <point x="95" y="1282" type="curve"/>
      <point x="107" y="1247" type="line"/>
      <point x="107" y="1247"/>
      <point x="175" y="1271"/>
      <point x="197" y="1271" type="curve" smooth="yes"/>
      <point x="217" y="1271"/>
      <point x="244" y="1266"/>
      <point x="244" y="1211" type="curve" smooth="yes"/>
      <point x="244" y="1063"/>
      <point x="110" y="322"/>
      <point x="110" y="195" type="curve" smooth="yes"/>
      <point x="110" y="86"/>
      <point x="251" y="-36"/>
      <point x="325" y="-36" type="curve" smooth="yes"/>
      <point x="477" y="-36"/>
      <point x="595" y="61"/>
      <point x="676" y="169" type="curve" smooth="yes"/>
      <point x="763" y="289"/>
      <point x="794" y="422"/>
    </contour>
  </outline>
</glyph>
<glyph name="c" format="2">
  <advance width="715"/>
  <unicode hex="0063"/>
  <anchor x="317" y="0" name="H"/>
  <anchor x="477" y="900" name="U"/>
  <outline>
    <contour>
      <point x="731" y="733" type="curve"/>
      <point x="694" y="746"/>
      <point x="636" y="842"/>
      <point x="531" y="842" type="curve" smooth="yes"/>
      <point x="457" y="842"/>
      <point x="353" y="801"/>
      <point x="287" y="757" type="curve" smooth="yes"/>
      <point x="110" y="639"/>
      <point x="47" y="451"/>
      <point x="47" y="289" type="curve" smooth="yes"/>
      <point x="47" y="36"/>
      <point x="186" y="-36"/>
      <point x="267" y="-36" type="curve" smooth="yes"/>
      <point x="353" y="-36"/>
      <point x="457" y="-9"/>
      <point x="645" y="162" type="curve"/>
      <point x="639" y="171"/>
      <point x="626" y="188"/>
      <point x="617" y="198" type="curve"/>
      <point x="488" y="93"/>
      <point x="399" y="68"/>
      <point x="355" y="68" type="curve" smooth="yes"/>
      <point x="252" y="68"/>
      <point x="179" y="167"/>
      <point x="179" y="322" type="curve" smooth="yes"/>
      <point x="179" y="490"/>
      <point x="265" y="747"/>
      <point x="429" y="747" type="curve" smooth="yes"/>
      <point x="506" y="747"/>
      <point x="558" y="648"/>
      <point x="584" y="648" type="curve" smooth="yes"/>
      <point x="615" y="648"/>
      <point x="681" y="696"/>
    </contour>
  </outline>
</glyph>
<glyph name="d" format="2">
  <advance width="886"/>
  <unicode hex="0064"/>
  <anchor x="350" y="0" name="H"/>
  <anchor x="551" y="1476" name="U"/>
  <outline>
    <contour>
      <point x="850" y="72" type="curve"/>
      <point x="837" y="113" type="line"/>
      <point x="795" y="95"/>
      <point x="766" y="90"/>
      <point x="735" y="90" type="curve" smooth="yes"/>
      <point x="707" y="90"/>
      <point x="693" y="147"/>
      <point x="693" y="273" type="curve" smooth="yes"/>
      <point x="693" y="435"/>
      <point x="839" y="1107"/>
      <point x="839" y="1294" type="curve" smooth="yes"/>
      <point x="839" y="1349"/>
      <point x="821" y="1368"/>
      <point x="785" y="1368" type="curve" smooth="yes"/>
      <point x="751" y="1368"/>
      <point x="628" y="1323"/>
      <point x="520" y="1273" type="curve"/>
      <point x="532" y="1229" type="line"/>
      <point x="564" y="1240"/>
      <point x="611" y="1253"/>
      <point x="626" y="1253" type="curve" smooth="yes"/>
      <point x="648" y="1253"/>
      <point x="667" y="1248"/>
      <point x="667" y="1193" type="curve" smooth="yes"/>
      <point x="667" y="1025"/>
      <point x="537" y="368"/>
      <point x="537" y="257" type="curve" smooth="yes"/>
      <point x="537" y="32"/>
      <point x="585" y="-36"/>
      <point x="630" y="-36" type="curve" smooth="yes"/>
      <point x="673" y="-36"/>
      <point x="749" y="3"/>
    </contour>
    <contour>
      <point x="747" y="725" type="line"/>
      <point x="678" y="725"/>
      <point x="607" y="842"/>
      <point x="539" y="842" type="curve" smooth="yes"/>
      <point x="461" y="842"/>
      <point x="364" y="801"/>
      <point x="298" y="757" type="curve" smooth="yes"/>
      <point x="127" y="645"/>
      <point x="43" y="473"/>
      <point x="43" y="283" type="curve" smooth="yes"/>
      <point x="43" y="59"/>
      <point x="160" y="-36"/>
      <point x="246" y="-36" type="curve" smooth="yes"/>
      <point x="344" y="-36"/>
      <point x="454" y="83"/>
      <point x="541" y="234" type="curve"/>
      <point x="567" y="400" type="line"/>
      <point x="470" y="222"/>
      <point x="377" y="104"/>
      <point x="318" y="104" type="curve" smooth="yes"/>
      <point x="254" y="104"/>
      <point x="193" y="193"/>
      <point x="193" y="341" type="curve" smooth="yes"/>
      <point x="193" y="483"/>
      <point x="287" y="736"/>
      <point x="446" y="736" type="curve" smooth="yes"/>
      <point x="554" y="736"/>
      <point x="626" y="581"/>
      <point x="670" y="581" type="curve"/>
    </contour>
  </outline>
</glyph>
<glyph name="e" format="2">
  <advance width="724"/>
  <unicode hex="0065"/>
  <anchor x="322" y="0" name="H"/>
  <anchor x="459" y="900" name="U"/>
  <outline>
    <contour>
      <point x="675" y="684" type="curve"/>
      <point x="675" y="761"/>
      <point x="626" y="842"/>
      <point x="523" y="842" type="curve" smooth="yes"/>
      <point x="450" y="842"/>
      <point x="363" y="804"/>
      <point x="307" y="761" type="curve" smooth="yes"/>
      <point x="149" y="639"/>
      <point x="56" y="460"/>
      <point x="56" y="272" type="curve" smooth="yes"/>
      <point x="56" y="45"/>
      <point x="195" y="-36"/>
      <point x="274" y="-36" type="curve" smooth="yes"/>
      <point x="360" y="-36"/>
      <point x="457" y="-9"/>
      <point x="654" y="162" type="curve"/>
      <point x="650" y="171"/>
      <point x="639" y="191"/>
      <point x="626" y="198" type="curve"/>
      <point x="481" y="82"/>
      <point x="390" y="68"/>
      <point x="339" y="68" type="curve" smooth="yes"/>
      <point x="269" y="68"/>
      <point x="184" y="182"/>
      <point x="184" y="339" type="curve" smooth="yes"/>
      <point x="184" y="471"/>
      <point x="267" y="628"/>
      <point x="351" y="703" type="curve" smooth="yes"/>
      <point x="387" y="735"/>
      <point x="429" y="747"/>
      <point x="448" y="747" type="curve" smooth="yes"/>
      <point x="488" y="747"/>
      <point x="531" y="719"/>
      <point x="531" y="643" type="curve" smooth="yes"/>
      <point x="531" y="554"/>
      <point x="497" y="477"/>
      <point x="128" y="342" type="curve"/>
      <point x="135" y="276" type="line"/>
      <point x="617" y="446"/>
      <point x="675" y="578"/>
    </contour>
  </outline>
</glyph>
<glyph name="f" format="2">
  <advance width="503"/>
  <unicode hex="0066"/>
  <anchor x="-45" y="-405" name="H"/>
  <anchor x="522" y="1476" name="U"/>
  <outline>
    <contour>
      <point x="587" y="789" type="curve"/>
      <point x="569" y="814" type="line"/>
      <point x="138" y="814" type="line"/>
      <point x="47" y="761" type="line"/>
      <point x="61" y="733" type="line"/>
      <point x="335" y="733" type="line" smooth="yes"/>
      <point x="425" y="733"/>
      <point x="460" y="726"/>
      <point x="473" y="693" type="curve"/>
      <point x="497" y="705"/>
      <point x="564" y="756"/>
    </contour>
    <contour>
      <point x="812" y="1262" type="curve"/>
      <point x="775" y="1275"/>
      <point x="711" y="1368"/>
      <point x="606" y="1368" type="curve" smooth="yes"/>
      <point x="532" y="1368"/>
      <point x="477" y="1331"/>
      <point x="413" y="1284" type="curve" smooth="yes"/>
      <point x="260" y="1170"/>
      <point x="228" y="1004"/>
      <point x="206" y="809" type="curve" smooth="yes"/>
      <point x="126" y="125" type="line" smooth="yes"/>
      <point x="104" y="-72"/>
      <point x="29" y="-313"/>
      <point x="-90" y="-379" type="curve"/>
      <point x="-66" y="-436" type="line"/>
      <point x="110" y="-328"/>
      <point x="234" y="-90"/>
      <point x="265" y="173" type="curve" smooth="yes"/>
      <point x="344" y="856" type="line" smooth="yes"/>
      <point x="362" y="1009"/>
      <point x="401" y="1275"/>
      <point x="536" y="1275" type="curve" smooth="yes"/>
      <point x="604" y="1275"/>
      <point x="631" y="1174"/>
      <point x="663" y="1174" type="curve" smooth="yes"/>
      <point x="693" y="1174"/>
      <point x="761" y="1225"/>
    </contour>
  </outline>
</glyph>
<glyph name="g" format="2">
  <advance width="834"/>
  <unicode hex="0067"/>
  <anchor x="285" y="-405" name="H"/>
  <anchor x="470" y="900" name="U"/>
  <outline>
    <contour>
      <point x="750" y="751" type="curve"/>
      <point x="707" y="756"/>
      <point x="629" y="842"/>
      <point x="548" y="842" type="curve" smooth="yes"/>
      <point x="463" y="842"/>
      <point x="371" y="801"/>
      <point x="305" y="757" type="curve" smooth="yes"/>
      <point x="127" y="639"/>
      <point x="39" y="464"/>
      <point x="39" y="274" type="curve" smooth="yes"/>
      <point x="39" y="49"/>
      <point x="157" y="-36"/>
      <point x="237" y="-36" type="curve" smooth="yes"/>
      <point x="344" y="-36"/>
      <point x="471" y="128"/>
      <point x="554" y="279" type="curve"/>
      <point x="570" y="452" type="line"/>
      <point x="479" y="250"/>
      <point x="355" y="104"/>
      <point x="310" y="104" type="curve" smooth="yes"/>
      <point x="245" y="104"/>
      <point x="191" y="193"/>
      <point x="191" y="341" type="curve" smooth="yes"/>
      <point x="191" y="483"/>
      <point x="293" y="736"/>
      <point x="454" y="736" type="curve" smooth="yes"/>
      <point x="546" y="736"/>
      <point x="618" y="625"/>
      <point x="652" y="625" type="curve" smooth="yes"/>
      <point x="681" y="625"/>
      <point x="698" y="715"/>
    </contour>
    <contour>
      <point x="810" y="801" type="curve"/>
      <point x="786" y="842" type="line"/>
      <point x="700" y="801"/>
      <point x="600" y="729"/>
      <point x="580" y="604" type="curve" smooth="yes"/>
      <point x="535" y="323"/>
      <point x="565" y="195"/>
      <point x="522" y="-43" type="curve" smooth="yes"/>
      <point x="486" y="-242"/>
      <point x="423" y="-332"/>
      <point x="316" y="-332" type="curve" smooth="yes"/>
      <point x="156" y="-332"/>
      <point x="120" y="-219"/>
      <point x="92" y="-219" type="curve" smooth="yes"/>
      <point x="76" y="-219"/>
      <point x="-9" y="-302"/>
      <point x="-9" y="-343" type="curve" smooth="yes"/>
      <point x="-9" y="-385"/>
      <point x="136" y="-450"/>
      <point x="243" y="-450" type="curve" smooth="yes"/>
      <point x="432" y="-450"/>
      <point x="635" y="-248"/>
      <point x="680" y="0" type="curve" smooth="yes"/>
      <point x="714" y="185"/>
      <point x="699" y="354"/>
      <point x="736" y="638" type="curve" smooth="yes"/>
      <point x="747" y="724"/>
      <point x="769" y="768"/>
    </contour>
  </outline>
</glyph>
<glyph name="h" format="2">
  <advance width="910"/>
  <unicode hex="0068"/>
  <anchor x="142" y="0" name="H"/>
  <anchor x="591" y="1422" name="U"/>
  <outline>
    <contour>
      <point x="872" y="64" type="curve"/>
      <point x="858" y="98" type="line"/>
      <point x="814" y="79"/>
      <point x="779" y="68"/>
      <point x="746" y="68" type="curve" smooth="yes"/>
      <point x="731" y="68"/>
      <point x="713" y="81"/>
      <point x="713" y="121" type="curve" smooth="yes"/>
      <point x="713" y="221"/>
      <point x="791" y="558"/>
      <point x="791" y="684" type="curve" smooth="yes"/>
      <point x="791" y="800"/>
      <point x="761" y="842"/>
      <point x="685" y="842" type="curve" smooth="yes"/>
      <point x="578" y="842"/>
      <point x="444" y="783"/>
      <point x="304" y="610" type="curve"/>
      <point x="325" y="740"/>
      <point x="397" y="1208"/>
      <point x="397" y="1294" type="curve" smooth="yes"/>
      <point x="397" y="1349"/>
      <point x="378" y="1368"/>
      <point x="344" y="1368" type="curve" smooth="yes"/>
      <point x="313" y="1368"/>
      <point x="202" y="1327"/>
      <point x="101" y="1282" type="curve"/>
      <point x="112" y="1247" type="line"/>
      <point x="136" y="1254"/>
      <point x="196" y="1271"/>
      <point x="216" y="1271" type="curve" smooth="yes"/>
      <point x="235" y="1271"/>
      <point x="252" y="1266"/>
      <point x="252" y="1211" type="curve" smooth="yes"/>
      <point x="252" y="1058"/>
      <point x="121" y="248"/>
      <point x="77" y="-9" type="curve"/>
      <point x="107" y="-36" type="line"/>
      <point x="136" y="-20"/>
      <point x="204" y="9"/>
      <point x="235" y="22" type="curve"/>
      <point x="235" y="73"/>
      <point x="237" y="138"/>
      <point x="256" y="270" type="curve" smooth="yes"/>
      <point x="271" y="378"/>
      <point x="291" y="467"/>
      <point x="325" y="523" type="curve" smooth="yes"/>
      <point x="417" y="676"/>
      <point x="558" y="750"/>
      <point x="589" y="750" type="curve" smooth="yes"/>
      <point x="641" y="750"/>
      <point x="652" y="720"/>
      <point x="652" y="630" type="curve" smooth="yes"/>
      <point x="652" y="549"/>
      <point x="575" y="132"/>
      <point x="575" y="68" type="curve" smooth="yes"/>
      <point x="575" y="3"/>
      <point x="606" y="-36"/>
      <point x="641" y="-36" type="curve" smooth="yes"/>
      <point x="691" y="-36"/>
      <point x="761" y="0"/>
    </contour>
  </outline>
</glyph>
<glyph name="i" format="2">
  <advance width="453"/>
  <unicode hex="0069"/>
  <anchor x="189" y="0" name="H"/>
  <anchor x="321" y="900" name="U"/>
  <outline>
    <contour>
      <point x="433" y="1135" type="curve"/>
      <point x="433" y="1176"/>
      <point x="412" y="1199"/>
      <point x="375" y="1199" type="curve" smooth="yes"/>
      <point x="308" y="1199"/>
      <point x="264" y="1122"/>
      <point x="264" y="1058" type="curve" smooth="yes"/>
      <point x="264" y="1017"/>
      <point x="286" y="995"/>
      <point x="323" y="995" type="curve" smooth="yes"/>
      <point x="391" y="995"/>
      <point x="433" y="1069"/>
    </contour>
    <contour>
      <point x="409" y="64" type="curve"/>
      <point x="396" y="98" type="line"/>
      <point x="346" y="77"/>
      <point x="316" y="68"/>
      <point x="279" y="68" type="curve" smooth="yes"/>
      <point x="260" y="68"/>
      <point x="252" y="84"/>
      <point x="252" y="121" type="curve" smooth="yes"/>
      <point x="252" y="226"/>
      <point x="346" y="661"/>
      <point x="346" y="766" type="curve" smooth="yes"/>
      <point x="346" y="821"/>
      <point x="333" y="842"/>
      <point x="300" y="842" type="curve" smooth="yes"/>
      <point x="269" y="842"/>
      <point x="163" y="801"/>
      <point x="63" y="756" type="curve"/>
      <point x="75" y="722" type="line"/>
      <point x="106" y="731"/>
      <point x="151" y="744"/>
      <point x="165" y="744" type="curve" smooth="yes"/>
      <point x="188" y="744"/>
      <point x="202" y="738"/>
      <point x="202" y="684" type="curve" smooth="yes"/>
      <point x="202" y="595"/>
      <point x="112" y="175"/>
      <point x="112" y="68" type="curve" smooth="yes"/>
      <point x="112" y="3"/>
      <point x="138" y="-36"/>
      <point x="179" y="-36" type="curve" smooth="yes"/>
      <point x="232" y="-36"/>
      <point x="297" y="-1"/>
    </contour>
  </outline>
</glyph>
<glyph name="j" format="2">
  <advance width="451"/>
  <unicode hex="006A"/>
  <anchor x="294" y="900" name="U"/>
  <outline>
    <contour>
      <point x="412" y="1135" type="curve"/>
      <point x="412" y="1176"/>
      <point x="389" y="1199"/>
      <point x="352" y="1199" type="curve" smooth="yes"/>
      <point x="284" y="1199"/>
      <point x="242" y="1122"/>
      <point x="242" y="1058" type="curve" smooth="yes"/>
      <point x="242" y="1017"/>
      <point x="262" y="995"/>
      <point x="299" y="995" type="curve" smooth="yes"/>
      <point x="367" y="995"/>
      <point x="412" y="1069"/>
    </contour>
    <contour>
      <point x="337" y="783" type="curve" smooth="yes"/>
      <point x="337" y="833"/>
      <point x="320" y="842"/>
      <point x="287" y="842" type="curve" smooth="yes"/>
      <point x="258" y="842"/>
      <point x="151" y="801"/>
      <point x="49" y="756" type="curve"/>
      <point x="63" y="722" type="line"/>
      <point x="92" y="731"/>
      <point x="137" y="744"/>
      <point x="153" y="744" type="curve" smooth="yes"/>
      <point x="173" y="744"/>
      <point x="189" y="738"/>
      <point x="189" y="684" type="curve" smooth="yes"/>
      <point x="189" y="648"/>
      <point x="170" y="464"/>
      <point x="163" y="405" type="curve" smooth="yes"/>
      <point x="156" y="337"/>
      <point x="144" y="187"/>
      <point x="115" y="9" type="curve" smooth="yes"/>
      <point x="77" y="-215"/>
      <point x="13" y="-344"/>
      <point x="-89" y="-344" type="curve" smooth="yes"/>
      <point x="-194" y="-344"/>
      <point x="-227" y="-270"/>
      <point x="-247" y="-270" type="curve" smooth="yes"/>
      <point x="-271" y="-270"/>
      <point x="-345" y="-350"/>
      <point x="-345" y="-381" type="curve" smooth="yes"/>
      <point x="-345" y="-405"/>
      <point x="-253" y="-450"/>
      <point x="-187" y="-450" type="curve" smooth="yes"/>
      <point x="-144" y="-450"/>
      <point x="-50" y="-432"/>
      <point x="15" y="-381" type="curve" smooth="yes"/>
      <point x="119" y="-300"/>
      <point x="220" y="-196"/>
      <point x="257" y="59" type="curve" smooth="yes"/>
      <point x="279" y="208"/>
      <point x="292" y="342"/>
      <point x="300" y="425" type="curve" smooth="yes"/>
      <point x="307" y="503"/>
      <point x="337" y="744"/>
    </contour>
  </outline>
</glyph>
<glyph name="k" format="2">
  <advance width="809"/>
  <unicode hex="006B"/>
  <anchor x="153" y="0" name="H"/>
  <anchor x="555" y="1422" name="U"/>
  <outline>
    <contour>
      <point x="809" y="781" type="curve"/>
      <point x="809" y="821"/>
      <point x="798" y="837"/>
      <point x="740" y="837" type="curve" smooth="yes"/>
      <point x="665" y="837"/>
      <point x="603" y="816"/>
      <point x="532" y="807" type="curve"/>
      <point x="536" y="772" type="line"/>
      <point x="602" y="774"/>
      <point x="631" y="767"/>
      <point x="631" y="749" type="curve" smooth="yes"/>
      <point x="631" y="723"/>
      <point x="572" y="676"/>
      <point x="475" y="603" type="curve" smooth="yes"/>
      <point x="278" y="453" type="line"/>
      <point x="335" y="422" type="line"/>
      <point x="522" y="534" type="line" smooth="yes"/>
      <point x="702" y="643"/>
      <point x="809" y="746"/>
    </contour>
    <contour>
      <point x="396" y="1275" type="curve" smooth="yes"/>
      <point x="396" y="1359"/>
      <point x="376" y="1368"/>
      <point x="342" y="1368" type="curve" smooth="yes"/>
      <point x="313" y="1368"/>
      <point x="200" y="1327"/>
      <point x="99" y="1282" type="curve"/>
      <point x="112" y="1247" type="line"/>
      <point x="135" y="1255"/>
      <point x="190" y="1271"/>
      <point x="209" y="1271" type="curve" smooth="yes"/>
      <point x="237" y="1271"/>
      <point x="252" y="1268"/>
      <point x="252" y="1208" type="curve" smooth="yes"/>
      <point x="252" y="1026"/>
      <point x="95" y="130"/>
      <point x="77" y="-9" type="curve"/>
      <point x="108" y="-36" type="line"/>
      <point x="138" y="-22"/>
      <point x="210" y="9"/>
      <point x="243" y="24" type="curve"/>
      <point x="207" y="147"/>
      <point x="396" y="1043"/>
    </contour>
    <contour>
      <point x="800" y="61" type="curve"/>
      <point x="784" y="91" type="line"/>
      <point x="765" y="79"/>
      <point x="727" y="68"/>
      <point x="682" y="68" type="curve" smooth="yes"/>
      <point x="601" y="68"/>
      <point x="483" y="446"/>
      <point x="376" y="508" type="curve"/>
      <point x="278" y="453" type="line"/>
      <point x="376" y="383"/>
      <point x="486" y="-35"/>
      <point x="617" y="-35" type="curve" smooth="yes"/>
      <point x="663" y="-35"/>
      <point x="720" y="-5"/>
    </contour>
  </outline>
</glyph>
<glyph name="l" format="2">
  <advance width="432"/>
  <unicode hex="006C"/>
  <anchor x="162" y="0" name="H"/>
  <anchor x="345" y="1476" name="U"/>
  <outline>
    <contour>
      <point x="392" y="64" type="curve"/>
      <point x="381" y="98" type="line"/>
      <point x="328" y="77"/>
      <point x="293" y="68"/>
      <point x="265" y="68" type="curve" smooth="yes"/>
      <point x="246" y="68"/>
      <point x="234" y="81"/>
      <point x="234" y="121" type="curve" smooth="yes"/>
      <point x="234" y="285"/>
      <point x="390" y="1107"/>
      <point x="390" y="1294" type="curve" smooth="yes"/>
      <point x="390" y="1349"/>
      <point x="369" y="1368"/>
      <point x="335" y="1368" type="curve" smooth="yes"/>
      <point x="304" y="1368"/>
      <point x="195" y="1327"/>
      <point x="93" y="1282" type="curve"/>
      <point x="107" y="1247" type="line"/>
      <point x="138" y="1258"/>
      <point x="186" y="1271"/>
      <point x="200" y="1271" type="curve" smooth="yes"/>
      <point x="223" y="1271"/>
      <point x="246" y="1266"/>
      <point x="246" y="1211" type="curve" smooth="yes"/>
      <point x="246" y="1043"/>
      <point x="91" y="189"/>
      <point x="91" y="70" type="curve" smooth="yes"/>
      <point x="91" y="0"/>
      <point x="123" y="-36"/>
      <point x="156" y="-36" type="curve" smooth="yes"/>
      <point x="217" y="-36"/>
      <point x="274" y="-9"/>
    </contour>
  </outline>
</glyph>
<glyph name="m" format="2">
  <advance width="1329"/>
  <unicode hex="006D"/>
  <anchor x="1054" y="0" name="H"/>
  <anchor x="731" y="900" name="U"/>
  <outline>
    <contour>
      <point x="1271" y="64" type="curve"/>
      <point x="1262" y="98" type="line"/>
      <point x="1213" y="79"/>
      <point x="1183" y="70"/>
      <point x="1148" y="70" type="curve" smooth="yes"/>
      <point x="1127" y="70"/>
      <point x="1115" y="81"/>
      <point x="1115" y="121" type="curve" smooth="yes"/>
      <point x="1115" y="221"/>
      <point x="1194" y="547"/>
      <point x="1194" y="684" type="curve" smooth="yes"/>
      <point x="1194" y="800"/>
      <point x="1148" y="842"/>
      <point x="1078" y="842" type="curve" smooth="yes"/>
      <point x="988" y="842"/>
      <point x="897" y="779"/>
      <point x="757" y="619" type="curve"/>
      <point x="759" y="645"/>
      <point x="761" y="661"/>
      <point x="761" y="684" type="curve" smooth="yes"/>
      <point x="761" y="763"/>
      <point x="737" y="842"/>
      <point x="647" y="842" type="curve" smooth="yes"/>
      <point x="549" y="842"/>
      <point x="446" y="779"/>
      <point x="304" y="610" type="curve"/>
      <point x="307" y="654"/>
      <point x="315" y="713"/>
      <point x="315" y="738" type="curve" smooth="yes"/>
      <point x="315" y="823"/>
      <point x="311" y="842"/>
      <point x="274" y="842" type="curve" smooth="yes"/>
      <point x="244" y="842"/>
      <point x="138" y="801"/>
      <point x="36" y="757" type="curve"/>
      <point x="47" y="722" type="line"/>
      <point x="47" y="722"/>
      <point x="121" y="746"/>
      <point x="144" y="746" type="curve" smooth="yes"/>
      <point x="163" y="746"/>
      <point x="179" y="738"/>
      <point x="179" y="684" type="curve" smooth="yes"/>
      <point x="179" y="580"/>
      <point x="126" y="244"/>
      <point x="77" y="-9" type="curve"/>
      <point x="107" y="-36" type="line"/>
      <point x="136" y="-20"/>
      <point x="204" y="5"/>
      <point x="235" y="22" type="curve"/>
      <point x="234" y="79"/>
      <point x="237" y="156"/>
      <point x="256" y="265" type="curve" smooth="yes"/>
      <point x="276" y="381"/>
      <point x="293" y="464"/>
      <point x="342" y="541" type="curve" smooth="yes"/>
      <point x="434" y="689"/>
      <point x="540" y="750"/>
      <point x="571" y="750" type="curve" smooth="yes"/>
      <point x="604" y="750"/>
      <point x="624" y="720"/>
      <point x="624" y="630" type="curve" smooth="yes"/>
      <point x="624" y="541"/>
      <point x="575" y="235"/>
      <point x="522" y="-9" type="curve"/>
      <point x="550" y="-36" type="line"/>
      <point x="582" y="-20"/>
      <point x="650" y="5"/>
      <point x="684" y="22" type="curve"/>
      <point x="680" y="81"/>
      <point x="684" y="156"/>
      <point x="700" y="265" type="curve" smooth="yes"/>
      <point x="719" y="379"/>
      <point x="729" y="457"/>
      <point x="783" y="540" type="curve" smooth="yes"/>
      <point x="877" y="687"/>
      <point x="976" y="750"/>
      <point x="1021" y="750" type="curve" smooth="yes"/>
      <point x="1043" y="750"/>
      <point x="1060" y="720"/>
      <point x="1060" y="647" type="curve" smooth="yes"/>
      <point x="1060" y="527"/>
      <point x="976" y="132"/>
      <point x="976" y="68" type="curve" smooth="yes"/>
      <point x="976" y="3"/>
      <point x="1004" y="-36"/>
      <point x="1039" y="-36" type="curve" smooth="yes"/>
      <point x="1090" y="-36"/>
      <point x="1161" y="0"/>
    </contour>
  </outline>
</glyph>
<glyph name="n" format="2">
  <advance width="910"/>
  <unicode hex="006E"/>
  <anchor x="648" y="0" name="H"/>
  <anchor x="525" y="900" name="U"/>
  <outline>
    <contour>
      <point x="875" y="64" type="curve"/>
      <point x="862" y="98" type="line"/>
      <point x="812" y="77"/>
      <point x="777" y="68"/>
      <point x="749" y="68" type="curve" smooth="yes"/>
      <point x="728" y="68"/>
      <point x="717" y="81"/>
      <point x="717" y="121" type="curve" smooth="yes"/>
      <point x="717" y="221"/>
      <point x="798" y="560"/>
      <point x="798" y="685" type="curve" smooth="yes"/>
      <point x="798" y="801"/>
      <point x="757" y="842"/>
      <point x="682" y="842" type="curve" smooth="yes"/>
      <point x="575" y="842"/>
      <point x="440" y="774"/>
      <point x="309" y="610" type="curve"/>
      <point x="313" y="639"/>
      <point x="318" y="715"/>
      <point x="318" y="740" type="curve" smooth="yes"/>
      <point x="318" y="826"/>
      <point x="316" y="842"/>
      <point x="283" y="842" type="curve" smooth="yes"/>
      <point x="253" y="842"/>
      <point x="144" y="801"/>
      <point x="42" y="757" type="curve"/>
      <point x="54" y="722" type="line"/>
      <point x="78" y="729"/>
      <point x="133" y="746"/>
      <point x="151" y="746" type="curve" smooth="yes"/>
      <point x="172" y="746"/>
      <point x="184" y="740"/>
      <point x="184" y="685" type="curve" smooth="yes"/>
      <point x="184" y="601"/>
      <point x="132" y="230"/>
      <point x="82" y="-9" type="curve"/>
      <point x="112" y="-36" type="line"/>
      <point x="142" y="-22"/>
      <point x="209" y="9"/>
      <point x="241" y="22" type="curve"/>
      <point x="239" y="93"/>
      <point x="243" y="163"/>
      <point x="261" y="270" type="curve" smooth="yes"/>
      <point x="282" y="387"/>
      <point x="300" y="464"/>
      <point x="333" y="522" type="curve" smooth="yes"/>
      <point x="423" y="675"/>
      <point x="559" y="752"/>
      <point x="591" y="752" type="curve" smooth="yes"/>
      <point x="643" y="752"/>
      <point x="659" y="720"/>
      <point x="659" y="630" type="curve" smooth="yes"/>
      <point x="659" y="549"/>
      <point x="578" y="132"/>
      <point x="578" y="68" type="curve" smooth="yes"/>
      <point x="578" y="3"/>
      <point x="603" y="-36"/>
      <point x="645" y="-36" type="curve" smooth="yes"/>
      <point x="691" y="-36"/>
      <point x="766" y="0"/>
    </contour>
  </outline>
</glyph>
<glyph name="o" format="2">
  <advance width="777"/>
  <unicode hex="006F"/>
  <anchor x="336" y="0" name="H"/>
  <anchor x="454" y="900" name="U"/>
  <outline>
    <contour>
      <point x="729" y="503" type="curve"/>
      <point x="729" y="702"/>
      <point x="657" y="842"/>
      <point x="469" y="842" type="curve" smooth="yes"/>
      <point x="396" y="842"/>
      <point x="318" y="803"/>
      <point x="258" y="756" type="curve" smooth="yes"/>
      <point x="99" y="630"/>
      <point x="47" y="481"/>
      <point x="47" y="309" type="curve" smooth="yes"/>
      <point x="47" y="112"/>
      <point x="144" y="-36"/>
      <point x="311" y="-36" type="curve" smooth="yes"/>
      <point x="383" y="-36"/>
      <point x="460" y="5"/>
      <point x="523" y="56" type="curve" smooth="yes"/>
      <point x="657" y="167"/>
      <point x="729" y="342"/>
    </contour>
    <contour>
      <point x="601" y="453" type="curve"/>
      <point x="601" y="306"/>
      <point x="538" y="64"/>
      <point x="372" y="64" type="curve" smooth="yes"/>
      <point x="261" y="64"/>
      <point x="177" y="198"/>
      <point x="177" y="359" type="curve" smooth="yes"/>
      <point x="177" y="512"/>
      <point x="234" y="737"/>
      <point x="407" y="737" type="curve" smooth="yes"/>
      <point x="531" y="737"/>
      <point x="601" y="636"/>
    </contour>
  </outline>
</glyph>
<glyph name="p" format="2">
  <advance width="868"/>
  <unicode hex="0070"/>
  <anchor x="78" y="-403" name="H"/>
  <anchor x="505" y="900" name="U"/>
  <outline>
    <contour>
      <point x="796" y="564" type="curve"/>
      <point x="796" y="744"/>
      <point x="719" y="842"/>
      <point x="626" y="842" type="curve" smooth="yes"/>
      <point x="550" y="842"/>
      <point x="427" y="812"/>
      <point x="254" y="525" type="curve"/>
      <point x="260" y="409" type="line"/>
      <point x="337" y="597"/>
      <point x="485" y="724"/>
      <point x="549" y="724" type="curve" smooth="yes"/>
      <point x="606" y="724"/>
      <point x="665" y="647"/>
      <point x="665" y="478" type="curve" smooth="yes"/>
      <point x="665" y="405"/>
      <point x="662" y="291"/>
      <point x="617" y="197" type="curve" smooth="yes"/>
      <point x="586" y="133"/>
      <point x="538" y="95"/>
      <point x="473" y="95" type="curve" smooth="yes"/>
      <point x="372" y="95"/>
      <point x="265" y="221"/>
      <point x="235" y="291" type="curve"/>
      <point x="193" y="219" type="line"/>
      <point x="260" y="107"/>
      <point x="350" y="-36"/>
      <point x="442" y="-36" type="curve" smooth="yes"/>
      <point x="545" y="-36"/>
      <point x="635" y="72"/>
      <point x="689" y="169" type="curve" smooth="yes"/>
      <point x="765" y="306"/>
      <point x="796" y="444"/>
    </contour>
    <contour>
      <point x="313" y="783" type="curve"/>
      <point x="313" y="829"/>
      <point x="295" y="842"/>
      <point x="270" y="842" type="curve" smooth="yes"/>
      <point x="241" y="842"/>
      <point x="126" y="801"/>
      <point x="26" y="756" type="curve"/>
      <point x="38" y="722" type="line"/>
      <point x="59" y="729"/>
      <point x="111" y="744"/>
      <point x="128" y="744" type="curve" smooth="yes"/>
      <point x="149" y="744"/>
      <point x="171" y="738"/>
      <point x="171" y="684" type="curve" smooth="yes"/>
      <point x="171" y="531"/>
      <point x="12" y="-286"/>
      <point x="-5" y="-423" type="curve"/>
      <point x="23" y="-450" type="line"/>
      <point x="54" y="-435"/>
      <point x="123" y="-411"/>
      <point x="158" y="-402" type="curve"/>
      <point x="145" y="-369"/>
      <point x="153" y="-242"/>
      <point x="193" y="5" type="curve" smooth="yes"/>
      <point x="273" y="504"/>
      <point x="313" y="705"/>
    </contour>
  </outline>
</glyph>
<glyph name="q" format="2">
  <advance width="826"/>
  <unicode hex="0071"/>
  <anchor x="472" y="900" name="U"/>
  <outline>
    <contour>
      <point x="746" y="763" type="curve"/>
      <point x="705" y="768"/>
      <point x="631" y="842"/>
      <point x="550" y="842" type="curve" smooth="yes"/>
      <point x="475" y="842"/>
      <point x="385" y="801"/>
      <point x="318" y="757" type="curve" smooth="yes"/>
      <point x="149" y="647"/>
      <point x="47" y="464"/>
      <point x="47" y="274" type="curve" smooth="yes"/>
      <point x="47" y="49"/>
      <point x="169" y="-36"/>
      <point x="248" y="-36" type="curve" smooth="yes"/>
      <point x="344" y="-36"/>
      <point x="459" y="95"/>
      <point x="543" y="235" type="curve"/>
      <point x="575" y="404" type="line"/>
      <point x="492" y="252"/>
      <point x="378" y="86"/>
      <point x="313" y="86" type="curve" smooth="yes"/>
      <point x="243" y="86"/>
      <point x="163" y="186"/>
      <point x="163" y="341" type="curve" smooth="yes"/>
      <point x="163" y="483"/>
      <point x="297" y="747"/>
      <point x="460" y="747" type="curve" smooth="yes"/>
      <point x="569" y="747"/>
      <point x="641" y="648"/>
      <point x="673" y="648" type="curve" smooth="yes"/>
      <point x="702" y="648"/>
      <point x="694" y="728"/>
    </contour>
    <contour>
      <point x="805" y="810" type="curve"/>
      <point x="784" y="842" type="line"/>
      <point x="703" y="803"/>
      <point x="626" y="747"/>
      <point x="617" y="693" type="curve" smooth="yes"/>
      <point x="547" y="272"/>
      <point x="458" y="-286"/>
      <point x="439" y="-423" type="curve"/>
      <point x="470" y="-450" type="line"/>
      <point x="500" y="-435"/>
      <point x="572" y="-412"/>
      <point x="604" y="-402" type="curve"/>
      <point x="598" y="-389"/>
      <point x="595" y="-364"/>
      <point x="595" y="-331" type="curve" smooth="yes"/>
      <point x="595" y="-165"/>
      <point x="671" y="283"/>
      <point x="738" y="684" type="curve" smooth="yes"/>
      <point x="752" y="765"/>
      <point x="765" y="777"/>
    </contour>
  </outline>
</glyph>
<glyph name="r" format="2">
  <advance width="654"/>
  <unicode hex="0072"/>
  <anchor x="157" y="0" name="H"/>
  <anchor x="414" y="900" name="U"/>
  <outline>
    <contour>
      <point x="691" y="765" type="curve"/>
      <point x="638" y="786"/>
      <point x="613" y="842"/>
      <point x="571" y="842" type="curve" smooth="yes"/>
      <point x="494" y="842"/>
      <point x="405" y="792"/>
      <point x="289" y="556" type="curve"/>
      <point x="297" y="601"/>
      <point x="313" y="713"/>
      <point x="313" y="738" type="curve" smooth="yes"/>
      <point x="313" y="823"/>
      <point x="311" y="842"/>
      <point x="278" y="842" type="curve" smooth="yes"/>
      <point x="248" y="842"/>
      <point x="138" y="801"/>
      <point x="36" y="756" type="curve"/>
      <point x="49" y="722" type="line"/>
      <point x="69" y="729"/>
      <point x="123" y="744"/>
      <point x="142" y="744" type="curve" smooth="yes"/>
      <point x="162" y="744"/>
      <point x="179" y="738"/>
      <point x="179" y="684" type="curve" smooth="yes"/>
      <point x="179" y="575"/>
      <point x="130" y="246"/>
      <point x="77" y="-9" type="curve"/>
      <point x="107" y="-36" type="line"/>
      <point x="135" y="-23"/>
      <point x="207" y="9"/>
      <point x="235" y="22" type="curve"/>
      <point x="232" y="117"/>
      <point x="251" y="254"/>
      <point x="276" y="344" type="curve" smooth="yes"/>
      <point x="324" y="516"/>
      <point x="436" y="705"/>
      <point x="499" y="705" type="curve" smooth="yes"/>
      <point x="534" y="705"/>
      <point x="550" y="643"/>
      <point x="595" y="643" type="curve" smooth="yes"/>
      <point x="619" y="643"/>
      <point x="661" y="726"/>
    </contour>
  </outline>
</glyph>
<glyph name="s" format="2">
  <advance width="639"/>
  <unicode hex="0073"/>
  <anchor x="261" y="0" name="H"/>
  <anchor x="393" y="900" name="U"/>
  <outline>
    <contour>
      <point x="628" y="759" type="curve"/>
      <point x="578" y="774"/>
      <point x="538" y="842"/>
      <point x="416" y="842" type="curve" smooth="yes"/>
      <point x="274" y="842"/>
      <point x="110" y="738"/>
      <point x="110" y="587" type="curve" smooth="yes"/>
      <point x="110" y="510"/>
      <point x="153" y="451"/>
      <point x="279" y="392" type="curve" smooth="yes"/>
      <point x="370" y="350"/>
      <point x="453" y="293"/>
      <point x="453" y="200" type="curve" smooth="yes"/>
      <point x="453" y="117"/>
      <point x="383" y="49"/>
      <point x="298" y="49" type="curve" smooth="yes"/>
      <point x="140" y="49"/>
      <point x="112" y="200"/>
      <point x="88" y="200" type="curve" smooth="yes"/>
      <point x="63" y="200"/>
      <point x="-3" y="114"/>
      <point x="-3" y="88" type="curve" smooth="yes"/>
      <point x="-3" y="36"/>
      <point x="114" y="-36"/>
      <point x="226" y="-36" type="curve" smooth="yes"/>
      <point x="383" y="-36"/>
      <point x="571" y="93"/>
      <point x="571" y="260" type="curve" smooth="yes"/>
      <point x="571" y="387"/>
      <point x="464" y="457"/>
      <point x="365" y="503" type="curve" smooth="yes"/>
      <point x="269" y="548"/>
      <point x="232" y="595"/>
      <point x="232" y="638" type="curve" smooth="yes"/>
      <point x="232" y="715"/>
      <point x="302" y="766"/>
      <point x="369" y="766" type="curve" smooth="yes"/>
      <point x="448" y="766"/>
      <point x="483" y="666"/>
      <point x="513" y="666" type="curve" smooth="yes"/>
      <point x="531" y="666"/>
      <point x="580" y="705"/>
    </contour>
  </outline>
</glyph>
<glyph name="t" format="2">
  <advance width="566"/>
  <unicode hex="0074"/>
  <anchor x="227" y="0" name="H"/>
  <anchor x="381" y="1107" name="U"/>
  <outline>
    <contour>
      <point x="580" y="789" type="curve"/>
      <point x="562" y="814" type="line"/>
      <point x="144" y="814" type="line"/>
      <point x="53" y="761" type="line"/>
      <point x="66" y="733" type="line"/>
      <point x="328" y="733" type="line" smooth="yes"/>
      <point x="418" y="733"/>
      <point x="451" y="726"/>
      <point x="466" y="693" type="curve"/>
      <point x="488" y="705"/>
      <point x="556" y="756"/>
    </contour>
    <contour>
      <point x="522" y="105" type="curve"/>
      <point x="506" y="138" type="line"/>
      <point x="416" y="98"/>
      <point x="359" y="81"/>
      <point x="316" y="81" type="curve" smooth="yes"/>
      <point x="283" y="81"/>
      <point x="251" y="116"/>
      <point x="251" y="189" type="curve" smooth="yes"/>
      <point x="251" y="214"/>
      <point x="254" y="274"/>
      <point x="261" y="320" type="curve" smooth="yes"/>
      <point x="346" y="866" type="line" smooth="yes"/>
      <point x="363" y="974"/>
      <point x="383" y="1026"/>
      <point x="392" y="1035" type="curve"/>
      <point x="367" y="1058" type="line"/>
      <point x="276" y="993" type="line" smooth="yes"/>
      <point x="243" y="970"/>
      <point x="229" y="943"/>
      <point x="214" y="846" type="curve" smooth="yes"/>
      <point x="126" y="298" type="line" smooth="yes"/>
      <point x="116" y="232"/>
      <point x="114" y="189"/>
      <point x="114" y="144" type="curve" smooth="yes"/>
      <point x="114" y="38"/>
      <point x="167" y="-36"/>
      <point x="226" y="-36" type="curve" smooth="yes"/>
      <point x="279" y="-36"/>
      <point x="404" y="14"/>
    </contour>
  </outline>
</glyph>
<glyph name="u" format="2">
  <advance width="943"/>
  <unicode hex="0075"/>
  <anchor x="373" y="0" name="H"/>
  <anchor x="534" y="900" name="U"/>
  <outline>
    <contour>
      <point x="905" y="72" type="curve"/>
      <point x="891" y="113" type="line"/>
      <point x="848" y="95"/>
      <point x="822" y="88"/>
      <point x="790" y="88" type="curve" smooth="yes"/>
      <point x="760" y="88"/>
      <point x="744" y="135"/>
      <point x="744" y="244" type="curve" smooth="yes"/>
      <point x="744" y="362"/>
      <point x="815" y="661"/>
      <point x="815" y="766" type="curve" smooth="yes"/>
      <point x="815" y="821"/>
      <point x="807" y="842"/>
      <point x="773" y="842" type="curve" smooth="yes"/>
      <point x="738" y="842"/>
      <point x="615" y="792"/>
      <point x="513" y="747" type="curve"/>
      <point x="528" y="704" type="line"/>
      <point x="554" y="713"/>
      <point x="595" y="726"/>
      <point x="610" y="726" type="curve" smooth="yes"/>
      <point x="631" y="726"/>
      <point x="643" y="720"/>
      <point x="643" y="666" type="curve" smooth="yes"/>
      <point x="643" y="582"/>
      <point x="606" y="433"/>
      <point x="593" y="310" type="curve" smooth="yes"/>
      <point x="567" y="58"/>
      <point x="627" y="-36"/>
      <point x="681" y="-36" type="curve" smooth="yes"/>
      <point x="730" y="-36"/>
      <point x="809" y="7"/>
    </contour>
    <contour>
      <point x="608" y="398" type="line"/>
      <point x="486" y="176"/>
      <point x="379" y="94"/>
      <point x="333" y="94" type="curve" smooth="yes"/>
      <point x="295" y="94"/>
      <point x="270" y="139"/>
      <point x="270" y="238" type="curve" smooth="yes"/>
      <point x="270" y="343"/>
      <point x="342" y="661"/>
      <point x="342" y="766" type="curve" smooth="yes"/>
      <point x="342" y="821"/>
      <point x="333" y="842"/>
      <point x="298" y="842" type="curve" smooth="yes"/>
      <point x="263" y="842"/>
      <point x="132" y="792"/>
      <point x="30" y="747" type="curve"/>
      <point x="42" y="704" type="line"/>
      <point x="72" y="713"/>
      <point x="117" y="726"/>
      <point x="132" y="726" type="curve" smooth="yes"/>
      <point x="154" y="726"/>
      <point x="169" y="720"/>
      <point x="169" y="666" type="curve" smooth="yes"/>
      <point x="169" y="577"/>
      <point x="105" y="291"/>
      <point x="105" y="184" type="curve" smooth="yes"/>
      <point x="105" y="38"/>
      <point x="192" y="-36"/>
      <point x="246" y="-36" type="curve" smooth="yes"/>
      <point x="371" y="-36"/>
      <point x="497" y="83"/>
      <point x="594" y="248" type="curve"/>
    </contour>
  </outline>
</glyph>
<glyph name="v" format="2">
  <advance width="840"/>
  <unicode hex="0076"/>
  <anchor x="369" y="0" name="H"/>
  <anchor x="483" y="900" name="U"/>
  <outline>
    <contour>
      <point x="827" y="766" type="curve"/>
      <point x="827" y="823"/>
      <point x="800" y="842"/>
      <point x="758" y="842" type="curve" smooth="yes"/>
      <point x="713" y="842"/>
      <point x="600" y="798"/>
      <point x="530" y="760" type="curve"/>
      <point x="547" y="720" type="line"/>
      <point x="573" y="730"/>
      <point x="597" y="733"/>
      <point x="617" y="733" type="curve" smooth="yes"/>
      <point x="650" y="733"/>
      <point x="670" y="720"/>
      <point x="670" y="694" type="curve" smooth="yes"/>
      <point x="670" y="642"/>
      <point x="600" y="439"/>
      <point x="425" y="160" type="curve"/>
      <point x="424" y="206"/>
      <point x="350" y="636"/>
      <point x="324" y="728" type="curve" smooth="yes"/>
      <point x="299" y="812"/>
      <point x="284" y="842"/>
      <point x="249" y="842" type="curve" smooth="yes"/>
      <point x="217" y="842"/>
      <point x="110" y="792"/>
      <point x="9" y="744" type="curve"/>
      <point x="24" y="702" type="line"/>
      <point x="50" y="710"/>
      <point x="96" y="724"/>
      <point x="113" y="724" type="curve" smooth="yes"/>
      <point x="133" y="724"/>
      <point x="159" y="715"/>
      <point x="177" y="650" type="curve" smooth="yes"/>
      <point x="208" y="540"/>
      <point x="270" y="195"/>
      <point x="295" y="-6" type="curve"/>
      <point x="326" y="-36" type="line"/>
      <point x="351" y="-26"/>
      <point x="412" y="2"/>
      <point x="433" y="13" type="curve"/>
      <point x="727" y="486"/>
      <point x="827" y="689"/>
    </contour>
  </outline>
</glyph>
<glyph name="w" format="2">
  <advance width="1190"/>
  <unicode hex="0077"/>
  <outline>
    <contour>
      <point x="1183" y="774" type="curve"/>
      <point x="1183" y="833"/>
      <point x="1148" y="842"/>
      <point x="1108" y="842" type="curve" smooth="yes"/>
      <point x="1080" y="842"/>
      <point x="999" y="821"/>
      <point x="913" y="770" type="curve"/>
      <point x="932" y="728" type="line"/>
      <point x="958" y="736"/>
      <point x="985" y="741"/>
      <point x="1003" y="741" type="curve" smooth="yes"/>
      <point x="1034" y="741"/>
      <point x="1052" y="726"/>
      <point x="1052" y="701" type="curve" smooth="yes"/>
      <point x="1052" y="616"/>
      <point x="1005" y="457"/>
      <point x="843" y="161" type="curve"/>
      <point x="832" y="274"/>
      <point x="804" y="427"/>
      <point x="786" y="540" type="curve" smooth="yes"/>
      <point x="767" y="648"/>
      <point x="728" y="842"/>
      <point x="714" y="842" type="curve" smooth="yes"/>
      <point x="684" y="842"/>
      <point x="618" y="800"/>
      <point x="578" y="764" type="curve"/>
      <point x="569" y="616"/>
      <point x="467" y="363"/>
      <point x="371" y="176" type="curve"/>
      <point x="366" y="266"/>
      <point x="324" y="626"/>
      <point x="303" y="719" type="curve" smooth="yes"/>
      <point x="283" y="805"/>
      <point x="270" y="842"/>
      <point x="237" y="842" type="curve" smooth="yes"/>
      <point x="203" y="842"/>
      <point x="101" y="793"/>
      <point x="0" y="744" type="curve"/>
      <point x="13" y="702" type="line"/>
      <point x="13" y="702"/>
      <point x="82" y="724"/>
      <point x="103" y="724" type="curve" smooth="yes"/>
      <point x="124" y="724"/>
      <point x="152" y="715"/>
      <point x="166" y="650" type="curve"/>
      <point x="193" y="544"/>
      <point x="223" y="196"/>
      <point x="247" y="-6" type="curve"/>
      <point x="279" y="-36" type="line"/>
      <point x="303" y="-26"/>
      <point x="372" y="11"/>
      <point x="392" y="22" type="curve"/>
      <point x="510" y="224"/>
      <point x="621" y="506"/>
      <point x="630" y="585" type="curve"/>
      <point x="662" y="474"/>
      <point x="700" y="195"/>
      <point x="726" y="-6" type="curve"/>
      <point x="758" y="-36" type="line"/>
      <point x="781" y="-26"/>
      <point x="842" y="3"/>
      <point x="862" y="14" type="curve"/>
      <point x="1133" y="513"/>
      <point x="1183" y="678"/>
    </contour>
  </outline>
</glyph>
<glyph name="x" format="2">
  <advance width="810"/>
  <unicode hex="0078"/>
  <anchor x="594" y="0" name="H"/>
  <anchor x="495" y="900" name="U"/>
  <outline>
    <contour>
      <point x="803" y="794" type="curve" smooth="yes"/>
      <point x="803" y="819"/>
      <point x="783" y="842"/>
      <point x="726" y="842" type="curve" smooth="yes"/>
      <point x="696" y="842"/>
      <point x="631" y="837"/>
      <point x="552" y="819" type="curve"/>
      <point x="554" y="783" type="line"/>
      <point x="570" y="784"/>
      <point x="584" y="785"/>
      <point x="594" y="785" type="curve" smooth="yes"/>
      <point x="635" y="785"/>
      <point x="641" y="774"/>
      <point x="641" y="754" type="curve" smooth="yes"/>
      <point x="641" y="735"/>
      <point x="525" y="569"/>
      <point x="418" y="446" type="curve"/>
      <point x="450" y="369" type="line"/>
      <point x="680" y="616"/>
      <point x="803" y="749"/>
    </contour>
    <contour>
      <point x="789" y="64" type="curve"/>
      <point x="774" y="98" type="line"/>
      <point x="729" y="75"/>
      <point x="693" y="68"/>
      <point x="665" y="68" type="curve" smooth="yes"/>
      <point x="543" y="68"/>
      <point x="372" y="842"/>
      <point x="239" y="842" type="curve" smooth="yes"/>
      <point x="214" y="842"/>
      <point x="89" y="785"/>
      <point x="24" y="756" type="curve"/>
      <point x="36" y="720" type="line"/>
      <point x="65" y="729"/>
      <point x="133" y="744"/>
      <point x="149" y="744" type="curve" smooth="yes"/>
      <point x="274" y="744"/>
      <point x="429" y="-36"/>
      <point x="587" y="-36" type="curve" smooth="yes"/>
      <point x="634" y="-36"/>
      <point x="685" y="-7"/>
    </contour>
    <contour>
      <point x="394" y="332" type="curve"/>
      <point x="365" y="413" type="line"/>
      <point x="258" y="281"/>
      <point x="91" y="98"/>
      <point x="-26" y="-5" type="curve"/>
      <point x="-5" y="-36" type="line"/>
      <point x="38" y="-24"/>
      <point x="99" y="-14"/>
      <point x="144" y="-9" type="curve"/>
      <point x="239" y="135"/>
      <point x="344" y="261"/>
    </contour>
  </outline>
</glyph>
<glyph name="y" format="2">
  <advance width="833"/>
  <unicode hex="0079"/>
  <anchor x="508" y="900" name="U"/>
  <outline>
    <contour>
      <point x="460" y="42" type="line"/>
      <point x="418" y="283"/>
      <point x="338" y="576"/>
      <point x="285" y="728" type="curve" smooth="yes"/>
      <point x="256" y="810"/>
      <point x="241" y="842"/>
      <point x="207" y="842" type="curve" smooth="yes"/>
      <point x="179" y="842"/>
      <point x="86" y="801"/>
      <point x="-5" y="756" type="curve"/>
      <point x="5" y="722" type="line"/>
      <point x="34" y="731"/>
      <point x="77" y="744"/>
      <point x="93" y="744" type="curve" smooth="yes"/>
      <point x="114" y="744"/>
      <point x="130" y="731"/>
      <point x="158" y="670" type="curve" smooth="yes"/>
      <point x="211" y="556"/>
      <point x="306" y="156"/>
      <point x="341" y="-51" type="curve"/>
      <point x="370" y="-77" type="line"/>
    </contour>
    <contour>
      <point x="803" y="774" type="curve"/>
      <point x="803" y="833"/>
      <point x="770" y="842"/>
      <point x="729" y="842" type="curve" smooth="yes"/>
      <point x="689" y="842"/>
      <point x="622" y="821"/>
      <point x="536" y="772" type="curve"/>
      <point x="552" y="738" type="line"/>
      <point x="587" y="754"/>
      <point x="613" y="759"/>
      <point x="634" y="759" type="curve" smooth="yes"/>
      <point x="665" y="759"/>
      <point x="682" y="740"/>
      <point x="682" y="711" type="curve" smooth="yes"/>
      <point x="682" y="639"/>
      <point x="521" y="302"/>
      <point x="397" y="66" type="curve" smooth="yes"/>
      <point x="274" y="-170"/>
      <point x="166" y="-309"/>
      <point x="50" y="-309" type="curve" smooth="yes"/>
      <point x="6" y="-309"/>
      <point x="-20" y="-309"/>
      <point x="-78" y="-270" type="curve"/>
      <point x="-111" y="-288"/>
      <point x="-162" y="-376"/>
      <point x="-162" y="-404" type="curve" smooth="yes"/>
      <point x="-162" y="-423"/>
      <point x="-104" y="-450"/>
      <point x="-32" y="-450" type="curve" smooth="yes"/>
      <point x="172" y="-450"/>
      <point x="325" y="-239"/>
      <point x="486" y="73" type="curve" smooth="yes"/>
      <point x="723" y="533"/>
      <point x="803" y="693"/>
    </contour>
  </outline>
</glyph>
<glyph name="z" format="2">
  <advance width="698"/>
  <unicode hex="007A"/>
  <outline>
    <contour>
      <point x="700" y="793" type="curve"/>
      <point x="680" y="823" type="line"/>
      <point x="241" y="823" type="line" smooth="yes"/>
      <point x="198" y="823"/>
      <point x="168" y="837"/>
      <point x="146" y="842" type="curve"/>
      <point x="137" y="791"/>
      <point x="107" y="693"/>
      <point x="85" y="586" type="curve"/>
      <point x="128" y="576" type="line"/>
      <point x="163" y="677"/>
      <point x="184" y="695"/>
      <point x="241" y="695" type="curve" smooth="yes"/>
      <point x="490" y="695" type="line"/>
      <point x="386" y="571"/>
      <point x="171" y="222"/>
      <point x="-7" y="6" type="curve"/>
      <point x="16" y="-27" type="line"/>
      <point x="107" y="18"/>
      <point x="150" y="42"/>
      <point x="189" y="42" type="curve" smooth="yes"/>
      <point x="260" y="42"/>
      <point x="356" y="-18"/>
      <point x="469" y="-18" type="curve" smooth="yes"/>
      <point x="587" y="-18"/>
      <point x="618" y="40"/>
      <point x="685" y="189" type="curve"/>
      <point x="646" y="211" type="line"/>
      <point x="599" y="121"/>
      <point x="562" y="113"/>
      <point x="540" y="113" type="curve" smooth="yes"/>
      <point x="461" y="113"/>
      <point x="345" y="167"/>
      <point x="296" y="167" type="curve" smooth="yes"/>
      <point x="260" y="167"/>
      <point x="222" y="153"/>
      <point x="222" y="153" type="curve"/>
      <point x="412" y="396"/>
      <point x="503" y="580"/>
    </contour>
  </outline>
</glyph>
<glyph name="braceleft" format="2">
  <advance width="576"/>
  <unicode hex="007B"/>
  <outline>
    <contour>
      <point x="666" y="1396" type="curve"/>
      <point x="650" y="1439" type="line"/>
      <point x="471" y="1358"/>
      <point x="351" y="1236"/>
      <point x="328" y="1074" type="curve" smooth="yes"/>
      <point x="307" y="927"/>
      <point x="341" y="921"/>
      <point x="320" y="775" type="curve" smooth="yes"/>
      <point x="307" y="685"/>
      <point x="228" y="606"/>
      <point x="91" y="569" type="curve"/>
      <point x="99" y="522" type="line"/>
      <point x="132" y="527"/>
      <point x="125" y="527"/>
      <point x="154" y="527" type="curve" smooth="yes"/>
      <point x="237" y="527"/>
      <point x="278" y="477"/>
      <point x="265" y="379" type="curve" smooth="yes"/>
      <point x="243" y="230"/>
      <point x="206" y="206"/>
      <point x="186" y="64" type="curve" smooth="yes"/>
      <point x="162" y="-108"/>
      <point x="228" y="-202"/>
      <point x="404" y="-283" type="curve"/>
      <point x="429" y="-228" type="line"/>
      <point x="322" y="-158"/>
      <point x="302" y="-93"/>
      <point x="320" y="38" type="curve" smooth="yes"/>
      <point x="337" y="158"/>
      <point x="378" y="202"/>
      <point x="397" y="346" type="curve" smooth="yes"/>
      <point x="416" y="478"/>
      <point x="390" y="566"/>
      <point x="281" y="587" type="curve"/>
      <point x="383" y="631"/>
      <point x="451" y="729"/>
      <point x="466" y="829" type="curve" smooth="yes"/>
      <point x="486" y="969"/>
      <point x="455" y="986"/>
      <point x="473" y="1125" type="curve"/>
      <point x="492" y="1250"/>
      <point x="571" y="1338"/>
    </contour>
  </outline>
</glyph>
<glyph name="bar" format="2">
  <advance width="455"/>
  <unicode hex="007C"/>
  <outline>
    <contour>
      <point x="437" y="1417" type="line"/>
      <point x="407" y="1439" type="line"/>
      <point x="372" y="1430"/>
      <point x="334" y="1413"/>
      <point x="301" y="1392" type="curve"/>
      <point x="52" y="-388" type="line"/>
      <point x="80" y="-413" type="line"/>
      <point x="109" y="-404"/>
      <point x="164" y="-380"/>
      <point x="188" y="-363" type="curve"/>
    </contour>
  </outline>
</glyph>
<glyph name="braceright" format="2">
  <advance width="590"/>
  <unicode hex="007D"/>
  <outline>
    <contour>
      <point x="515" y="581" type="curve"/>
      <point x="508" y="640" type="line"/>
      <point x="474" y="632"/>
      <point x="483" y="634"/>
      <point x="453" y="634" type="curve" smooth="yes"/>
      <point x="374" y="634"/>
      <point x="335" y="679"/>
      <point x="350" y="777" type="curve" smooth="yes"/>
      <point x="369" y="920"/>
      <point x="408" y="959"/>
      <point x="428" y="1096" type="curve" smooth="yes"/>
      <point x="451" y="1269"/>
      <point x="374" y="1359"/>
      <point x="191" y="1439" type="curve"/>
      <point x="158" y="1375" type="line"/>
      <point x="266" y="1306"/>
      <point x="285" y="1244"/>
      <point x="266" y="1121" type="curve" smooth="yes"/>
      <point x="251" y="1007"/>
      <point x="210" y="948"/>
      <point x="190" y="810" type="curve" smooth="yes"/>
      <point x="172" y="676"/>
      <point x="202" y="590"/>
      <point x="310" y="567" type="curve"/>
      <point x="209" y="523"/>
      <point x="137" y="426"/>
      <point x="122" y="327" type="curve"/>
      <point x="104" y="190"/>
      <point x="133" y="161"/>
      <point x="113" y="26" type="curve" smooth="yes"/>
      <point x="98" y="-87"/>
      <point x="21" y="-172"/>
      <point x="-73" y="-231" type="curve"/>
      <point x="-54" y="-283" type="line"/>
      <point x="128" y="-202"/>
      <point x="261" y="-84"/>
      <point x="285" y="77" type="curve" smooth="yes"/>
      <point x="305" y="220"/>
      <point x="274" y="238"/>
      <point x="293" y="379" type="curve" smooth="yes"/>
      <point x="306" y="470"/>
      <point x="381" y="544"/>
    </contour>
  </outline>
</glyph>
<glyph name="asciitilde" format="2">
  <advance width="884"/>
  <unicode hex="007E"/>
  <outline>
    <contour>
      <point x="867" y="696" type="curve"/>
      <point x="827" y="719" type="line"/>
      <point x="766" y="621"/>
      <point x="712" y="575"/>
      <point x="659" y="575" type="curve" smooth="yes"/>
      <point x="569" y="575"/>
      <point x="473" y="719"/>
      <point x="369" y="719" type="curve" smooth="yes"/>
      <point x="265" y="719"/>
      <point x="143" y="569"/>
      <point x="81" y="451" type="curve"/>
      <point x="121" y="427" type="line"/>
      <point x="180" y="527"/>
      <point x="232" y="573"/>
      <point x="287" y="573" type="curve" smooth="yes"/>
      <point x="383" y="573"/>
      <point x="482" y="429"/>
      <point x="578" y="429" type="curve" smooth="yes"/>
      <point x="684" y="429"/>
      <point x="803" y="578"/>
    </contour>
  </outline>
</glyph>
<glyph name="exclamdown" format="2">
  <advance width="389"/>
  <unicode hex="00A1"/>
  <outline>
    <contour>
      <point x="228" y="470" type="line"/>
      <point x="206" y="489" type="line"/>
      <point x="178" y="480"/>
      <point x="155" y="468"/>
      <point x="130" y="452" type="curve"/>
      <point x="-48" y="-458" type="line"/>
      <point x="-13" y="-483" type="line"/>
      <point x="34" y="-468"/>
      <point x="120" y="-417"/>
      <point x="162" y="-391" type="curve"/>
    </contour>
    <contour>
      <point x="96" y="669" type="curve"/>
      <point x="96" y="616"/>
      <point x="126" y="578"/>
      <point x="182" y="578" type="curve" smooth="yes"/>
      <point x="268" y="578"/>
      <point x="328" y="671"/>
      <point x="328" y="744" type="curve" smooth="yes"/>
      <point x="328" y="799"/>
      <point x="296" y="837"/>
      <point x="240" y="837" type="curve" smooth="yes"/>
      <point x="153" y="837"/>
      <point x="96" y="743"/>
    </contour>
  </outline>
</glyph>
<glyph name="cent" format="2">
  <advance width="740"/>
  <unicode hex="00A2"/>
  <outline>
    <contour>
      <point x="777" y="842" type="curve"/>
      <point x="740" y="855"/>
      <point x="682" y="949"/>
      <point x="576" y="949" type="curve" smooth="yes"/>
      <point x="503" y="949"/>
      <point x="399" y="918"/>
      <point x="333" y="875" type="curve" smooth="yes"/>
      <point x="156" y="757"/>
      <point x="93" y="585"/>
      <point x="93" y="423" type="curve" smooth="yes"/>
      <point x="93" y="171"/>
      <point x="248" y="99"/>
      <point x="330" y="99" type="curve" smooth="yes"/>
      <point x="418" y="99"/>
      <point x="503" y="125"/>
      <point x="691" y="297" type="curve"/>
      <point x="685" y="307"/>
      <point x="673" y="320"/>
      <point x="663" y="335" type="curve"/>
      <point x="534" y="228"/>
      <point x="464" y="202"/>
      <point x="420" y="202" type="curve" smooth="yes"/>
      <point x="316" y="202"/>
      <point x="225" y="302"/>
      <point x="225" y="459" type="curve" smooth="yes"/>
      <point x="225" y="624"/>
      <point x="320" y="856"/>
      <point x="485" y="856" type="curve" smooth="yes"/>
      <point x="597" y="856"/>
      <point x="622" y="747"/>
      <point x="648" y="747" type="curve" smooth="yes"/>
      <point x="678" y="747"/>
      <point x="726" y="805"/>
    </contour>
    <contour>
      <point x="545" y="1074" type="line"/>
      <point x="527" y="1095" type="line"/>
      <point x="494" y="1085"/>
      <point x="504" y="1089"/>
      <point x="473" y="1067" type="curve"/>
      <point x="324" y="-24" type="line"/>
      <point x="341" y="-44" type="line"/>
      <point x="369" y="-35"/>
      <point x="374" y="-35"/>
      <point x="396" y="-16" type="curve"/>
    </contour>
  </outline>
</glyph>
<glyph name="sterling" format="2">
  <advance width="740"/>
  <unicode hex="00A3"/>
  <outline>
    <contour>
      <point x="749" y="1048" type="curve"/>
      <point x="656" y="1105"/>
      <point x="614" y="1111"/>
      <point x="558" y="1111" type="curve" smooth="yes"/>
      <point x="300" y="1111"/>
      <point x="163" y="887"/>
      <point x="137" y="520" type="curve" smooth="yes"/>
      <point x="110" y="142"/>
      <point x="77" y="111"/>
      <point x="-39" y="17" type="curve"/>
      <point x="-27" y="-27" type="line"/>
      <point x="147" y="85"/>
      <point x="442" y="-89"/>
      <point x="600" y="0" type="curve"/>
      <point x="612" y="35"/>
      <point x="642" y="125"/>
      <point x="665" y="228" type="curve"/>
      <point x="631" y="244" type="line"/>
      <point x="567" y="104"/>
      <point x="528" y="93"/>
      <point x="428" y="90" type="curve" smooth="yes"/>
      <point x="307" y="87"/>
      <point x="277" y="104"/>
      <point x="127" y="90" type="curve"/>
      <point x="202" y="186"/>
      <point x="271" y="349"/>
      <point x="278" y="535" type="curve" smooth="yes"/>
      <point x="293" y="981"/>
      <point x="398" y="1022"/>
      <point x="486" y="1022" type="curve" smooth="yes"/>
      <point x="594" y="1022"/>
      <point x="651" y="958"/>
      <point x="646" y="810" type="curve"/>
      <point x="684" y="810" type="line"/>
      <point x="703" y="855"/>
      <point x="738" y="987"/>
    </contour>
    <contour>
      <point x="500" y="543" type="line"/>
      <point x="482" y="564" type="line"/>
      <point x="54" y="564" type="line"/>
      <point x="45" y="545"/>
      <point x="35" y="523"/>
      <point x="28" y="505" type="curve"/>
      <point x="42" y="483" type="line"/>
      <point x="470" y="483" type="line"/>
    </contour>
  </outline>
</glyph>
<glyph name="currency" format="2">
  <advance width="740"/>
  <unicode hex="00A4"/>
  <outline>
    <contour>
      <point x="409" y="693" type="curve" smooth="yes"/>
      <point x="487" y="693"/>
      <point x="534" y="616"/>
      <point x="523" y="541" type="curve" smooth="yes"/>
      <point x="512" y="459"/>
      <point x="450" y="390"/>
      <point x="367" y="390" type="curve" smooth="yes"/>
      <point x="288" y="390"/>
      <point x="242" y="465"/>
      <point x="251" y="540" type="curve" smooth="yes"/>
      <point x="261" y="625"/>
      <point x="325" y="693"/>
    </contour>
    <contour>
      <point x="173" y="540" type="curve"/>
      <point x="157" y="421"/>
      <point x="229" y="305"/>
      <point x="355" y="305" type="curve" smooth="yes"/>
      <point x="479" y="305"/>
      <point x="583" y="410"/>
      <point x="600" y="540" type="curve" smooth="yes"/>
      <point x="615" y="657"/>
      <point x="545" y="779"/>
      <point x="421" y="779" type="curve" smooth="yes"/>
      <point x="336" y="779"/>
      <point x="192" y="710"/>
    </contour>
    <contour>
      <point x="259" y="443" type="line"/>
      <point x="231" y="441" type="line"/>
      <point x="94" y="310" type="line"/>
      <point x="99" y="291"/>
      <point x="106" y="270"/>
      <point x="112" y="254" type="curve"/>
      <point x="138" y="252" type="line"/>
      <point x="276" y="384" type="line"/>
    </contour>
    <contour>
      <point x="312" y="674" type="line"/>
      <point x="315" y="704" type="line"/>
      <point x="218" y="831" type="line"/>
      <point x="200" y="823"/>
      <point x="172" y="819"/>
      <point x="157" y="810" type="curve"/>
      <point x="151" y="780" type="line"/>
      <point x="254" y="646" type="line"/>
    </contour>
    <contour>
      <point x="619" y="270" type="line"/>
      <point x="621" y="301" type="line"/>
      <point x="518" y="437" type="line"/>
      <point x="501" y="429"/>
      <point x="479" y="418"/>
      <point x="464" y="409" type="curve"/>
      <point x="458" y="378" type="line"/>
      <point x="554" y="252" type="line"/>
    </contour>
    <contour>
      <point x="661" y="829" type="line"/>
      <point x="633" y="828" type="line"/>
      <point x="495" y="696" type="line"/>
      <point x="500" y="678"/>
      <point x="507" y="657"/>
      <point x="513" y="640" type="curve"/>
      <point x="540" y="639" type="line"/>
      <point x="677" y="770" type="line"/>
    </contour>
  </outline>
</glyph>
<glyph name="yen" format="2">
  <advance width="740"/>
  <unicode hex="00A5"/>
  <outline>
    <contour>
      <point x="879" y="1098" type="line"/>
      <point x="598" y="1098" type="line"/>
      <point x="594" y="1061" type="line"/>
      <point x="664" y="1050"/>
      <point x="687" y="1035"/>
      <point x="668" y="1003" type="curve" smooth="yes"/>
      <point x="427" y="591" type="line"/>
      <point x="404" y="707"/>
      <point x="309" y="963"/>
      <point x="240" y="1079" type="curve" smooth="yes"/>
      <point x="227" y="1100"/>
      <point x="213" y="1112"/>
      <point x="200" y="1112" type="curve" smooth="yes"/>
      <point x="161" y="1112"/>
      <point x="75" y="1092"/>
      <point x="19" y="1077" type="curve"/>
      <point x="27" y="1039" type="line"/>
      <point x="99" y="1050"/>
      <point x="122" y="1041"/>
      <point x="143" y="1007" type="curve" smooth="yes"/>
      <point x="213" y="890"/>
      <point x="301" y="650"/>
      <point x="340" y="480" type="curve"/>
      <point x="337" y="459" type="line"/>
      <point x="145" y="459" type="line"/>
      <point x="138" y="441"/>
      <point x="130" y="421"/>
      <point x="123" y="402" type="curve"/>
      <point x="135" y="379" type="line"/>
      <point x="327" y="379" type="line"/>
      <point x="293" y="99" type="line" smooth="yes"/>
      <point x="291" y="83"/>
      <point x="258" y="59"/>
      <point x="169" y="37" type="curve"/>
      <point x="163" y="0" type="line"/>
      <point x="512" y="0" type="line"/>
      <point x="516" y="37" type="line"/>
      <point x="431" y="59"/>
      <point x="405" y="85"/>
      <point x="406" y="99" type="curve" smooth="yes"/>
      <point x="441" y="379" type="line"/>
      <point x="630" y="379" type="line"/>
      <point x="655" y="439" type="line"/>
      <point x="639" y="459" type="line"/>
      <point x="450" y="459" type="line"/>
      <point x="451" y="471" type="line"/>
      <point x="756" y="1003" type="line" smooth="yes"/>
      <point x="774" y="1034"/>
      <point x="809" y="1046"/>
      <point x="874" y="1061" type="curve"/>
    </contour>
  </outline>
</glyph>
<glyph name="brokenbar" format="2">
  <advance width="472"/>
  <unicode hex="00A6"/>
  <outline>
    <contour>
      <point x="445" y="1420" type="line"/>
      <point x="418" y="1440" type="line"/>
      <point x="383" y="1431"/>
      <point x="351" y="1416"/>
      <point x="316" y="1395" type="curve"/>
      <point x="207" y="619" type="line"/>
      <point x="235" y="599" type="line"/>
      <point x="265" y="608"/>
      <point x="315" y="626"/>
      <point x="339" y="645" type="curve"/>
    </contour>
    <contour>
      <point x="298" y="361" type="line"/>
      <point x="269" y="384" type="line"/>
      <point x="234" y="372"/>
      <point x="202" y="358"/>
      <point x="170" y="337" type="curve"/>
      <point x="63" y="-427" type="line"/>
      <point x="89" y="-450" type="line"/>
      <point x="116" y="-441"/>
      <point x="168" y="-420"/>
      <point x="189" y="-404" type="curve"/>
    </contour>
  </outline>
</glyph>
<glyph name="section" format="2">
  <advance width="778"/>
  <unicode hex="00A7"/>
  <outline>
    <contour>
      <point x="315" y="-27" type="curve" smooth="yes"/>
      <point x="378" y="-27"/>
      <point x="595" y="-18"/>
      <point x="630" y="236" type="curve"/>
      <point x="649" y="370"/>
      <point x="552" y="423"/>
      <point x="465" y="476" type="curve"/>
      <point x="317" y="578"/>
      <point x="253" y="630"/>
      <point x="269" y="739" type="curve" smooth="yes"/>
      <point x="276" y="789"/>
      <point x="320" y="882"/>
      <point x="380" y="855" type="curve"/>
      <point x="381" y="855"/>
      <point x="410" y="937"/>
      <point x="413" y="936" type="curve"/>
      <point x="333" y="959"/>
      <point x="177" y="841"/>
      <point x="156" y="697" type="curve" smooth="yes"/>
      <point x="135" y="544"/>
      <point x="212" y="464"/>
      <point x="343" y="377" type="curve" smooth="yes"/>
      <point x="433" y="317"/>
      <point x="531" y="282"/>
      <point x="518" y="186" type="curve" smooth="yes"/>
      <point x="506" y="101"/>
      <point x="445" y="61"/>
      <point x="368" y="61" type="curve" smooth="yes"/>
      <point x="256" y="61"/>
      <point x="182" y="153"/>
      <point x="192" y="253" type="curve"/>
      <point x="158" y="263" type="line"/>
      <point x="135" y="209"/>
      <point x="109" y="54"/>
      <point x="123" y="47" type="curve"/>
      <point x="189" y="3"/>
      <point x="263" y="-27"/>
    </contour>
    <contour>
      <point x="522" y="332" type="curve"/>
      <point x="585" y="333"/>
      <point x="704" y="426"/>
      <point x="728" y="590" type="curve"/>
      <point x="750" y="755"/>
      <point x="657" y="816"/>
      <point x="525" y="908" type="curve" smooth="yes"/>
      <point x="417" y="982"/>
      <point x="363" y="1032"/>
      <point x="375" y="1116" type="curve" smooth="yes"/>
      <point x="384" y="1179"/>
      <point x="432" y="1215"/>
      <point x="503" y="1215" type="curve" smooth="yes"/>
      <point x="556" y="1215"/>
      <point x="608" y="1175"/>
      <point x="648" y="1089" type="curve"/>
      <point x="678" y="1082" type="line"/>
      <point x="695" y="1101"/>
      <point x="749" y="1204"/>
      <point x="738" y="1217" type="curve" smooth="yes"/>
      <point x="700" y="1260"/>
      <point x="603" y="1296"/>
      <point x="536" y="1296" type="curve" smooth="yes"/>
      <point x="414" y="1296"/>
      <point x="286" y="1229"/>
      <point x="265" y="1080" type="curve" smooth="yes"/>
      <point x="248" y="958"/>
      <point x="306" y="872"/>
      <point x="404" y="809" type="curve" smooth="yes"/>
      <point x="558" y="708"/>
      <point x="629" y="645"/>
      <point x="613" y="534" type="curve"/>
      <point x="603" y="462"/>
      <point x="541" y="403"/>
      <point x="464" y="403" type="curve"/>
      <point x="459" y="403"/>
      <point x="519" y="333"/>
    </contour>
  </outline>
</glyph>
<glyph name="dieresis" format="2">
  <advance width="937"/>
  <unicode hex="00A8"/>
  <anchor x="558" y="1217" name="U"/>
  <outline>
    <contour>
      <point x="797" y="1135" type="curve"/>
      <point x="797" y="1176"/>
      <point x="773" y="1199"/>
      <point x="736" y="1199" type="curve" smooth="yes"/>
      <point x="667" y="1199"/>
      <point x="623" y="1122"/>
      <point x="623" y="1058" type="curve" smooth="yes"/>
      <point x="623" y="1017"/>
      <point x="646" y="995"/>
      <point x="683" y="995" type="curve" smooth="yes"/>
      <point x="752" y="995"/>
      <point x="797" y="1069"/>
    </contour>
    <contour>
      <point x="461" y="1135" type="curve"/>
      <point x="461" y="1176"/>
      <point x="439" y="1199"/>
      <point x="402" y="1199" type="curve" smooth="yes"/>
      <point x="334" y="1199"/>
      <point x="288" y="1122"/>
      <point x="288" y="1058" type="curve" smooth="yes"/>
      <point x="288" y="1017"/>
      <point x="310" y="995"/>
      <point x="349" y="995" type="curve" smooth="yes"/>
      <point x="417" y="995"/>
      <point x="461" y="1069"/>
    </contour>
  </outline>
</glyph>
<glyph name="copyright" format="2">
  <advance width="1224"/>
  <unicode hex="00A9"/>
  <outline>
    <contour>
      <point x="1152" y="676" type="curve"/>
      <point x="1152" y="953"/>
      <point x="971" y="1161"/>
      <point x="700" y="1161" type="curve" smooth="yes"/>
      <point x="342" y="1161"/>
      <point x="84" y="809"/>
      <point x="84" y="473" type="curve" smooth="yes"/>
      <point x="84" y="191"/>
      <point x="260" y="-27"/>
      <point x="534" y="-27" type="curve" smooth="yes"/>
      <point x="905" y="-27"/>
      <point x="1152" y="333"/>
    </contour>
    <contour>
      <point x="1080" y="647" type="curve"/>
      <point x="1080" y="355"/>
      <point x="855" y="49"/>
      <point x="545" y="49" type="curve" smooth="yes"/>
      <point x="304" y="49"/>
      <point x="154" y="246"/>
      <point x="154" y="490" type="curve" smooth="yes"/>
      <point x="154" y="779"/>
      <point x="383" y="1083"/>
      <point x="691" y="1083" type="curve" smooth="yes"/>
      <point x="930" y="1083"/>
      <point x="1080" y="890"/>
    </contour>
    <contour>
      <point x="912" y="847" type="curve"/>
      <point x="879" y="858"/>
      <point x="826" y="939"/>
      <point x="728" y="939" type="curve" smooth="yes"/>
      <point x="659" y="939"/>
      <point x="561" y="911"/>
      <point x="504" y="868" type="curve" smooth="yes"/>
      <point x="351" y="750"/>
      <point x="302" y="610"/>
      <point x="302" y="473" type="curve" smooth="yes"/>
      <point x="302" y="261"/>
      <point x="448" y="200"/>
      <point x="522" y="200" type="curve" smooth="yes"/>
      <point x="603" y="200"/>
      <point x="678" y="223"/>
      <point x="851" y="367" type="curve"/>
      <point x="846" y="376"/>
      <point x="836" y="388"/>
      <point x="826" y="399" type="curve"/>
      <point x="705" y="309"/>
      <point x="643" y="283"/>
      <point x="604" y="283" type="curve" smooth="yes"/>
      <point x="503" y="283"/>
      <point x="414" y="372"/>
      <point x="414" y="503" type="curve" smooth="yes"/>
      <point x="414" y="643"/>
      <point x="501" y="866"/>
      <point x="652" y="866" type="curve" smooth="yes"/>
      <point x="733" y="866"/>
      <point x="772" y="784"/>
      <point x="796" y="784" type="curve" smooth="yes"/>
      <point x="823" y="784"/>
      <point x="871" y="818"/>
    </contour>
  </outline>
</glyph>
<glyph name="ordfeminine" format="2">
  <advance width="527"/>
  <unicode hex="00AA"/>
  <outline>
    <contour>
      <point x="506" y="691" type="curve"/>
      <point x="499" y="709" type="line"/>
      <point x="473" y="698"/>
      <point x="457" y="696"/>
      <point x="444" y="696" type="curve" smooth="yes"/>
      <point x="429" y="696"/>
      <point x="422" y="720"/>
      <point x="422" y="794" type="curve" smooth="yes"/>
      <point x="422" y="823"/>
      <point x="434" y="936"/>
      <point x="455" y="1028" type="curve" smooth="yes"/>
      <point x="464" y="1071"/>
      <point x="469" y="1078"/>
      <point x="492" y="1095" type="curve"/>
      <point x="483" y="1113" type="line"/>
      <point x="438" y="1092"/>
      <point x="396" y="1058"/>
      <point x="388" y="1028" type="curve" smooth="yes"/>
      <point x="381" y="990"/>
      <point x="353" y="833"/>
      <point x="353" y="796" type="curve" smooth="yes"/>
      <point x="353" y="666"/>
      <point x="374" y="641"/>
      <point x="397" y="641" type="curve" smooth="yes"/>
      <point x="416" y="641"/>
      <point x="451" y="656"/>
    </contour>
    <contour>
      <point x="466" y="1067" type="curve"/>
      <point x="444" y="1071"/>
      <point x="405" y="1113"/>
      <point x="360" y="1113" type="curve" smooth="yes"/>
      <point x="322" y="1113"/>
      <point x="270" y="1090"/>
      <point x="235" y="1067" type="curve" smooth="yes"/>
      <point x="144" y="1004"/>
      <point x="95" y="910"/>
      <point x="95" y="807" type="curve" smooth="yes"/>
      <point x="95" y="687"/>
      <point x="156" y="641"/>
      <point x="198" y="641" type="curve" smooth="yes"/>
      <point x="254" y="641"/>
      <point x="324" y="735"/>
      <point x="355" y="794" type="curve"/>
      <point x="369" y="881" type="line"/>
      <point x="332" y="803"/>
      <point x="263" y="705"/>
      <point x="230" y="705" type="curve" smooth="yes"/>
      <point x="191" y="705"/>
      <point x="162" y="759"/>
      <point x="162" y="844" type="curve" smooth="yes"/>
      <point x="162" y="919"/>
      <point x="223" y="1062"/>
      <point x="311" y="1062" type="curve" smooth="yes"/>
      <point x="365" y="1062"/>
      <point x="404" y="1008"/>
      <point x="422" y="1008" type="curve" smooth="yes"/>
      <point x="436" y="1008"/>
      <point x="438" y="1048"/>
    </contour>
    <contour>
      <point x="494" y="571" type="curve"/>
      <point x="477" y="593" type="line"/>
      <point x="73" y="593" type="line"/>
      <point x="66" y="575"/>
      <point x="59" y="564"/>
      <point x="53" y="545" type="curve"/>
      <point x="68" y="527" type="line"/>
      <point x="473" y="527" type="line"/>
      <point x="478" y="543"/>
      <point x="488" y="552"/>
    </contour>
  </outline>
</glyph>
<glyph name="guillemetleft" format="2">
  <advance width="793"/>
  <unicode hex="00AB"/>
  <outline>
    <contour>
      <point x="585" y="6" type="line"/>
      <point x="623" y="32" type="line"/>
      <point x="490" y="405" type="line"/>
      <point x="487" y="403"/>
      <point x="724" y="774"/>
      <point x="723" y="774" type="curve"/>
      <point x="693" y="800" type="line"/>
      <point x="358" y="436" type="line"/>
      <point x="355" y="433"/>
      <point x="347" y="372"/>
      <point x="347" y="372" type="curve"/>
    </contour>
    <contour>
      <point x="290" y="6" type="line"/>
      <point x="328" y="32" type="line"/>
      <point x="195" y="405" type="line"/>
      <point x="192" y="403"/>
      <point x="429" y="774"/>
      <point x="428" y="774" type="curve"/>
      <point x="397" y="800" type="line"/>
      <point x="63" y="436" type="line"/>
      <point x="60" y="433"/>
      <point x="52" y="372"/>
      <point x="52" y="372" type="curve"/>
    </contour>
  </outline>
</glyph>
<glyph name="logicalnot" format="2">
  <advance width="740"/>
  <unicode hex="00AC"/>
  <outline>
    <contour>
      <point x="685" y="536" type="line"/>
      <point x="665" y="556" type="line"/>
      <point x="665" y="556"/>
      <point x="738" y="556"/>
      <point x="82" y="556" type="curve"/>
      <point x="70" y="532"/>
      <point x="54" y="501"/>
      <point x="45" y="477" type="curve"/>
      <point x="63" y="455" type="line"/>
      <point x="573" y="455" type="line"/>
      <point x="545" y="267" type="line"/>
      <point x="564" y="244" type="line"/>
      <point x="593" y="254"/>
      <point x="628" y="272"/>
      <point x="652" y="291" type="curve"/>
    </contour>
  </outline>
</glyph>
<glyph name="registered" format="2">
  <advance width="633"/>
  <unicode hex="00AE"/>
  <outline>
    <contour>
      <point x="668" y="975" type="curve"/>
      <point x="692" y="1152"/>
      <point x="597" y="1291"/>
      <point x="438" y="1291" type="curve" smooth="yes"/>
      <point x="279" y="1291"/>
      <point x="145" y="1151"/>
      <point x="121" y="975" type="curve" smooth="yes"/>
      <point x="97" y="799"/>
      <point x="191" y="659"/>
      <point x="351" y="659" type="curve" smooth="yes"/>
      <point x="510" y="659"/>
      <point x="644" y="799"/>
    </contour>
    <contour>
      <point x="614" y="975" type="curve"/>
      <point x="594" y="832"/>
      <point x="494" y="713"/>
      <point x="360" y="713" type="curve" smooth="yes"/>
      <point x="228" y="713"/>
      <point x="154" y="832"/>
      <point x="174" y="975" type="curve" smooth="yes"/>
      <point x="194" y="1117"/>
      <point x="294" y="1237"/>
      <point x="426" y="1237" type="curve" smooth="yes"/>
      <point x="559" y="1237"/>
      <point x="634" y="1117"/>
    </contour>
    <contour>
      <point x="520" y="1067" type="curve"/>
      <point x="527" y="1116"/>
      <point x="491" y="1163"/>
      <point x="405" y="1163" type="curve" smooth="yes"/>
      <point x="361" y="1163"/>
      <point x="325" y="1154"/>
      <point x="292" y="1146" type="curve"/>
      <point x="291" y="1118" type="line"/>
      <point x="325" y="1123"/>
      <point x="362" y="1129"/>
      <point x="392" y="1129" type="curve" smooth="yes"/>
      <point x="452" y="1129"/>
      <point x="469" y="1094"/>
      <point x="464" y="1059" type="curve" smooth="yes"/>
      <point x="458" y="1012"/>
      <point x="429" y="997"/>
      <point x="378" y="997" type="curve" smooth="yes"/>
      <point x="368" y="997"/>
      <point x="360" y="998"/>
      <point x="349" y="1001" type="curve"/>
      <point x="346" y="966" type="line"/>
      <point x="357" y="963"/>
      <point x="367" y="961"/>
      <point x="376" y="961" type="curve" smooth="yes"/>
      <point x="446" y="961"/>
      <point x="510" y="995"/>
    </contour>
    <contour>
      <point x="534" y="821" type="line"/>
      <point x="531" y="837" type="line"/>
      <point x="508" y="828"/>
      <point x="497" y="830"/>
      <point x="491" y="842" type="curve" smooth="yes"/>
      <point x="414" y="988" type="line"/>
      <point x="375" y="971" type="line"/>
      <point x="441" y="807" type="line" smooth="yes"/>
      <point x="444" y="800"/>
      <point x="454" y="791"/>
      <point x="464" y="791" type="curve" smooth="yes"/>
      <point x="476" y="791"/>
      <point x="512" y="808"/>
      <point x="531" y="819" type="curve"/>
    </contour>
    <contour>
      <point x="364" y="797" type="line"/>
      <point x="366" y="815" type="line"/>
      <point x="343" y="821"/>
      <point x="334" y="828"/>
      <point x="335" y="832" type="curve" smooth="yes"/>
      <point x="378" y="1143" type="line"/>
      <point x="327" y="1143" type="line"/>
      <point x="284" y="832" type="line" smooth="yes"/>
      <point x="283" y="827"/>
      <point x="271" y="821"/>
      <point x="248" y="815" type="curve"/>
      <point x="246" y="797" type="line"/>
    </contour>
  </outline>
</glyph>
<glyph name="macron" format="2">
  <advance width="751"/>
  <unicode hex="00AF"/>
  <outline>
    <contour>
      <point x="788" y="1138" type="curve"/>
      <point x="769" y="1163" type="line"/>
      <point x="229" y="1163" type="line"/>
      <point x="216" y="1139"/>
      <point x="190" y="1089"/>
      <point x="181" y="1065" type="curve"/>
      <point x="198" y="1041" type="line"/>
      <point x="739" y="1041" type="line"/>
      <point x="751" y="1061"/>
      <point x="780" y="1112"/>
    </contour>
  </outline>
</glyph>
<glyph name="degree" format="2">
  <advance width="565"/>
  <unicode hex="00B0"/>
  <outline>
    <contour>
      <point x="552" y="965" type="curve" smooth="yes"/>
      <point x="552" y="1046"/>
      <point x="495" y="1111"/>
      <point x="419" y="1111" type="curve" smooth="yes"/>
      <point x="315" y="1111"/>
      <point x="160" y="983"/>
      <point x="160" y="826" type="curve" smooth="yes"/>
      <point x="160" y="746"/>
      <point x="213" y="683"/>
      <point x="293" y="683" type="curve" smooth="yes"/>
      <point x="383" y="683"/>
      <point x="552" y="796"/>
    </contour>
    <contour>
      <point x="325" y="765" type="curve" smooth="yes"/>
      <point x="279" y="765"/>
      <point x="255" y="813"/>
      <point x="255" y="869" type="curve" smooth="yes"/>
      <point x="255" y="955"/>
      <point x="322" y="1027"/>
      <point x="386" y="1027" type="curve" smooth="yes"/>
      <point x="432" y="1027"/>
      <point x="458" y="982"/>
      <point x="458" y="925" type="curve" smooth="yes"/>
      <point x="458" y="857"/>
      <point x="409" y="765"/>
    </contour>
  </outline>
</glyph>
<glyph name="plusminus" format="2">
  <advance width="693"/>
  <unicode hex="00B1"/>
  <outline>
    <contour>
      <point x="465" y="874" type="line"/>
      <point x="445" y="895" type="line"/>
      <point x="422" y="889"/>
      <point x="378" y="876"/>
      <point x="358" y="869" type="curve"/>
      <point x="282" y="325" type="line"/>
      <point x="301" y="306" type="line"/>
      <point x="325" y="311"/>
      <point x="368" y="322"/>
      <point x="389" y="333" type="curve"/>
    </contour>
    <contour>
      <point x="604" y="230" type="curve"/>
      <point x="588" y="252" type="line"/>
      <point x="61" y="252" type="line"/>
      <point x="48" y="228"/>
      <point x="33" y="194"/>
      <point x="24" y="170" type="curve"/>
      <point x="41" y="148" type="line"/>
      <point x="569" y="148" type="line"/>
      <point x="580" y="168"/>
      <point x="597" y="206"/>
    </contour>
    <contour>
      <point x="660" y="630" type="curve"/>
      <point x="644" y="652" type="line"/>
      <point x="117" y="652" type="line"/>
      <point x="104" y="629"/>
      <point x="89" y="594"/>
      <point x="80" y="570" type="curve"/>
      <point x="97" y="549" type="line"/>
      <point x="625" y="549" type="line"/>
      <point x="636" y="568"/>
      <point x="653" y="606"/>
    </contour>
  </outline>
</glyph>
<glyph name="twosuperior" format="2">
  <advance width="518"/>
  <unicode hex="00B2"/>
  <anchor x="362" y="1260" name="U"/>
  <outline>
    <contour>
      <point x="543" y="1090" type="curve"/>
      <point x="543" y="1176"/>
      <point x="474" y="1215"/>
      <point x="381" y="1214" type="curve" smooth="yes"/>
      <point x="253" y="1211"/>
      <point x="135" y="1116"/>
      <point x="124" y="1041" type="curve"/>
      <point x="137" y="1025" type="line"/>
      <point x="171" y="1028"/>
      <point x="206" y="1037"/>
      <point x="233" y="1051" type="curve"/>
      <point x="240" y="1102"/>
      <point x="277" y="1154"/>
      <point x="339" y="1154" type="curve" smooth="yes"/>
      <point x="400" y="1154"/>
      <point x="435" y="1126"/>
      <point x="435" y="1074" type="curve" smooth="yes"/>
      <point x="435" y="983"/>
      <point x="345" y="856"/>
      <point x="40" y="595" type="curve"/>
      <point x="49" y="547" type="line"/>
      <point x="458" y="547" type="line"/>
      <point x="490" y="702" type="line"/>
      <point x="454" y="708" type="line"/>
      <point x="454" y="708"/>
      <point x="430" y="618"/>
      <point x="379" y="618" type="curve" smooth="yes"/>
      <point x="153" y="618" type="line"/>
      <point x="461" y="891"/>
      <point x="543" y="1000"/>
    </contour>
  </outline>
</glyph>
<glyph name="SupThree" format="2">
  <advance width="543"/>
  <unicode hex="00B3"/>
  <outline>
    <contour>
      <point x="536" y="1090" type="curve"/>
      <point x="536" y="1152"/>
      <point x="491" y="1216"/>
      <point x="371" y="1216" type="curve" smooth="yes"/>
      <point x="246" y="1216"/>
      <point x="135" y="1126"/>
      <point x="125" y="1066" type="curve"/>
      <point x="139" y="1043" type="line"/>
      <point x="175" y="1046"/>
      <point x="222" y="1056"/>
      <point x="252" y="1070" type="curve"/>
      <point x="248" y="1119"/>
      <point x="287" y="1153"/>
      <point x="333" y="1153" type="curve" smooth="yes"/>
      <point x="387" y="1153"/>
      <point x="409" y="1117"/>
      <point x="409" y="1075" type="curve" smooth="yes"/>
      <point x="409" y="989"/>
      <point x="345" y="946"/>
      <point x="239" y="920" type="curve"/>
      <point x="242" y="873" type="line"/>
      <point x="266" y="876"/>
      <point x="263" y="876"/>
      <point x="283" y="876" type="curve" smooth="yes"/>
      <point x="340" y="876"/>
      <point x="392" y="847"/>
      <point x="393" y="766" type="curve" smooth="yes"/>
      <point x="393" y="673"/>
      <point x="330" y="605"/>
      <point x="232" y="605" type="curve" smooth="yes"/>
      <point x="181" y="605"/>
      <point x="135" y="621"/>
      <point x="71" y="670" type="curve"/>
      <point x="44" y="616" type="line"/>
      <point x="107" y="558"/>
      <point x="179" y="533"/>
      <point x="239" y="533" type="curve" smooth="yes"/>
      <point x="406" y="533"/>
      <point x="523" y="646"/>
      <point x="523" y="782" type="curve" smooth="yes"/>
      <point x="523" y="851"/>
      <point x="478" y="918"/>
      <point x="398" y="927" type="curve"/>
      <point x="477" y="953"/>
      <point x="536" y="1013"/>
    </contour>
  </outline>
</glyph>
<glyph name="threesuperior" format="2">
  <advance width="518"/>
  <unicode hex="00B3"/>
  <anchor x="362" y="1260" name="U"/>
  <outline>
    <contour>
      <point x="511" y="1088" type="curve"/>
      <point x="511" y="1152"/>
      <point x="463" y="1214"/>
      <point x="352" y="1214" type="curve" smooth="yes"/>
      <point x="236" y="1214"/>
      <point x="126" y="1128"/>
      <point x="116" y="1068" type="curve"/>
      <point x="129" y="1051" type="line"/>
      <point x="162" y="1053"/>
      <point x="201" y="1060"/>
      <point x="230" y="1072" type="curve"/>
      <point x="228" y="1121"/>
      <point x="267" y="1154"/>
      <point x="317" y="1154" type="curve" smooth="yes"/>
      <point x="376" y="1154"/>
      <point x="403" y="1117"/>
      <point x="403" y="1072" type="curve" smooth="yes"/>
      <point x="403" y="977"/>
      <point x="324" y="941"/>
      <point x="227" y="917" type="curve"/>
      <point x="231" y="875" type="line"/>
      <point x="254" y="879"/>
      <point x="248" y="879"/>
      <point x="268" y="879" type="curve" smooth="yes"/>
      <point x="329" y="879"/>
      <point x="385" y="846"/>
      <point x="385" y="764" type="curve" smooth="yes"/>
      <point x="385" y="670"/>
      <point x="323" y="594"/>
      <point x="213" y="594" type="curve" smooth="yes"/>
      <point x="163" y="594"/>
      <point x="121" y="608"/>
      <point x="57" y="657" type="curve"/>
      <point x="33" y="611" type="line"/>
      <point x="96" y="554"/>
      <point x="160" y="530"/>
      <point x="219" y="530" type="curve" smooth="yes"/>
      <point x="388" y="530"/>
      <point x="495" y="643"/>
      <point x="495" y="778" type="curve" smooth="yes"/>
      <point x="495" y="850"/>
      <point x="447" y="915"/>
      <point x="371" y="924" type="curve"/>
      <point x="452" y="953"/>
      <point x="511" y="1009"/>
    </contour>
  </outline>
</glyph>
<glyph name="acute" format="2">
  <advance width="545"/>
  <unicode hex="00B4"/>
  <anchor x="275" y="1233" name="U"/>
  <outline>
    <contour>
      <point x="501" y="1277" type="line"/>
      <point x="481" y="1288"/>
      <point x="423" y="1306"/>
      <point x="399" y="1313" type="curve"/>
      <point x="154" y="954" type="line"/>
      <point x="171" y="934"/>
      <point x="176" y="927"/>
      <point x="195" y="923" type="curve"/>
      <point x="514" y="1236" type="line"/>
    </contour>
  </outline>
</glyph>
<glyph name="mu" format="2">
  <advance width="945"/>
  <unicode hex="00B5"/>
  <outline>
    <contour>
      <point x="919" y="193" type="curve"/>
      <point x="888" y="219" type="line"/>
      <point x="818" y="110"/>
      <point x="801" y="107"/>
      <point x="777" y="107" type="curve" smooth="yes"/>
      <point x="759" y="107"/>
      <point x="744" y="119"/>
      <point x="744" y="228" type="curve" smooth="yes"/>
      <point x="744" y="346"/>
      <point x="814" y="702"/>
      <point x="837" y="807" type="curve"/>
      <point x="833" y="818"/>
      <point x="828" y="829"/>
      <point x="818" y="842" type="curve"/>
      <point x="768" y="829"/>
      <point x="703" y="805"/>
      <point x="661" y="789" type="curve"/>
      <point x="673" y="766"/>
      <point x="676" y="722"/>
      <point x="676" y="684" type="curve" smooth="yes"/>
      <point x="676" y="595"/>
      <point x="612" y="297"/>
      <point x="612" y="236" type="curve" smooth="yes"/>
      <point x="612" y="54"/>
      <point x="639" y="-36"/>
      <point x="691" y="-36" type="curve" smooth="yes"/>
      <point x="766" y="-36"/>
      <point x="819" y="9"/>
    </contour>
    <contour>
      <point x="695" y="516" type="line"/>
      <point x="572" y="230"/>
      <point x="460" y="107"/>
      <point x="372" y="107" type="curve" smooth="yes"/>
      <point x="309" y="107"/>
      <point x="264" y="200"/>
      <point x="264" y="332" type="curve" smooth="yes"/>
      <point x="264" y="429"/>
      <point x="320" y="661"/>
      <point x="320" y="766" type="curve" smooth="yes"/>
      <point x="320" y="821"/>
      <point x="311" y="842"/>
      <point x="278" y="842" type="curve" smooth="yes"/>
      <point x="248" y="842"/>
      <point x="138" y="801"/>
      <point x="36" y="756" type="curve"/>
      <point x="49" y="722" type="line"/>
      <point x="49" y="722"/>
      <point x="119" y="744"/>
      <point x="142" y="744" type="curve" smooth="yes"/>
      <point x="162" y="744"/>
      <point x="177" y="738"/>
      <point x="177" y="684" type="curve" smooth="yes"/>
      <point x="177" y="595"/>
      <point x="140" y="438"/>
      <point x="140" y="332" type="curve" smooth="yes"/>
      <point x="140" y="126"/>
      <point x="223" y="-36"/>
      <point x="342" y="-36" type="curve" smooth="yes"/>
      <point x="471" y="-36"/>
      <point x="585" y="144"/>
      <point x="688" y="376" type="curve"/>
    </contour>
    <contour>
      <point x="206" y="397" type="curve"/>
      <point x="206" y="444"/>
      <point x="162" y="536"/>
      <point x="162" y="536" type="curve"/>
      <point x="137" y="332"/>
      <point x="37" y="-180"/>
      <point x="6" y="-423" type="curve"/>
      <point x="36" y="-450" type="line"/>
      <point x="65" y="-434"/>
      <point x="162" y="-391"/>
      <point x="197" y="-378" type="curve"/>
      <point x="184" y="-345"/>
      <point x="125" y="-153"/>
      <point x="158" y="93" type="curve"/>
      <point x="179" y="232"/>
      <point x="184" y="289"/>
    </contour>
  </outline>
</glyph>
<glyph name="paragraph" format="2">
  <advance width="918"/>
  <unicode hex="00B6"/>
  <outline>
    <contour>
      <point x="936" y="1134" type="line"/>
      <point x="877" y="1134" type="line"/>
      <point x="877" y="1134"/>
      <point x="612" y="1161"/>
      <point x="513" y="1161" type="curve" smooth="yes"/>
      <point x="289" y="1161"/>
      <point x="112" y="1017"/>
      <point x="82" y="812" type="curve"/>
      <point x="51" y="587"/>
      <point x="206" y="473"/>
      <point x="414" y="473" type="curve" smooth="yes"/>
      <point x="445" y="473"/>
      <point x="468" y="475"/>
      <point x="489" y="478" type="curve"/>
      <point x="404" y="-130" type="line"/>
      <point x="399" y="-147"/>
      <point x="351" y="-169"/>
      <point x="274" y="-186" type="curve"/>
      <point x="269" y="-225" type="line"/>
      <point x="746" y="-225" type="line"/>
      <point x="752" y="-186" type="line"/>
      <point x="673" y="-169"/>
      <point x="636" y="-145"/>
      <point x="638" y="-130" type="curve" smooth="yes"/>
      <point x="801" y="1039" type="line"/>
      <point x="803" y="1056"/>
      <point x="853" y="1078"/>
      <point x="930" y="1095" type="curve"/>
    </contour>
    <contour>
      <point x="460" y="549" type="line"/>
      <point x="267" y="549"/>
      <point x="206" y="713"/>
      <point x="226" y="844" type="curve"/>
      <point x="244" y="978"/>
      <point x="353" y="1085"/>
      <point x="488" y="1085" type="curve" smooth="yes"/>
      <point x="512" y="1085"/>
      <point x="540" y="1083"/>
      <point x="574" y="1080" type="curve"/>
      <point x="499" y="549" type="line"/>
    </contour>
    <contour>
      <point x="719" y="1044" type="curve"/>
      <point x="552" y="-130" type="line" smooth="yes"/>
      <point x="550" y="-144"/>
      <point x="529" y="-154"/>
      <point x="515" y="-158" type="curve"/>
      <point x="504" y="-154"/>
      <point x="486" y="-144"/>
      <point x="488" y="-130" type="curve" smooth="yes"/>
      <point x="654" y="1063" type="line"/>
      <point x="675" y="1058"/>
      <point x="697" y="1052"/>
    </contour>
  </outline>
</glyph>
<glyph name="periodcentered" format="2">
  <advance width="369"/>
  <unicode hex="00B7"/>
  <outline>
    <contour>
      <point x="302" y="610" type="curve"/>
      <point x="302" y="659"/>
      <point x="273" y="694"/>
      <point x="228" y="694" type="curve" smooth="yes"/>
      <point x="153" y="694"/>
      <point x="94" y="604"/>
      <point x="94" y="536" type="curve" smooth="yes"/>
      <point x="94" y="483"/>
      <point x="122" y="448"/>
      <point x="170" y="448" type="curve" smooth="yes"/>
      <point x="251" y="448"/>
      <point x="302" y="538"/>
    </contour>
  </outline>
</glyph>
<glyph name="cedilla" format="2">
  <advance width="291"/>
  <unicode hex="00B8"/>
  <outline>
    <contour>
      <point x="198" y="-198" type="curve"/>
      <point x="198" y="-140"/>
      <point x="155" y="-103"/>
      <point x="94" y="-101" type="curve"/>
      <point x="103" y="-72"/>
      <point x="117" y="-4"/>
      <point x="127" y="45" type="curve"/>
      <point x="66" y="46" type="line"/>
      <point x="54" y="-20"/>
      <point x="33" y="-103"/>
      <point x="0" y="-193" type="curve"/>
      <point x="55" y="-191"/>
      <point x="83" y="-209"/>
      <point x="83" y="-241" type="curve" smooth="yes"/>
      <point x="83" y="-298"/>
      <point x="11" y="-360"/>
      <point x="-113" y="-302" type="curve"/>
      <point x="-111" y="-337" type="line"/>
      <point x="33" y="-422"/>
      <point x="198" y="-325"/>
    </contour>
  </outline>
</glyph>
<glyph name="onesuperior" format="2">
  <advance width="518"/>
  <unicode hex="00B9"/>
  <anchor x="362" y="1260" name="U"/>
  <outline>
    <contour>
      <point x="467" y="585" type="line"/>
      <point x="354" y="598"/>
      <point x="339" y="619"/>
      <point x="342" y="633" type="curve" smooth="yes"/>
      <point x="431" y="1200" type="line"/>
      <point x="414" y="1219" type="line"/>
      <point x="359" y="1193"/>
      <point x="219" y="1144"/>
      <point x="154" y="1127" type="curve"/>
      <point x="162" y="1090" type="line"/>
      <point x="263" y="1111"/>
      <point x="295" y="1107"/>
      <point x="302" y="1098" type="curve" smooth="yes"/>
      <point x="310" y="1089"/>
      <point x="308" y="1074"/>
      <point x="304" y="1045" type="curve" smooth="yes"/>
      <point x="238" y="633" type="line" smooth="yes"/>
      <point x="235" y="618"/>
      <point x="207" y="598"/>
      <point x="86" y="585" type="curve"/>
      <point x="80" y="547" type="line"/>
      <point x="459" y="547" type="line"/>
    </contour>
  </outline>
</glyph>
<glyph name="ordmasculine" format="2">
  <advance width="457"/>
  <unicode hex="00BA"/>
  <outline>
    <contour>
      <point x="466" y="930" type="curve"/>
      <point x="466" y="1037"/>
      <point x="429" y="1113"/>
      <point x="325" y="1113" type="curve" smooth="yes"/>
      <point x="287" y="1113"/>
      <point x="244" y="1092"/>
      <point x="212" y="1067" type="curve" smooth="yes"/>
      <point x="126" y="1000"/>
      <point x="99" y="919"/>
      <point x="99" y="828" type="curve" smooth="yes"/>
      <point x="99" y="720"/>
      <point x="151" y="641"/>
      <point x="241" y="641" type="curve" smooth="yes"/>
      <point x="279" y="641"/>
      <point x="320" y="663"/>
      <point x="355" y="691" type="curve" smooth="yes"/>
      <point x="427" y="750"/>
      <point x="466" y="844"/>
    </contour>
    <contour>
      <point x="422" y="571" type="curve"/>
      <point x="405" y="593" type="line"/>
      <point x="73" y="593" type="line"/>
      <point x="66" y="575"/>
      <point x="59" y="564"/>
      <point x="53" y="545" type="curve"/>
      <point x="68" y="527" type="line"/>
      <point x="401" y="527" type="line"/>
      <point x="407" y="543"/>
      <point x="416" y="552"/>
    </contour>
    <contour>
      <point x="396" y="905" type="curve"/>
      <point x="396" y="826"/>
      <point x="362" y="694"/>
      <point x="272" y="694" type="curve" smooth="yes"/>
      <point x="214" y="694"/>
      <point x="167" y="768"/>
      <point x="167" y="853" type="curve" smooth="yes"/>
      <point x="167" y="936"/>
      <point x="198" y="1058"/>
      <point x="293" y="1058" type="curve" smooth="yes"/>
      <point x="357" y="1058"/>
      <point x="396" y="1002"/>
    </contour>
  </outline>
</glyph>
<glyph name="guillemetright" format="2">
  <advance width="793"/>
  <unicode hex="00BB"/>
  <outline>
    <contour>
      <point x="430" y="436" type="curve"/>
      <point x="192" y="800" type="line"/>
      <point x="154" y="774" type="line"/>
      <point x="153" y="774"/>
      <point x="291" y="403"/>
      <point x="288" y="405" type="curve"/>
      <point x="54" y="32" type="line"/>
      <point x="84" y="6" type="line"/>
      <point x="423" y="372" type="line"/>
      <point x="423" y="372"/>
      <point x="431" y="433"/>
    </contour>
    <contour>
      <point x="725" y="436" type="curve"/>
      <point x="487" y="800" type="line"/>
      <point x="450" y="774" type="line"/>
      <point x="449" y="774"/>
      <point x="586" y="403"/>
      <point x="584" y="405" type="curve"/>
      <point x="349" y="32" type="line"/>
      <point x="379" y="6" type="line"/>
      <point x="718" y="372" type="line"/>
      <point x="718" y="372"/>
      <point x="726" y="433"/>
    </contour>
  </outline>
</glyph>
<glyph name="onequarter" format="2">
  <advance width="999"/>
  <unicode hex="00BC"/>
  <outline>
    <contour>
      <point x="981" y="1086" type="line"/>
      <point x="963" y="1111" type="line"/>
      <point x="939" y="1106"/>
      <point x="909" y="1092"/>
      <point x="888" y="1082" type="curve"/>
      <point x="115" y="0" type="line"/>
      <point x="131" y="-27" type="line"/>
      <point x="162" y="-18"/>
      <point x="184" y="-10"/>
      <point x="211" y="2" type="curve"/>
    </contour>
    <contour>
      <point x="884" y="189" type="curve"/>
      <point x="873" y="203" type="line"/>
      <point x="824" y="203" type="line"/>
      <point x="869" y="522" type="line"/>
      <point x="855" y="538" type="line"/>
      <point x="835" y="529"/>
      <point x="802" y="517"/>
      <point x="776" y="506" type="curve"/>
      <point x="500" y="162" type="line"/>
      <point x="513" y="147" type="line"/>
      <point x="740" y="147" type="line"/>
      <point x="727" y="56" type="line"/>
      <point x="726" y="46"/>
      <point x="713" y="37"/>
      <point x="633" y="26" type="curve"/>
      <point x="630" y="0" type="line"/>
      <point x="853" y="0" type="line"/>
      <point x="856" y="26" type="line"/>
      <point x="807" y="36"/>
      <point x="801" y="43"/>
      <point x="803" y="52" type="curve" smooth="yes"/>
      <point x="817" y="147" type="line"/>
      <point x="842" y="147" type="line"/>
      <point x="856" y="157"/>
      <point x="868" y="171"/>
    </contour>
    <contour>
      <point x="747" y="203" type="line"/>
      <point x="584" y="203" type="line"/>
      <point x="782" y="441" type="line"/>
    </contour>
    <contour>
      <point x="410" y="573" type="line"/>
      <point x="414" y="603" type="line"/>
      <point x="324" y="614"/>
      <point x="311" y="630"/>
      <point x="313" y="642" type="curve" smooth="yes"/>
      <point x="377" y="1096" type="line"/>
      <point x="362" y="1111" type="line"/>
      <point x="319" y="1089"/>
      <point x="209" y="1051"/>
      <point x="156" y="1037" type="curve"/>
      <point x="162" y="1008" type="line"/>
      <point x="244" y="1025"/>
      <point x="269" y="1021"/>
      <point x="275" y="1014" type="curve" smooth="yes"/>
      <point x="282" y="1007"/>
      <point x="280" y="995"/>
      <point x="277" y="972" type="curve" smooth="yes"/>
      <point x="231" y="642" type="line" smooth="yes"/>
      <point x="229" y="630"/>
      <point x="206" y="614"/>
      <point x="109" y="603" type="curve"/>
      <point x="105" y="573" type="line"/>
    </contour>
  </outline>
</glyph>
<glyph name="onehalf" format="2">
  <advance width="1021"/>
  <unicode hex="00BD"/>
  <outline>
    <contour>
      <point x="1013" y="1086" type="line"/>
      <point x="995" y="1111" type="line"/>
      <point x="971" y="1106"/>
      <point x="931" y="1092"/>
      <point x="909" y="1082" type="curve"/>
      <point x="97" y="0" type="line"/>
      <point x="113" y="-27" type="line"/>
      <point x="144" y="-18"/>
      <point x="177" y="-10"/>
      <point x="204" y="2" type="curve"/>
    </contour>
    <contour>
      <point x="441" y="573" type="line"/>
      <point x="445" y="606" type="line"/>
      <point x="355" y="617"/>
      <point x="339" y="633"/>
      <point x="341" y="645" type="curve" smooth="yes"/>
      <point x="407" y="1095" type="line"/>
      <point x="391" y="1111" type="line"/>
      <point x="346" y="1090"/>
      <point x="225" y="1050"/>
      <point x="171" y="1037" type="curve"/>
      <point x="177" y="1005" type="line"/>
      <point x="261" y="1022"/>
      <point x="286" y="1019"/>
      <point x="293" y="1011" type="curve" smooth="yes"/>
      <point x="300" y="1004"/>
      <point x="298" y="992"/>
      <point x="294" y="969" type="curve" smooth="yes"/>
      <point x="247" y="645" type="line" smooth="yes"/>
      <point x="246" y="632"/>
      <point x="220" y="617"/>
      <point x="122" y="606" type="curve"/>
      <point x="117" y="573" type="line"/>
    </contour>
    <contour>
      <point x="923" y="133" type="line"/>
      <point x="891" y="139" type="line"/>
      <point x="891" y="139"/>
      <point x="876" y="65"/>
      <point x="833" y="65" type="curve" smooth="yes"/>
      <point x="654" y="65" type="line"/>
      <point x="882" y="275"/>
      <point x="950" y="343"/>
      <point x="958" y="419" type="curve" smooth="yes"/>
      <point x="967" y="499"/>
      <point x="909" y="533"/>
      <point x="830" y="533" type="curve" smooth="yes"/>
      <point x="723" y="533"/>
      <point x="618" y="456"/>
      <point x="609" y="396" type="curve"/>
      <point x="621" y="378" type="line"/>
      <point x="648" y="380"/>
      <point x="685" y="389"/>
      <point x="707" y="401" type="curve"/>
      <point x="711" y="442"/>
      <point x="743" y="484"/>
      <point x="791" y="484" type="curve" smooth="yes"/>
      <point x="846" y="484"/>
      <point x="865" y="454"/>
      <point x="859" y="404" type="curve" smooth="yes"/>
      <point x="852" y="337"/>
      <point x="790" y="262"/>
      <point x="541" y="31" type="curve"/>
      <point x="550" y="0" type="line"/>
      <point x="897" y="0" type="line"/>
    </contour>
  </outline>
</glyph>
